<svg xmlns="http://www.w3.org/2000/svg" viewBox="0 0 500 500"><g id="freepik--Floor--inject-265"><path id="freepik--floor--inject-265" d="M92,258.24c-87.24,50.37-87.24,132,0,182.41s228.7,50.37,316,0,87.24-132,0-182.41S179.27,207.87,92,258.24Z" style="fill:#f5f5f5"></path></g><g id="freepik--Clouds--inject-265"><path id="freepik--Cloud--inject-265" d="M50.46,117.65c-2.61-.39-4.35-1.24-4.7-2.61a3.54,3.54,0,0,1,2.16-3.7,11.63,11.63,0,0,1,5.62-.69c-.24-2.39,2-5.22,4.14-6.42s6.12-1.49,8.34.35c.65-4.29,3.41-6.39,7.73-7.9a11.32,11.32,0,0,1,11.07,2.13c2.5-4.68,10-7.49,17.62-4.42a13.23,13.23,0,0,1,6.91,6.46,14.62,14.62,0,0,1,1.17,5.28,6.73,6.73,0,0,1,7.11-.34,5.5,5.5,0,0,1,2.58,5,14,14,0,0,1,4.6,1.06c1.66.7,3.39,2.26,2.78,3.9-.45,1.24-2,1.73-3.36,1.92a20.57,20.57,0,0,1-8.08-.5,14.52,14.52,0,0,1-16.51-.4,26.69,26.69,0,0,1-3.41,2.2,13.34,13.34,0,0,1-4,1.06c-2.32.25-5.57-.18-7.38-1.7a1.47,1.47,0,0,0-.86-.48,1.52,1.52,0,0,0-.73.25,10.73,10.73,0,0,1-11.3-.8A10.85,10.85,0,0,1,64.38,120,10.72,10.72,0,0,1,57,116.66,11.89,11.89,0,0,1,50.46,117.65Z" style="fill:#f5f5f5"></path><path id="freepik--cloud--inject-265" d="M286,67.27c-2.61-.39-4.35-1.24-4.7-2.61A3.54,3.54,0,0,1,283.5,61a11.63,11.63,0,0,1,5.62-.69c-.24-2.39,2-5.22,4.14-6.42s6.12-1.49,8.34.35c.65-4.3,3.41-6.4,7.73-7.9a11.32,11.32,0,0,1,11.07,2.13c2.5-4.68,10-7.49,17.62-4.42a13.23,13.23,0,0,1,6.91,6.46,14.62,14.62,0,0,1,1.17,5.28,6.73,6.73,0,0,1,7.11-.34,5.5,5.5,0,0,1,2.58,5,14.23,14.23,0,0,1,4.6,1.07c1.66.7,3.39,2.26,2.78,3.9-.45,1.24-2,1.73-3.36,1.92a20.57,20.57,0,0,1-8.08-.5,14.52,14.52,0,0,1-16.51-.4,27.82,27.82,0,0,1-3.41,2.2,13.64,13.64,0,0,1-4,1.06c-2.32.25-5.57-.18-7.38-1.7a1.47,1.47,0,0,0-.86-.48,1.52,1.52,0,0,0-.73.25,10.75,10.75,0,0,1-11.3-.8A10.85,10.85,0,0,1,300,69.61a10.72,10.72,0,0,1-7.34-3.33A11.89,11.89,0,0,1,286,67.27Z" style="fill:#f5f5f5"></path><path id="freepik--cloud--inject-265" d="M452.31,107.94c2.4-.36,4-1.14,4.32-2.41a3.27,3.27,0,0,0-2-3.4,10.65,10.65,0,0,0-5.17-.63c.22-2.2-1.81-4.81-3.81-5.91s-5.63-1.37-7.68.32c-.59-4-3.13-5.88-7.1-7.27a10.42,10.42,0,0,0-10.19,2c-2.3-4.31-9.17-6.89-16.22-4.07a12.29,12.29,0,0,0-6.36,6A13.62,13.62,0,0,0,397,97.34,6.18,6.18,0,0,0,390.5,97a5.09,5.09,0,0,0-2.38,4.57,12.74,12.74,0,0,0-4.23,1c-1.53.64-3.12,2.08-2.56,3.58.42,1.15,1.84,1.6,3.09,1.77a18.67,18.67,0,0,0,7.44-.46,13.34,13.34,0,0,0,15.19-.37,24.56,24.56,0,0,0,3.14,2,12.41,12.41,0,0,0,3.65,1c2.13.22,5.13-.18,6.79-1.58a1.49,1.49,0,0,1,.79-.44,1.43,1.43,0,0,1,.68.24,9.87,9.87,0,0,0,10.39-.74,10,10,0,0,0,7,2.51,9.87,9.87,0,0,0,6.76-3.06A11,11,0,0,0,452.31,107.94Z" style="fill:#f5f5f5"></path></g><g id="freepik--Shadows--inject-265"><path id="freepik--Shadow--inject-265" d="M79.36,359.86c-12.69,7.33-12.69,19.2,0,26.53s33.27,7.33,46,0,12.69-19.2,0-26.53S92.05,352.53,79.36,359.86Z" style="fill:#e0e0e0"></path><path id="freepik--shadow--inject-265" d="M185.15,400.9c-12.69,7.33-12.69,19.21,0,26.53s33.26,7.33,45.95,0,12.69-19.2,0-26.53S197.84,393.58,185.15,400.9Z" style="fill:#e0e0e0"></path><path id="freepik--shadow--inject-265" d="M244.06,478.38l143.78-83.07-63.5-36.67L143.82,463C175.06,472.71,209.47,477.85,244.06,478.38Z" style="fill:#e0e0e0"></path><path id="freepik--shadow--inject-265" d="M191.28,298.59,36.72,387.9c9.11,16.89,24.37,32.91,45.79,46.9l172.28-99.54Z" style="fill:#e0e0e0"></path></g><g id="freepik--character-4--inject-265"><g id="freepik--Box--inject-265"><polygon points="336.71 292.03 336.7 418.67 283.91 388.18 283.91 261.54 336.71 292.03" style="fill:#1F509A"></polygon><polygon points="336.71 292.03 336.7 418.67 283.91 388.18 283.91 261.54 336.71 292.03" style="fill:#fff;opacity:0.2"></polygon><polygon points="377.33 268.57 336.71 292.03 336.7 418.67 377.33 395.22 377.33 268.57" style="fill:#1F509A"></polygon><polygon points="377.33 268.57 336.71 292.03 336.7 418.67 377.33 395.22 377.33 268.57" style="opacity:0.2"></polygon><polygon points="377.33 268.58 336.71 292.03 283.91 261.54 324.54 238.08 377.33 268.58" style="fill:#fff"></polygon><path d="M324.54,240.39l48.79,28.19-36.62,21.14-48.8-28.18,36.63-21.15m0-2.31-40.63,23.46L336.71,292l40.62-23.45-52.79-30.5Z" style="fill:#1F509A"></path></g><g id="freepik--Character--inject-265"><g id="freepik--Arm--inject-265"><g id="freepik--arm--inject-265"><path d="M309.26,187.1a7.28,7.28,0,0,0-.58,1.93c-.11,1,.4,2.09-.05,3s-2.64,1.36-3.4,1.83a2.39,2.39,0,0,1-1,.44c-.44,0-.44-.07-.53-.44a7.58,7.58,0,0,1-.23-2.12,8,8,0,0,1,1.21-4,3,3,0,0,1,1.21-1.2,2,2,0,0,1,1.57,0C307.79,186.69,309.39,186.78,309.26,187.1Z" style="fill:#f28f8f"></path><path d="M302.46,190.34a58,58,0,0,1,.21-6.5c.28-2.07.6-10,.84-12.19.32-2.91.91-4.76,1.22-6.57.35-2,.56-4.77,1.12-9.17s1.45-6.89,3.59-8.45c2-1.44,4.13-1.62,5.49-2,.61,1.29.48,6,.48,6s-1.45,10.08-1.57,11.31-2,8-3.18,12.69c-.69,2.67-1.45,5.35-1.45,5.35a5.81,5.81,0,0,0,.08,3.53,35.64,35.64,0,0,1,1.48,4.51,15.34,15.34,0,0,0,.72,2.82c.25.66-.8.94-1.63.42s-.78-1.4-1.26-2.19-1.25-2.38-1.7-2a22,22,0,0,0-1.44,2.75,4.5,4.5,0,0,0-.68,1.61c-.1.65.34,1.51.06,2.09a1,1,0,0,1-.27.33,2.11,2.11,0,0,1-1,.49C302.51,195.31,302.46,190.93,302.46,190.34Z" style="fill:#ffa8a7"></path></g><path d="M312.88,145.62c-1.9.47-4.87,2.15-5.95,4.34s-1.74,8-2.15,11.64-1.48,7.07-1.74,10.74-.23,6.63-.23,6.63a8.94,8.94,0,0,0,3.39,1,11.29,11.29,0,0,0,3.57,0s2.74-10.12,3.45-12.89,1-5.4,1.9-10.29.59-10,.12-11.51A12.14,12.14,0,0,0,312.88,145.62Z" style="fill:#e0e0e0"></path><path d="M302.66,178.54v2.52s.57,1,3.48,1.15,3.41-.28,3.41-.28l.53-2.59A11.58,11.58,0,0,1,302.66,178.54Z" style="fill:#f0f0f0"></path><g id="freepik--Briefcase--inject-265"><path d="M289.31,204.78l-.08,23.14c0,1.13.79,1.78,1.76,2.35l2.43,1.42a2.35,2.35,0,0,0,1.9.38,5.54,5.54,0,0,0,1.3-.53l.05,0,.13-.07,24.92-14.28a5.88,5.88,0,0,0,3-5.08l.07-21.07a1.69,1.69,0,0,0-.75-1.32l-4.15-2.41a1.65,1.65,0,0,0-1.5,0l-28.28,16.2a1.46,1.46,0,0,0-.54.56A1.58,1.58,0,0,0,289.31,204.78Z" style="fill:#455a64"></path><path d="M289.31,204.78l-.08,23.14c0,1.13.79,1.78,1.76,2.35l2.43,1.42a2.35,2.35,0,0,0,1.9.38,5.54,5.54,0,0,0,1.3-.53h0c-1,.45-1.74-.06-1.73-1.21l.07-21.8a2.31,2.31,0,0,1,.34-1.13L289.53,204A1.58,1.58,0,0,0,289.31,204.78Z" style="fill:#263238"></path><path d="M295,208.52a2.53,2.53,0,0,1,1.15-2l26.72-15.31c1.06-.6,1.92-.1,1.92,1.12l-.07,19.73a5.89,5.89,0,0,1-2.95,5.08L296.8,231.44c-1.06.6-1.92.1-1.91-1.12Z" style="fill:#37474f"></path><path d="M321.2,188.07l-28.33,16.38a2.66,2.66,0,0,0-1.32,2.28l-.08,23.82.43.25.08-24.07a2.21,2.21,0,0,1,1.11-1.9l28.53-16.52Z" style="fill:#1F509A"></path><path d="M311.14,191v3.58l1.4.82,0-4.76c0-.25-.17-.35-.39-.23Z" style="fill:#1F509A"></path><path d="M311.14,191v3.58l1.4.82,0-4.76c0-.25-.17-.35-.39-.23Z" style="opacity:0.4"></path><path d="M301.28,194.5l0,5.8,1.34.78.9-.52,0-4.76a.84.84,0,0,1,.38-.66l6.84-3.92,1.42-.82c.22-.12.39,0,.39.23l0,4.76.91-.52V189a.88.88,0,0,0-.38-.59l-.57-.33a.87.87,0,0,0-.77,0l-10.06,5.76A.85.85,0,0,0,301.28,194.5Z" style="fill:#1F509A"></path><path d="M302.62,195.28l0,5.8.9-.52,0-4.76a.84.84,0,0,1,.38-.66l6.84-3.92,1.42-.82c.22-.12.39,0,.39.23l0,4.76.91-.52V189c0-.18-.19-.25-.38-.14L303,194.61A.86.86,0,0,0,302.62,195.28Z" style="opacity:0.2"></path></g><path d="M311.82,190.28a1.35,1.35,0,0,0-.45-.47,6,6,0,0,0-1.36-.73,1.57,1.57,0,0,0-.95-.1.64.64,0,0,0-.48.73,2.43,2.43,0,0,0-1.31,0,.93.93,0,0,0-.52.31c-.24.35,0,.84-.12,1.25-.5-.06-1.11-.08-1.38.35s.49,2.46.24,2.61c-.59.36-1,.58-1.59.94a.67.67,0,0,0-.22.19,16.26,16.26,0,0,0,1.83,1.18,1.54,1.54,0,0,0,1.94-.41,1.54,1.54,0,0,1,.23-.39c.23-.23.62-.17.94-.26s.77-.61,1.21-.83c.2-.09.42-.14.62-.24.62-.31.69-.89.94-1.45a5.3,5.3,0,0,0,.54-1.91A1.33,1.33,0,0,0,311.82,190.28Z" style="fill:#ffa8a7"></path></g><g id="freepik--Bottom--inject-265"><path d="M311,261.2c0,.79-.15,1.1.83,1.82a6.32,6.32,0,0,0,4.68.61,4.3,4.3,0,0,0,2.58-1.56,20.84,20.84,0,0,0,1.51-2.27,11.37,11.37,0,0,1,2.84-1.6c1.32-.59,3.86-1.76,4.77-3.91a5.08,5.08,0,0,0,.28-3.68Z" style="fill:#263238"></path><path d="M319.48,250.3c-2.56,1.67-4.72,5.88-8.22,4.6-.18,2.06-.73,4.28-.24,6.3a5.28,5.28,0,0,0,6.65.87c.95-.81,1.48-1.75,2.4-2.61a9.13,9.13,0,0,1,2.52-1.53,29.22,29.22,0,0,0,3.05-1.69C331.31,252.06,328.5,244.41,319.48,250.3Z" style="fill:#37474f"></path><path d="M331.74,272c0,.86.09,1.51.62,1.86a29.85,29.85,0,0,0,5.52,1c1,.11,1.18-.58,1.92-.35a38.63,38.63,0,0,0,5,2,16.33,16.33,0,0,0,8.21-.13c3.6-1.05,3.87-2.61,3.8-3.82S331.74,272,331.74,272Z" style="fill:#263238"></path><path d="M332.13,264c-.54,2.47-1.08,6.17-.39,8,.73.7,3.14,1.08,5.24,1.33a17.14,17.14,0,0,1,5.06,1.52,17.83,17.83,0,0,0,4.79,1.36c3.57.38,7.87-.37,9.76-3,2.76-5.15-12-3.65-13.93-9.53C342,261.52,334.82,264.48,332.13,264Z" style="fill:#37474f"></path><path d="M309.89,233.75c2-21,.95-37.8,2.84-54.71,0,0,29.5-.74,30.23,9.28,0,0,.45,35.73.22,40.14s.06,33.18.06,36.34c-7.33,3.63-11.33.22-11.33.22-.82-7.58-4-21.65-2.53-30.78l-2.91-17.86s-5.56,32-6.41,40.14c-2.17,3.21-8.31,2.46-9.33.52C310.73,257,309.19,239.93,309.89,233.75Z" style="fill:#455a64"></path><path d="M326.47,216.38,324.64,202s-5.56-1-8.78-5c.88,3.22,4.37,6,6.58,6.79l2.21,13.77-.57,12.93Z" style="fill:#37474f"></path><path d="M322,215a97.84,97.84,0,0,1-1.19,11.53c-.76,4.24-2.9,26.53-3.4,31.81a4.09,4.09,0,0,0,.49-.18c.54-5.65,2.63-27.38,3.38-31.55a101.24,101.24,0,0,0,1.2-11.58c.26-4.19.51-8.16.78-10.22l-.47-.06C322.53,206.85,322.28,210.83,322,215Z" style="fill:#37474f"></path><path d="M339.29,266.21c.42-10.37-.47-32.51-.59-41.56-.15-11.49-.53-29.37-1.46-36.8l-.47.06c.92,7.4,1.31,25.26,1.46,36.74.11,9.09,1,31.39.57,41.69Z" style="fill:#37474f"></path><path d="M337.7,199.67c2.59-2.62,2.23-8.1,2-11.52,0-.28,0-.55-.05-.81l.47,0q0,.39.06.81c.24,3.64.64,9.58-2.48,12.21Z" style="fill:#37474f"></path></g><g id="freepik--Top--inject-265"><g id="freepik--arm--inject-265"><path d="M339.82,128.55a10,10,0,0,1,1.83,1.24,5.56,5.56,0,0,0,2.32,1c2,.28,2.69-.66,4.06,1.25.23.32.55.86.92,1.52l5.89-3.87a51.33,51.33,0,0,0-5.59-4.76c-1.19-.92-4.56-2-6.66-2.51a5.73,5.73,0,0,0-2.74-.35c-1.2.23-2.53.35-4.14.6a26.38,26.38,0,0,0-3.85.72.87.87,0,0,0-.5.33.53.53,0,0,0,.08.55,1.25,1.25,0,0,0,.48.33A4,4,0,0,0,333,125a1,1,0,0,0-.36.93c.11.48.66.67,1.13.82a.26.26,0,0,1,.14.09.33.33,0,0,1,0,.22,1,1,0,0,0,.5.91,2.79,2.79,0,0,0,1.05.32C336.9,128.46,338.5,128.05,339.82,128.55Z" style="fill:#ffa8a7"></path><path d="M335.58,128.26h-.06a2.78,2.78,0,0,1-1.06-.32,1,1,0,0,1-.5-.91c0-.08,0-.16,0-.22a.26.26,0,0,0-.15-.09c-.46-.15-1-.34-1.12-.82A1.06,1.06,0,0,1,333,125a4,4,0,0,1-1.12-.35,1.25,1.25,0,0,1-.48-.33.53.53,0,0,1-.08-.55.84.84,0,0,1,.5-.33,16.32,16.32,0,0,1,2.5-.52Z" style="fill:#f28f8f"></path><path d="M343.53,124.32c.07.18-.1.35-.26.41-1.48.46-3-.32-4.52,0s-.56,1.12.29,1.47,2,.25,3,.64a3.51,3.51,0,0,1,1.38,1.6,3.62,3.62,0,0,0,2.45,1.54,3.48,3.48,0,0,1-2.71-1.36c-.38-.53-.68-1.14-1.29-1.39-1.26-.39-2.86-.09-3.92-1.17-.84-.77-.18-1.67.76-1.75,1.55-.29,3,.61,4.57.36.16,0,.32-.14.29-.33Z" style="fill:#f28f8f"></path></g><g id="freepik--Head--inject-265"><polygon points="330.82 141.91 330.72 149.35 320.23 147.74 320.48 141.14 330.82 141.91" style="fill:#ffa8a7"></polygon><path d="M334.17,129.28c.77.94,3.14,3.8,3.23,4.35l-1.89,1.19Z" style="fill:#f28f8f"></path><path d="M328.66,122.11c3-.36,5.19,1.11,5.95,8.17,0,.25.52,1,.81,1.94,1,3.37.52,7.7-.16,8.76a8.46,8.46,0,0,1-6.5,1.76c-2.14-.16-7.63-.75-10.44-3.61-3.3-3.38-5-8.5-2.72-11.19C318.82,124.15,327,122.3,328.66,122.11Z" style="fill:#ffa8a7"></path><path d="M335.26,141a6.63,6.63,0,0,1-4.45,1.87v-1.13A15.28,15.28,0,0,0,335.26,141Z" style="fill:#f28f8f"></path><path d="M329.3,133.57a.55.55,0,0,1-1,.18,7.57,7.57,0,0,0-1.09-1.24,2.67,2.67,0,0,0-1.83-.59c-2.47.21-1.83,3.47-.6,4.59,2,1.83,3,.21,3,.21s.35,3.85-1.71,5.72a13.55,13.55,0,0,1-5.79-.7,22.66,22.66,0,0,1-5.42-5.22c-3.42-4.6-3.74-10.8-.43-12.28-.14-1.65.79-3.84,4.15-5.31a14,14,0,0,1,8-.85c2.44.27,4.43,1.41,6.57-.42a4.43,4.43,0,0,1-.32,4,1.46,1.46,0,0,1,1.3,2.62,1.3,1.3,0,0,1,.47,1.48,1.49,1.49,0,0,1-1.25.92,2.92,2.92,0,0,1-1.34-.21A4.18,4.18,0,0,1,328,129,5.13,5.13,0,0,1,329.3,133.57Z" style="fill:#263238"></path></g><path d="M333.11,147.72s-1.52-1.3-2.35-1.92-2.22-.92-5.71-1.53a17.62,17.62,0,0,0-4.66-.23,14.47,14.47,0,0,0-3.08,1.24,22.8,22.8,0,0,0,6.46,2.13A40.43,40.43,0,0,0,333.11,147.72Z" style="fill:#e0e0e0"></path><g id="freepik--Chest--inject-265"><path d="M323.06,145.91c2.83.57,6.58,1.45,10,1.8a18.54,18.54,0,0,0,4.39-.05,12.56,12.56,0,0,1,3.43,4.51c.36.78,2,3.64,2.27,10.06s.38,15.79.43,23.27c0,4,0,4.83-.54,5.14-2.84,1.64-11,4.69-20.9,2.47A19.31,19.31,0,0,1,312,187.46a1.81,1.81,0,0,1-.46-1.37c.22-2.78,1-12.58.74-14.83-.29-2.62-2.6-13.71-2.34-18.06s2-7,4.6-7.82C316,144.89,318.77,145.05,323.06,145.91Z" style="fill:#f5f5f5"></path><path d="M316.72,145.72h0a34.25,34.25,0,0,1,6.22.79l1.88.39a80.48,80.48,0,0,0,8.15,1.42,18,18,0,0,0,2,.11,20.85,20.85,0,0,0,2.26-.13,12.25,12.25,0,0,1,3.06,4.12l.11.23c.5,1,1.83,3.82,2.11,9.61.32,6.69.38,16.26.42,23.24,0,2.49,0,4.46-.23,4.61a28.94,28.94,0,0,1-13.53,3.17,31.5,31.5,0,0,1-6.92-.77,18.71,18.71,0,0,1-9.79-5.46,1.17,1.17,0,0,1-.31-.91c.24-2.93,1-12.66.74-14.95-.08-.76-.33-2.18-.64-4-.74-4.35-1.88-10.93-1.7-14,.23-3.86,1.72-6.45,4.19-7.27a6.49,6.49,0,0,1,2-.24m0-.61a7.16,7.16,0,0,0-2.18.27c-2.58.86-4.35,3.46-4.6,7.82s2.05,15.44,2.34,18.06c.25,2.25-.52,12.05-.74,14.83a1.81,1.81,0,0,0,.46,1.37,19.31,19.31,0,0,0,10.11,5.65,32.59,32.59,0,0,0,7.06.78A29.45,29.45,0,0,0,343,190.64c.55-.31.56-1.18.54-5.14-.05-7.48-.11-16.76-.43-23.27s-1.91-9.28-2.27-10.06a12.56,12.56,0,0,0-3.43-4.51,20.45,20.45,0,0,1-2.45.16,18.62,18.62,0,0,1-1.94-.11c-3.39-.35-7.14-1.23-10-1.8a34.12,34.12,0,0,0-6.34-.8Z" style="fill:#e0e0e0"></path></g><g id="freepik--arm--inject-265"><path d="M338.11,148.15c2.52-.74,3-.42,4.94-.62,2.68-.27,10.89-4.24,10.89-4.24a13.9,13.9,0,0,1,7.85-1.34c3.17.57,4.3,1.45,4.52,2.48.3,1.46-.09,3.44-2.87,5.23-2.2,1.4-14.91,8.74-19.08,10.4C339.54,159.32,336.8,153.1,338.11,148.15Z" style="fill:#ffa8a7"></path><path d="M337.42,147.66a31.68,31.68,0,0,1,5.68-.68c3-.07,10.56-3.79,10.56-3.79l-3.81-7.84a6.32,6.32,0,0,1,2.9-3.38c2.4-1.45,3.62-1,3.62-1s6,5.71,7.73,8.2,3.14,5,2.65,7.09-2.42,3.32-6.37,5.66-10.27,5.86-12.22,7-4.72,1.88-5,4.39c-1.49.39-4.76-2.21-5.77-5.2C335.59,152.7,336.23,149.06,337.42,147.66Z" style="fill:#e0e0e0"></path><path d="M350.19,136.05l-1.35-2.47a5.2,5.2,0,0,1,2.34-2.84,8.68,8.68,0,0,1,3.51-1.41s1.77,1.67,2.2,2.14C354.41,131.7,351.51,133.88,350.19,136.05Z" style="fill:#f0f0f0"></path></g></g></g></g><g id="freepik--character-2--inject-265"><g id="freepik--box--inject-265"><polygon points="204.68 231.05 204.67 357.69 151.88 327.21 151.88 200.56 204.68 231.05" style="fill:#1F509A"></polygon><polygon points="204.68 231.05 204.67 357.69 151.88 327.21 151.88 200.56 204.68 231.05" style="fill:#fff;opacity:0.2"></polygon><polygon points="245.3 207.6 204.68 231.05 204.67 357.69 245.3 334.24 245.3 207.6" style="fill:#1F509A"></polygon><polygon points="245.3 207.6 204.68 231.05 204.67 357.69 245.3 334.24 245.3 207.6" style="opacity:0.2"></polygon><polygon points="245.3 207.6 204.68 231.05 151.88 200.56 192.51 177.1 245.3 207.6" style="fill:#fff"></polygon><path d="M192.51,179.41,241.3,207.6l-36.62,21.14-48.8-28.18,36.63-21.15m0-2.31-40.64,23.46,52.81,30.49L245.3,207.6l-52.79-30.5Z" style="fill:#1F509A"></path></g><g id="freepik--character--inject-265"><g id="freepik--arm--inject-265"><g id="freepik--arm--inject-265"><path d="M178.21,123c-.3.6.89,1.66.76,2.32-.18.92-.89,3.36-2.89,2.81a.34.34,0,0,0-.22,0c-.08,0-.13.1-.17.17a1.31,1.31,0,0,1-1.1.57c-2.36-.06-.17-4.5.53-5.43a3,3,0,0,1,1.29-1.09,2,2,0,0,1,1.55.09C178.26,122.58,178.36,122.7,178.21,123Z" style="fill:#9a4a4d"></path><path d="M172.72,125.78a54.94,54.94,0,0,1,.71-6.4c.42-2,1.34-9.81,1.75-12,.53-2.84,1.26-4.63,1.7-6.39.5-2,1.11-5.66,2-8.74,1.18-4.19,3-7.34,5.24-8.72,2.05-1.26,3.59-1.15,5-1.43.5,1.32-.59,6.18-.59,6.18s-2.2,9.85-2.41,11.06-2.56,7.79-4.1,12.29c-.89,2.58-1.84,5.17-1.84,5.17a5.71,5.71,0,0,0-.19,3.5,35.65,35.65,0,0,1,1.12,4.57,15.34,15.34,0,0,0,.49,2.84c.19.67-.86.87-1.64.29s-.66-1.44-1.08-2.26-1-2.45-1.53-2.06a20.74,20.74,0,0,0-1.63,2.6,4.68,4.68,0,0,0-.86,2c-.11.63-.45,1.29-1.25,1.09C172.25,129.06,172.64,126.71,172.72,125.78Z" style="fill:#b16668"></path></g><path d="M186.88,82.12a8.69,8.69,0,0,0-6.24,4.64,53,53,0,0,0-3.45,10.81c-.68,3.53-2,6.88-2.53,10.48s-.73,6.53-.73,6.53a9.06,9.06,0,0,0,3.28,1.21,11.19,11.19,0,0,0,3.52.27s3.48-9.79,4.39-12.47,1.43-5.26,2.66-10,1.91-10.24,1.56-11.74A9.53,9.53,0,0,0,186.88,82.12Z" style="fill:#37474f"></path><g id="freepik--briefcase--inject-265"><path d="M192.22,155.68l.51-24.54a2,2,0,0,0-.75-1.4l-.66-.51a.72.72,0,0,0-.6-.2h0l-29.28,6.17,1.28,27L192,156.07h0A.36.36,0,0,0,192.22,155.68Z" style="fill:#37474f"></path><path d="M158.87,159.46l3.31,2.58c.42.33.78.24.79-.2l.51-24.54a2,2,0,0,0-.75-1.4l-.66-.51c-.43-.33-.83-.26-.9.17l-3,22.52A1.67,1.67,0,0,0,158.87,159.46Z" style="fill:#263238"></path><path d="M171.14,158.65a.37.37,0,0,1-.29-.33l.14-11.67c0-.15.14-.24.32-.2a.37.37,0,0,1,.31.33l-.14,11.68c0,.14-.15.23-.32.2Z" style="fill:#1F509A"></path><path d="M184.43,156a.37.37,0,0,1-.29-.33l.13-11.68a.24.24,0,0,1,.32-.2c.17,0,.32.19.31.33l-.13,11.68a.24.24,0,0,1-.32.2Z" style="fill:#1F509A"></path><path d="M165.61,149.51a2.05,2.05,0,0,1-2.39-1.78l.27-10.43a2.1,2.1,0,0,0-.77-1.4l-.65-.51a.77.77,0,0,0-.55-.2l29.2-6.16h0a.72.72,0,0,1,.6.2l.66.51a2,2,0,0,1,.75,1.4l-.26,10.33a3,3,0,0,1-2.61,2.93Z" style="fill:#455a64"></path><polygon points="176.25 146.43 179.72 145.7 179.72 147.27 176.24 148 176.25 146.43" style="fill:#1F509A"></polygon></g><path d="M173.88,126.57a4.1,4.1,0,0,0-1.08,1c-.66.88-.8,1.52-.8,3.28s0,2.17,0,2.17l1.22-.25a12.29,12.29,0,0,1,.18-3.39,2.93,2.93,0,0,1,1.83-1.85c1.64-.8,4.4-1.27,5,.68a19.28,19.28,0,0,1,.53,3l1.24-.26s-.2-1.83-.21-1.93a3.71,3.71,0,0,0-.9-2.39c-1.7-1.6-5-1.15-6.87,0Z" style="fill:#1F509A"></path><path d="M175.72,129.83h.11a4.81,4.81,0,0,1,.53.07,1.33,1.33,0,0,0,1.16-.34,1.42,1.42,0,0,1,.25-.24.65.65,0,0,1,.34-.07,2.35,2.35,0,0,0,1.12-.19,1.83,1.83,0,0,0,.65-1.06l.15-.48a.88.88,0,0,0,.06-.27.91.91,0,0,0-.18-.47,3.2,3.2,0,0,0-.5-.72,1.25,1.25,0,0,0-.76-.39.58.58,0,0,0-.34.07.3.3,0,0,0-.15.3,3.48,3.48,0,0,0-1-.24,1,1,0,0,0-.52.07.42.42,0,0,0-.24.44c0-.13-.62-.12-.72-.08-1,.36-2,2.14-2.27,3.11a3.88,3.88,0,0,0,.64.41,1.91,1.91,0,0,0,1,.26C175.28,130,175.5,129.87,175.72,129.83Z" style="fill:#b16668"></path></g><g id="freepik--bottom--inject-265"><path d="M178.69,199.08a12.32,12.32,0,0,1,.7-5.36,58.82,58.82,0,0,1,3.83-8.94c1.83-3.59,4.18-7.74,4.18-7.74l-9-4.21s-3.82,11.77-4.18,12.6a4.4,4.4,0,0,1-2.13,2.54c-.94.74,2,2.61,2.08,6.58s.28,6.51,2.21,7.14S181.54,201.2,178.69,199.08Z" style="fill:#b16668"></path><path d="M175.56,204.34a32.45,32.45,0,0,1-3.69-2.21c-1.2-.78-1.5-1.37-1.57-2.27s.87-3.86.65-5.71,2.33-2.6,3.34-.21S175.56,204.34,175.56,204.34Z"></path><path d="M173.41,186.76c.75,0,2.21,1.23,2.71,2.51a11.55,11.55,0,0,1,.6,4.54c0,2.14.15,4.59.83,5.65.39.6.95.68,1.7.71a4,4,0,0,1-.56-1.09,16.1,16.1,0,0,0,2.11.59c2.43.54,2.88,1.69,2.39,2.8-.4.86-5.29,3.24-7.63,1.87-1.07-.62-1.73-1.31-1.29-4.81s-.39-6.8-2.32-5.28a33.92,33.92,0,0,0-3.73,3.57,1.68,1.68,0,0,1-1.64-.87s1-1.68,1.84-3.54.81-2.13,1.51-3.57C171,187.64,172.67,186.75,173.41,186.76Z" style="fill:#455a64"></path><path d="M214.89,206.25c-2.37-1.08-3-2.62-3-5.26,0-4.88,1.05-14.68,1.05-14.68h-9.73s1.49,9.51,1.5,10.42a7.28,7.28,0,0,1-.65,3.53c-.61,1,2.34,1.29,3.79,5s2.45,5.25,4.47,5.15S220.4,207.57,214.89,206.25Z" style="fill:#b16668"></path><path d="M211.5,211.69s-.72,1-3.79-.79-3.55-2.48-3.55-2.48,1.64-6.38,3.44-4.5S211.5,211.69,211.5,211.69Z"></path><path d="M204.42,199.47a5.11,5.11,0,0,1,2.87.86c1.32.83,2.17,2.54,2.89,3.88a10.54,10.54,0,0,0,.83,1.42,4.82,4.82,0,0,0,3.29,1.9c.37.05,1.71.18,1.94-.21s-.9-1-1.35-1.07c1.13.25,1.6.3,2.24.41,2.29.39,2.59,1.74,2.54,3-.07.95-4.41,2.82-7.12,2.6-2.25-.19-2.76-.41-3.69-2.14S207,206.2,206,208.44a17.57,17.57,0,0,0-.71,4.39,1.69,1.69,0,0,1-1.84-.23,14.86,14.86,0,0,0,0-2.22c0-2-1.4-4.52-1-6.93A6.09,6.09,0,0,1,204.42,199.47Z" style="fill:#455a64"></path><path d="M181.86,188.63s7.93-12.21,12-19.51c3-5.4,3.25-6.44,3.94-10l1.84-9.31L202.27,165a39.54,39.54,0,0,0-1.08,6.85A72.08,72.08,0,0,0,202.31,183c1.3,8,1.85,12.06,1.85,12.06a12,12,0,0,0,4.61.67,11.82,11.82,0,0,0,3.79-.84s1.52-17.94,1.73-22.86c.26-5.91.34-8.23.48-11.48.21-5.17.8-12.66.44-22.14C214.48,119.57,210,111,210,111l-21.84-2.59c-1.7,6.38-5.44,7.19-5.69,15.87-.06,2,1.07,5.87,1.16,8.92.28,9.92,1.45,25.48,1.45,25.48-2.35,2.19-4.07,4.17-5.64,9.2-.95,3.06-3.94,12.79-4.83,15.52C178,184.3,181.86,188.63,181.86,188.63Z" style="fill:#1F509A"></path><path d="M181.86,188.63s7.93-12.21,12-19.51c3-5.4,3.25-6.44,3.94-10l1.84-9.31L202.27,165a39.54,39.54,0,0,0-1.08,6.85A72.08,72.08,0,0,0,202.31,183c1.3,8,1.85,12.06,1.85,12.06a12,12,0,0,0,4.61.67,11.82,11.82,0,0,0,3.79-.84s1.52-17.94,1.73-22.86c.26-5.91.34-8.23.48-11.48.21-5.17.8-12.66.44-22.14C214.48,119.57,210,111,210,111l-21.84-2.59c-1.7,6.38-5.44,7.19-5.69,15.87-.06,2,1.07,5.87,1.16,8.92.28,9.92,1.45,25.48,1.45,25.48-2.35,2.19-4.07,4.17-5.64,9.2-.95,3.06-3.94,12.79-4.83,15.52C178,184.3,181.86,188.63,181.86,188.63Z" style="fill:#fff;opacity:0.4"></path><g style="opacity:0.6000000000000001"><path d="M212.43,122.63l-.56.17c1.75,5.77,1.09,9.82-1.83,11.48-.61-3.9-1.43-7.93-2.55-12.24l-.56.14c3.59,13.88,4.18,24.85,4,38-.16,10.05-.52,27.34-.69,35.36l.59-.1c.17-8.07.53-25.24.68-35.25a149.06,149.06,0,0,0-1.35-25.34C213.48,133.16,214.31,128.82,212.43,122.63Z" style="fill:#1F509A"></path><path d="M194,133.92a199.57,199.57,0,0,1-2.1,26.58c-.72,3.71-10,20.2-13,25.43.16.12.31.25.46.38,2.93-5.15,12.31-21.83,13.06-25.7a199.41,199.41,0,0,0,2.11-26.7Z" style="fill:#1F509A"></path></g><path d="M199.6,149.86,197,134s-6.14-.74-7.08-6.34A7.4,7.4,0,0,0,195,135.3l3.29,14.64-.56,9.23Z" style="fill:#1F509A;opacity:0.6000000000000001"></path></g><g id="freepik--top--inject-265"><path d="M233.81,85c2.68-2.14-1-6.4-4.15-10.5-5-6.64-9.49-11.39-12-13.3a20.6,20.6,0,0,0-6.36-2.56,6.16,6.16,0,0,0-2.9-.38c-1.28.25-2.69.38-4.39.65a27,27,0,0,0-4.09.77.83.83,0,0,0-.52.34.54.54,0,0,0,.08.58,1.32,1.32,0,0,0,.51.36,4.45,4.45,0,0,0,1.19.37,1.11,1.11,0,0,0-.39,1c.12.5.71.7,1.2.86a.29.29,0,0,1,.16.1.36.36,0,0,1,0,.23,1,1,0,0,0,.53,1,2.7,2.7,0,0,0,1.11.33c1.47.21,3.17-.23,4.57.3a10.89,10.89,0,0,1,1.94,1.32,6,6,0,0,0,2.47,1.08c2.15.29,2.23-.66,3.69,1.36s6.7,12.92,6.7,12.92Z" style="fill:#b16668"></path><path d="M212.35,60.61c.06.18-.11.37-.28.43-1.57.49-3.23-.34-4.8,0s-.59,1.2.31,1.56,2.13.26,3.15.67a3.71,3.71,0,0,1,1.46,1.7,3.83,3.83,0,0,0,2.6,1.62,4.36,4.36,0,0,1-2.08-.64,6.3,6.3,0,0,1-1.41-1.67,2.18,2.18,0,0,0-1.74-.79,4.91,4.91,0,0,1-3.17-1c-1.33-1.42.75-2.12,1.93-1.9s2.46.63,3.72.42c.16,0,.33-.16.31-.35Z" style="fill:#9a4a4d"></path><path d="M206,61.14a3.3,3.3,0,0,0-.26-3.26c-.59-1-1.63-1.89-4.32-2.72-3.2-1-11.43-.61-14.46,5.37-.43.86,10.17,14.3,10.34,17.45,1.66-2.53,7.06-11.34,7.06-11.34,1.48-1,2.34-1.72,2.41-3.3A3.73,3.73,0,0,0,206,61.14Z" style="fill:#37474f"></path><path d="M205.52,65.56s2.8,3.15,2.62,3.48a11.61,11.61,0,0,1-1.42,1.35Z" style="fill:#9a4a4d"></path><path d="M201.66,59.6c1.57.42,3,1.31,4.07,4.42.26.81-.18,2.07.32,3.12,2.12,4.52,1.34,8.75.57,9.79-.52.71-3.73,1.56-5.53,1.39-2.25-.21-7.28-1.47-10.1-4.41-3.32-3.47-4.89-8.65-2.37-11.3C192.17,58.88,200,59.15,201.66,59.6Z" style="fill:#b16668"></path><path d="M192.43,76.41v5.5h0c-1.23.58,0,2.57.91,3.58l.08,1.7,8.51-.43-.1-9.82Z" style="fill:#b16668"></path><path d="M206.47,77.08a8.37,8.37,0,0,1-4.63,1.27l0-1.2a13.1,13.1,0,0,0,2.29.25A7.67,7.67,0,0,0,206.47,77.08Z" style="fill:#9a4a4d"></path><path d="M204.12,60.91a3.06,3.06,0,0,1-1.58,3.52,4.48,4.48,0,0,1,.82,2.36,2.64,2.64,0,0,1-1.23,2.55c-.59.33-.83.09-1.14-.37-.45-.65-1.05-1.66-2.53-1.18-1.7.56-1.89,2.62-.56,4.15a2.85,2.85,0,0,0,2.4.86,1.62,1.62,0,0,0,1.08-.77,2.71,2.71,0,0,1,0,.29c-.06,2.34,0,4.61-2.35,5.58-2,.84-5.07.89-6.91-.38a19,19,0,0,1-5.74-6.4,12,12,0,0,1-1.66-6.4,7.32,7.32,0,0,1,1.46-4A3.85,3.85,0,0,1,189.54,59a2.69,2.69,0,0,0,.85,0c.2-.06.38-.16.58-.22a11.32,11.32,0,0,1,1.45-.33,11.14,11.14,0,0,1,2.51-.25C202.64,58.45,204,60.55,204.12,60.91Z" style="fill:#37474f"></path><path d="M186.18,58.17l.18-.09a2.63,2.63,0,0,1,1.39-.11,3.83,3.83,0,0,1,2.59,1.76c.46.74,1,2.26.25,3s-1.53.27-2.16-.08a8.4,8.4,0,0,1-2.33-1.53,2.24,2.24,0,0,1-.7-2A1.55,1.55,0,0,1,186.18,58.17Z" style="fill:#1F509A"></path><path d="M185,86.06a6.19,6.19,0,0,1,4.32-4.23l3.09.08c0,.63.88,1.48,2.3,1.84,1.83.47,4.64.57,6.57-.65l.59-.41a45.06,45.06,0,0,1,5.1.85c3.11,1.06,3.91,2.09,7.36,10.28,1.47,3.49.74,7.19-2.87,9.31-.21,2.19-.41,5.65-.41,5.65a120.84,120.84,0,0,1,2.54,12.63s-3.06,3.61-16.49,3.28c-10.41-.25-14.62-3.67-14.62-3.67,1.11-6.33,4.43-9.53,3.52-15.72C185.25,100.16,182.74,93.22,185,86.06Z" style="fill:#455a64"></path><path d="M211.84,96.15s11.89-5.08,17.09-7.68,5.6-2.88,6-5.31-2.71-5.83-4.67-8.44-6.41-7.83-6.41-7.83a6.92,6.92,0,0,0-3.57.86,5.09,5.09,0,0,0-2.39,3.45l4.32,9s-6.44,2.14-8.06,2.48a14.14,14.14,0,0,1-3.46.18c-1.5.05-3.53.56-4.22.52C206.47,83.4,201.69,91.42,211.84,96.15Z" style="fill:#37474f"></path><path d="M222.21,80.22c3-1,6.36-1.47,8.63-.16-1.51-2.62-5.82-1.71-9-.67Z" style="fill:#263238"></path><path d="M184.19,59.35a6.69,6.69,0,0,0-1.12.6,6,6,0,0,0-1.34,1.18,8.09,8.09,0,0,0-1.53,5,41.63,41.63,0,0,1-.14,5.36c-.27,1.76-1,3.44-1.15,5.21a8.17,8.17,0,0,0,.89,4.45c.65,1.26,1.63,2.33,2.21,3.62a3.64,3.64,0,0,1-.29,4c-.11.12-.25.27-.2.43s.11.15.18.2a5.68,5.68,0,0,0,9-3.69c.29-1.87-.37-3.75-.62-5.64a13.21,13.21,0,0,1,.25-4.89,26.3,26.3,0,0,0,1-5.57,20.16,20.16,0,0,0-.69-5.78c-.53-1.94-1.38-4.39-3.61-4.85A4.94,4.94,0,0,0,184.19,59.35Z" style="fill:#37474f"></path></g></g></g><g id="freepik--character-1--inject-265"><g id="freepik--character--inject-265"><g id="freepik--bottom--inject-265"><path d="M90.05,352.61a6.28,6.28,0,0,0-3.53,2c-1.29,1.63-4.13,6.52-4.7,7.07A4.15,4.15,0,0,0,83.1,363l1.52-1.73c.38-.31.54-.65.52.36s-.16,2.06-.14,3.57A7.6,7.6,0,0,0,86.83,371a9.75,9.75,0,0,0,5.41,3.37c.85.12,2.35-.08,2.26-1.78,0-.9-.46-3.86-.61-5.51S90.05,352.61,90.05,352.61Z" style="fill:#263238"></path><path d="M87.93,362a8.23,8.23,0,0,0,3.15,6.77c1.61,1.34,2.81,1.05,2.82-.49,0-2.46-.31-7,2.51-11.6a99.14,99.14,0,0,1,7-8.59v.08c3.11-3.62,6.68-7.79,9.92-11.9l.12-.15.08-.1a77.41,77.41,0,0,0,8.15-11.93l.26-.5,0-.05h0a9.92,9.92,0,0,0,1.29-4.58l-7.94.15-6-4a59.09,59.09,0,0,1-4.21,9.49c-1.5,2.79-6.35,8.26-9.26,15.69a97.69,97.69,0,0,1-4.51,10.23c-.44.71-1.34,2.24-1.62,2.6C88,355.19,87.58,356.7,87.93,362Z" style="fill:#ffbda7"></path><path d="M109.48,319.19l13.79-.26a3.84,3.84,0,0,1,0,.48c0,.06,0,.12,0,.18s0,.22,0,.33,0,.16,0,.25l-.06.29c0,.1-.05.2-.08.3a2.68,2.68,0,0,1-.07.27l0,.08s-3.48,2.39-9.93,3.49c0,0-.21,10.29-1.91,14.44v0h0l-1.92,2.32C108.9,335.21,109.48,319.19,109.48,319.19Z" style="fill:#f0997a"></path><path d="M99.82,363.63a6.93,6.93,0,0,0-1.88,3.87c-.19,2.22.08,8.31-.1,9.14a3.84,3.84,0,0,0,1.8.46l.34-2.45c.15-.5.09-.91.63,0s1,2,1.82,3.31a7.81,7.81,0,0,0,4.66,4.14,9.1,9.1,0,0,0,6.38-.12,1.92,1.92,0,0,0,.93-2.93c-.54-.78-2.49-3.23-3.51-4.63S99.82,363.63,99.82,363.63Z" style="fill:#263238"></path><path d="M107.36,363.56c-.14-5.83,5.34-32.45,3.87-45l-15.64-.19a67.23,67.23,0,0,1,1.62,11c.25,3.4-.84,11.19.75,19.6A111.59,111.59,0,0,1,99.73,361c0,.9.09,2.81,0,3.31-.25,2.87.19,4.51,3.35,9.07a8.27,8.27,0,0,0,6.31,4.28c2.08.27,2.93-.7,2.11-2.1C110.22,373.28,107.5,369.38,107.36,363.56Z" style="fill:#ffbda7"></path><path d="M97.21,329.46c0,1.32,0,2.64-.12,4s-.12,2.64-.16,4a61.86,61.86,0,0,0,.29,7.94c.13,1.32.35,2.63.59,3.93l.72,3.89c.23,1.29.45,2.59.66,3.89s.41,2.61.54,3.92a77,77,0,0,0-.9-7.87c-.38-2.62-1-5.19-1.21-7.81-.16-1.3-.24-2.62-.31-3.93s-.06-2.63-.07-3.95,0-2.64.05-4S97.33,330.78,97.21,329.46Z" style="fill:#f0997a"></path><path d="M111.45,325.56a50.67,50.67,0,0,0-.22-7l-15.64-.19a49,49,0,0,1,1,5.26h0A27.62,27.62,0,0,0,111.45,325.56Z" style="fill:#f0997a"></path><path d="M123,293.17a91.89,91.89,0,0,0-1.69-10.69c-.63-2.7-1.21-5-1.62-7.11-4.55,3-15.84,3.31-21-.1a54.67,54.67,0,0,0-5.5,9.59A25.49,25.49,0,0,0,90.7,297c.08,4.8,2.23,18.91,4.18,24.95,5.28,2.92,23.8,2.25,29-3C123.92,318.92,123.62,298.14,123,293.17Z" style="fill:#455a64"></path></g><g id="freepik--top--inject-265"><g id="freepik--arm--inject-265"><g id="freepik--arm--inject-265"><path d="M165.38,275.42c-.51-.31-.68-.25-.68-.25.1-.36-.25-1.26-1.51-1.4,0,0,.45-.86-1.45-1.32a15,15,0,0,0-5.71.07c-.48.05-1-.17-.44-.5a7.28,7.28,0,0,0,2.08-1.41,1.65,1.65,0,0,0,.3-.66,1.12,1.12,0,0,0-.14-.69c-.25-.46-1-.14-1.49,0-1.8.68-3.57.8-5.14,2a3.72,3.72,0,0,1-2,.92A118.31,118.31,0,0,1,133,269c-4.32-4-6.94-8.19-10.06-12-2.65-3.24-5.06-3.77-7.06-4l-.16,13.1s6.22,6.15,9.64,9.64c1.45,1.49,2.89,2.09,6.19,2.45,5.44.58,9.87.56,15.24.81a16.67,16.67,0,0,1,5.26.91,5,5,0,0,0,2.2.27c1.83-.24,3.08-.83,4.66-1.08a18.37,18.37,0,0,1,3.79-.29c1.07-.07,1.47-.4,1.53-1s-1.26-.74-1.26-.74a5.29,5.29,0,0,0,1.9-.27C165.55,276.43,165.88,275.73,165.38,275.42Z" style="fill:#ffbda7"></path><path d="M160.94,278.88a14.24,14.24,0,0,1,1.46,0c.66,0,1.38.08,1.77-.56a1,1,0,0,0,.15-.52.59.59,0,0,0-.33-.44,2.2,2.2,0,0,0-.39-.17c.24,0,.49-.06.7-.09a1.68,1.68,0,0,0,1.11-.54,1.08,1.08,0,0,0,.3-.58.64.64,0,0,0-.32-.63,3.16,3.16,0,0,0-.58-.25.89.89,0,0,0-.2-.66,1.76,1.76,0,0,0-.52-.46,2,2,0,0,0-.8-.24.81.81,0,0,0-.39-.8,3.36,3.36,0,0,0-.87-.43,9.12,9.12,0,0,0-2.32-.36,22.66,22.66,0,0,0-3.77.42,25.1,25.1,0,0,1,3.77-.3,8.76,8.76,0,0,1,2.28.37,3,3,0,0,1,.82.42.63.63,0,0,1,.31.71h0a.93.93,0,0,1-.87.49c-.22,0-1.33,0-1.55,0a15.36,15.36,0,0,0-3,.46,16.54,16.54,0,0,1,3.07-.31h1.53a1.11,1.11,0,0,0,1-.51,1.7,1.7,0,0,1,.75.24,1.3,1.3,0,0,1,.46.41.7.7,0,0,1,.16.54h0c0,.23-.29.37-.54.44a3.1,3.1,0,0,1-.81.08,11.64,11.64,0,0,0-1.67,0,15.35,15.35,0,0,0-1.66.2l-1.64.33,1.65-.28a13,13,0,0,1,1.65-.15,13.31,13.31,0,0,1,1.67.05,2.71,2.71,0,0,0,.85-.06,1,1,0,0,0,.62-.4,3.39,3.39,0,0,1,.55.23c.36.16.25.63,0,.9a1.51,1.51,0,0,1-1,.5c-.38.05-.83.08-1.28.11-.78.08-.95.08-1.73.21s-1.54.27-2.3.47c.77-.17,1.54-.27,2.32-.37a16.42,16.42,0,0,1,1.71-.14,2.76,2.76,0,0,1,.91.28c.14.08.26.19.26.32a.79.79,0,0,1-.12.44c-.33.56-1,.53-1.64.51a10.5,10.5,0,0,0-1.48.09c-.67.06-1.34.14-2,.26C159.6,279,160.27,278.91,160.94,278.88Z" style="fill:#f0997a"></path><path d="M151.05,276.37c1.43.6,3.41-.55,4.44-1.7C154.6,276.37,153.05,277.51,151.05,276.37Z" style="fill:#f0997a"></path></g><path d="M115.74,252.76c5.27.77,6.52,2.7,9.06,6s8.09,9.8,8.09,9.8l6.16,1.9a7.17,7.17,0,0,0-2.07,3.9,13.11,13.11,0,0,0,.29,4.45,56.71,56.71,0,0,1-7.74-.53,9.25,9.25,0,0,1-5.27-3.15l-8.76-9Z" style="fill:#e0e0e0"></path></g><path d="M114.89,247.74a1.83,1.83,0,0,1,.46,1.24,4.72,4.72,0,0,0,2.72-5.16c-.33-1.64-1.52-3-2.18-4.49a7.58,7.58,0,0,1-.41-4.9c.4-1.5,1.28-3.13.51-4.67-1.32-2.62-4.44-4-7.18-4.62a14.64,14.64,0,0,0-5.32,0c-3.19.59-7.08,2.88-7.65,6.34a8.32,8.32,0,0,0-1.29.76,8.16,8.16,0,0,0-1,1.37,9.72,9.72,0,0,0-.93,3.5,22.41,22.41,0,0,0,0,5,12.72,12.72,0,0,1,.17,2.54c-.09,1-.49,2-.52,3-.1,2.87,2.6,4.51,5.23,4.28a3.56,3.56,0,0,1-1-1.58,3.26,3.26,0,0,0,1.32,1.14,6.07,6.07,0,0,0,1.69.59,20.41,20.41,0,0,0,6.59.71,17.79,17.79,0,0,0,5.92-1.69,6.65,6.65,0,0,0,1.92-1.26A2.91,2.91,0,0,0,114.89,247.74Z" style="fill:#263238"></path><g id="freepik--chest--inject-265"><path d="M111.67,252.27s-8.09,0-11,.92l-5.3,1.66c-1,1.18-2.83,5.71-3.14,10.26-.16,2.22,3,8.65,3.07,11.22.08,2.2-2,6.18-3.36,9.57,6,9,27.46,7.28,30.13-.91a75.68,75.68,0,0,1-1.23-8.47,43.05,43.05,0,0,1,0-6.86s2.7-2.49,2.53-5.8c-.16-3-1.47-5-4.39-8.27a23.83,23.83,0,0,0-3.24-2.83S113,252.4,111.67,252.27Z" style="fill:#fafafa"></path><path d="M111.63,253c1.14.11,3.22.38,3.84.46a22.43,22.43,0,0,1,3,2.63c2.79,3.11,4.06,5,4.21,7.84s-2.28,5.22-2.3,5.25l-.21.19,0,.28v.23a43.38,43.38,0,0,0,.07,6.72,72.37,72.37,0,0,0,1.2,8.37c-1.35,3.65-7.42,6.28-14.56,6.28-6.37,0-11.58-2-14.06-5.41.32-.79.68-1.62,1-2.43,1.18-2.72,2.3-5.3,2.24-7.07a24.35,24.35,0,0,0-1.59-5.71c-.73-2.08-1.56-4.44-1.49-5.44a23.59,23.59,0,0,1,2.88-9.71l5.08-1.59c2.63-.82,10.13-.89,10.7-.89m0-.7s-8.09,0-11,.92l-5.3,1.66c-1,1.18-2.83,5.71-3.14,10.26-.16,2.22,3,8.65,3.07,11.22.08,2.2-2,6.18-3.36,9.57,2.77,4.15,8.85,6,14.85,6,7,0,13.84-2.52,15.28-6.93a75.68,75.68,0,0,1-1.23-8.47,43.05,43.05,0,0,1,0-6.86s2.7-2.49,2.53-5.8c-.16-3-1.47-5-4.39-8.27a23.83,23.83,0,0,0-3.24-2.83s-2.72-.36-4.07-.49Z" style="fill:#e0e0e0"></path><path d="M112.63,270.94a5.49,5.49,0,0,1-2.93,1.86,8.82,8.82,0,0,1-3.89.15,6.72,6.72,0,0,1-4.33-2.81c0-.07-.12-.14-.2-.12s-.08.16-.06.25a5,5,0,0,0,1.64,2.54,6.15,6.15,0,0,0,3.19,1.16,8.45,8.45,0,0,0,4.27-.54,3.71,3.71,0,0,0,1.42-.92,3.77,3.77,0,0,0,.94-1.5S112.67,270.91,112.63,270.94Z" style="opacity:0.2"></path></g><g id="freepik--head--inject-265"><path d="M101.26,251.36c-.16-2.74-.43-5.45-.43-5.45-.23.58-1.94,1.75-3.94.44a3.78,3.78,0,0,1-1.23-4.84c.89-1.52,2.67-1.68,4.07-.06.08.09.57-.11.65-.16a1,1,0,0,0,.39-.46,1.55,1.55,0,0,0,.07-.74,3.35,3.35,0,0,0-.21-.81,19,19,0,0,0,5.23-4.12c1.92-2.29,2.72-5.51,2.58-5.87a9.76,9.76,0,0,1,2.51.82,6.67,6.67,0,0,1,2.23,2.19,9.91,9.91,0,0,1,.7,3c.15.63.67,1.86.81,2.54.94,4.74.81,7.08-.65,8.74a6.59,6.59,0,0,1-3.56,1.88s0,.58.16,2.06c.07,1,.14,1.69,1,1.73,1.09.86,2.41,4.12-2.44,4.59s-8.39-1.16-9.48-3.37A2,2,0,0,0,101.26,251.36Z" style="fill:#ffbda7"></path><path d="M110.48,248.48c-3.34.6-6.19,0-8.14-1.92a4.76,4.76,0,0,0,2.13,2.25,10.82,10.82,0,0,0,6.1.78Z" style="fill:#f0997a"></path><path d="M110.48,243.24l-3.41-.41a1.62,1.62,0,0,0,1.42,1.9A1.81,1.81,0,0,0,110.48,243.24Z" style="fill:#b16668"></path><path d="M109.23,244.66a1.82,1.82,0,0,1-.74.07,1.62,1.62,0,0,1-1.35-1.09A2,2,0,0,1,109.23,244.66Z" style="fill:#ffa8a7"></path><polygon points="108.03 235.57 109.53 241.66 112.27 240.02 108.03 235.57" style="fill:#f0997a"></polygon><path d="M112.77,236.43a.83.83,0,1,1-.88-.77A.82.82,0,0,1,112.77,236.43Z" style="fill:#263238"></path><path d="M106.5,237.84a.81.81,0,0,1-.77.87.82.82,0,1,1,.77-.87Z" style="fill:#263238"></path><path d="M112.83,234.45,110.6,234a1.09,1.09,0,0,1,1.29-.91A1.19,1.19,0,0,1,112.83,234.45Z" style="fill:#263238"></path><path d="M103.09,237l1.84-1.37a1.1,1.1,0,0,0-1.58-.26A1.19,1.19,0,0,0,103.09,237Z" style="fill:#263238"></path></g><path d="M134.79,292.71a5.26,5.26,0,0,0-1.75-.79s1.32.19,1.41-.36-.2-1-1.21-1.34a19.25,19.25,0,0,1-3.56-1.32c-.49-.23-.94-.53-1.41-.79a10.21,10.21,0,0,1-1.47-.85c-.09-.07-.18-.16-.16-.26.06-.3,1.24-.2,1.47-.22a3.43,3.43,0,0,0,1.62-.48,1.52,1.52,0,0,0,.5-.51,1.07,1.07,0,0,0,.09-.7c-.08-.52-.93-.47-1.41-.46-1.93.06-3.64-.41-5.52.19a3.72,3.72,0,0,1-2.17.22c-3.46-1.49-13.23-7.81-15.41-9.45,0,0-3.44-9.12-5.14-13.76-1.44-3.93-3.77-6-5.29-6.44-7.48,3.2-3.89,13,1.71,24.8.88,1.88,1.46,2.8,4.47,4.22,5,2.33,10.18,4.24,15.18,6.25a18.11,18.11,0,0,1,4,2.1,18.57,18.57,0,0,0,9.8,3.27c2,.09,1.82-.76,1.82-.76a1.4,1.4,0,0,0,1.78-1,6,6,0,0,0,.72-.05C135.45,294,135.32,293.25,134.79,292.71Z" style="fill:#ffbda7"></path><path d="M127.68,290.45a12.09,12.09,0,0,0,5.29,1.47C131.17,291.52,129.43,291,127.68,290.45Zm-1.39,1.77a15.48,15.48,0,0,0,7.87,2A28.39,28.39,0,0,1,126.29,292.22Zm6.09,3a24.44,24.44,0,0,1-6.09-1.31A11,11,0,0,0,132.38,295.27Z" style="fill:#f0997a"></path><path d="M95.42,254.85c-3.37,1.25-5.63,4.51-4.28,10.53s4.79,13.27,5.43,14.71a8.15,8.15,0,0,0,4.26,4.44c1.85.7,3.88,1.3,3.88,1.3a7.91,7.91,0,0,1,.92-4.82,6.12,6.12,0,0,1,4-2.8L106,275.59s-2.24-6.37-3.39-9.5S99.46,256.19,95.42,254.85Z" style="fill:#e0e0e0"></path></g></g></g><g id="freepik--Ledder--inject-265"><g id="freepik--Ladder--inject-265"><g id="freepik--Stick--inject-265"><path d="M172.07,208.94a1.38,1.38,0,0,0-.21-1.22,2,2,0,0,0-2.62-.38,1.83,1.83,0,0,0-.88,1.06L116.18,387.75a1.37,1.37,0,0,0,.21,1.22,2.05,2.05,0,0,0,2.63.39,1.85,1.85,0,0,0,.87-1.06Z" style="fill:#37474f"></path><path d="M169.24,207.34a1.83,1.83,0,0,0-.88,1.06,1.38,1.38,0,0,0,.21,1.22,2.05,2.05,0,0,0,2.63.38,1.85,1.85,0,0,0,.87-1.06,1.38,1.38,0,0,0-.21-1.22A2,2,0,0,0,169.24,207.34Z" style="fill:#455a64"></path></g><path d="M184.64,235a1,1,0,0,0,.93-.06,2.8,2.8,0,0,0,1.49-2,.76.76,0,0,0-.32-.78l-18.61-10.75a1,1,0,0,0-.93.06,2.82,2.82,0,0,0-1.49,2,.76.76,0,0,0,.32.78C166.17,224.27,184.51,234.87,184.64,235Z" style="fill:#455a64"></path><path d="M187.06,232.87a.76.76,0,0,0-.32-.78,1,1,0,0,0-.93.06,2.78,2.78,0,0,0-1.48,2,.76.76,0,0,0,.31.78,1,1,0,0,0,.93-.06A2.8,2.8,0,0,0,187.06,232.87Z" style="fill:#37474f"></path><path d="M180.3,249.91a1,1,0,0,0,.93-.06,2.78,2.78,0,0,0,1.48-2,.76.76,0,0,0-.31-.78l-18.62-10.75a1,1,0,0,0-.93.06,2.79,2.79,0,0,0-1.48,2,.76.76,0,0,0,.32.78Z" style="fill:#455a64"></path><path d="M182.71,247.84a.76.76,0,0,0-.31-.78,1,1,0,0,0-.93.06,2.8,2.8,0,0,0-1.49,2,.76.76,0,0,0,.32.78,1,1,0,0,0,.93-.06A2.78,2.78,0,0,0,182.71,247.84Z" style="fill:#37474f"></path><path d="M176,264.88a1,1,0,0,0,.93-.06,2.8,2.8,0,0,0,1.49-2,.76.76,0,0,0-.32-.78l-18.61-10.75a1,1,0,0,0-.93.06,2.78,2.78,0,0,0-1.48,2,.76.76,0,0,0,.31.78C157.48,254.2,175.82,264.8,176,264.88Z" style="fill:#455a64"></path><path d="M178.37,262.8a.76.76,0,0,0-.32-.78,1,1,0,0,0-.93.06,2.81,2.81,0,0,0-1.48,2,.77.77,0,0,0,.31.78,1,1,0,0,0,.93-.06A2.8,2.8,0,0,0,178.37,262.8Z" style="fill:#37474f"></path><path d="M171.61,279.84a1,1,0,0,0,.93-.06,2.78,2.78,0,0,0,1.48-2,.76.76,0,0,0-.31-.78L155.1,266.24a1,1,0,0,0-.93.06,2.78,2.78,0,0,0-1.49,2,.76.76,0,0,0,.32.78Z" style="fill:#455a64"></path><path d="M174,277.77a.76.76,0,0,0-.31-.78,1,1,0,0,0-.93.06,2.78,2.78,0,0,0-1.48,2,.76.76,0,0,0,.31.78,1,1,0,0,0,.93-.06A2.78,2.78,0,0,0,174,277.77Z" style="fill:#37474f"></path><path d="M167.27,294.81a1,1,0,0,0,.93-.06,2.81,2.81,0,0,0,1.48-2,.77.77,0,0,0-.31-.78L150.75,281.2a1,1,0,0,0-.93.06,2.78,2.78,0,0,0-1.48,2,.77.77,0,0,0,.31.78C148.79,284.13,167.13,294.73,167.27,294.81Z" style="fill:#455a64"></path><path d="M169.68,292.73a.77.77,0,0,0-.31-.78,1,1,0,0,0-.93.06,2.8,2.8,0,0,0-1.49,2,.76.76,0,0,0,.32.78,1,1,0,0,0,.93-.06A2.81,2.81,0,0,0,169.68,292.73Z" style="fill:#37474f"></path><path d="M162.92,309.77a1,1,0,0,0,.93-.06,2.8,2.8,0,0,0,1.49-2,.76.76,0,0,0-.32-.78l-18.61-10.75a1,1,0,0,0-.93.06,2.81,2.81,0,0,0-1.49,2,.76.76,0,0,0,.32.78Z" style="fill:#455a64"></path><path d="M165.34,307.69a.75.75,0,0,0-.32-.77,1,1,0,0,0-.93.06,2.78,2.78,0,0,0-1.48,2,.76.76,0,0,0,.31.78,1,1,0,0,0,.93-.06A2.8,2.8,0,0,0,165.34,307.69Z" style="fill:#37474f"></path><path d="M158.58,324.74a1,1,0,0,0,.93-.06,2.78,2.78,0,0,0,1.48-2,.76.76,0,0,0-.31-.78l-18.62-10.75a1,1,0,0,0-.92.06,2.8,2.8,0,0,0-1.49,2,.76.76,0,0,0,.32.78Z" style="fill:#455a64"></path><path d="M161,322.66a.76.76,0,0,0-.31-.78,1,1,0,0,0-.93.06,2.8,2.8,0,0,0-1.49,2,.76.76,0,0,0,.32.78,1,1,0,0,0,.93-.06A2.78,2.78,0,0,0,161,322.66Z" style="fill:#37474f"></path><path d="M154.23,339.7a1,1,0,0,0,.93-.06,2.8,2.8,0,0,0,1.49-2,.75.75,0,0,0-.32-.77L137.72,326.1a1,1,0,0,0-.93,0,2.8,2.8,0,0,0-1.48,2,.76.76,0,0,0,.31.78Z" style="fill:#455a64"></path><path d="M156.65,337.62a.75.75,0,0,0-.32-.77,1,1,0,0,0-.93.06,2.79,2.79,0,0,0-1.48,2,.77.77,0,0,0,.31.78,1,1,0,0,0,.93-.06A2.8,2.8,0,0,0,156.65,337.62Z" style="fill:#37474f"></path><path d="M149.89,354.67a1,1,0,0,0,.93-.06,2.78,2.78,0,0,0,1.48-2,.76.76,0,0,0-.31-.78l-18.61-10.75a1,1,0,0,0-.93.06,2.8,2.8,0,0,0-1.49,2,.74.74,0,0,0,.32.77Z" style="fill:#455a64"></path><path d="M152.3,352.59a.76.76,0,0,0-.31-.78,1,1,0,0,0-.93.06,2.78,2.78,0,0,0-1.48,2,.76.76,0,0,0,.31.78,1,1,0,0,0,.93-.06A2.78,2.78,0,0,0,152.3,352.59Z" style="fill:#37474f"></path><path d="M145.55,369.63a1,1,0,0,0,.93-.06,2.81,2.81,0,0,0,1.48-2,.77.77,0,0,0-.31-.77L129,356a1,1,0,0,0-.93.05,2.8,2.8,0,0,0-1.48,2,.77.77,0,0,0,.31.78Z" style="fill:#455a64"></path><path d="M148,367.55a.77.77,0,0,0-.31-.77,1,1,0,0,0-.93.06,2.78,2.78,0,0,0-1.49,2,.76.76,0,0,0,.32.78,1,1,0,0,0,.93-.06A2.81,2.81,0,0,0,148,367.55Z" style="fill:#37474f"></path><path d="M141.2,384.6a1,1,0,0,0,.93-.06,2.81,2.81,0,0,0,1.49-2,.76.76,0,0,0-.32-.78L124.69,371a1,1,0,0,0-.93.06,2.82,2.82,0,0,0-1.49,2,.74.74,0,0,0,.32.77Z" style="fill:#455a64"></path><path d="M143.62,382.52a.76.76,0,0,0-.32-.78,1,1,0,0,0-.93.06,2.78,2.78,0,0,0-1.48,2,.76.76,0,0,0,.31.78,1,1,0,0,0,.93-.06A2.81,2.81,0,0,0,143.62,382.52Z" style="fill:#37474f"></path><g id="freepik--stick--inject-265"><path d="M192.38,219.75a1.38,1.38,0,0,0-.21-1.22,2,2,0,0,0-2.62-.38,1.83,1.83,0,0,0-.88,1.06L136.49,398.57a1.38,1.38,0,0,0,.21,1.22,2.06,2.06,0,0,0,2.63.38,1.85,1.85,0,0,0,.87-1.06C140.27,398.86,192.31,220,192.38,219.75Z" style="fill:#37474f"></path><path d="M189.55,218.15a1.83,1.83,0,0,0-.88,1.06,1.37,1.37,0,0,0,.21,1.22,2.05,2.05,0,0,0,2.63.39,1.87,1.87,0,0,0,.87-1.07,1.38,1.38,0,0,0-.21-1.22A2,2,0,0,0,189.55,218.15Z" style="fill:#455a64"></path></g></g></g><g id="freepik--character-3--inject-265"><g id="freepik--character--inject-265"><g id="freepik--bottom--inject-265"><path d="M220.52,405.29a12.74,12.74,0,0,0-.73-5.52,60.34,60.34,0,0,0-3.95-9.22c-1.89-3.71-4.32-8-4.32-8l9.25-4.34s2.76,10.07,3.08,10.95a5.54,5.54,0,0,0,1.58,2.77c1,.77-1.45,2.51-1.49,6.6s.9,8.8-1.09,9.45S217.57,407.48,220.52,405.29Z" style="fill:#ffa8a7"></path><path d="M223.74,410.73a36.18,36.18,0,0,0,3.81-2.29,2.79,2.79,0,0,0,1.62-2.34c.07-.87-.91-4-.67-5.88s-2.41-2.69-3.45-.22S223.74,410.73,223.74,410.73Z"></path><path d="M224.84,391.36a4.31,4.31,0,0,0-2.87,2.51c-.68,1.73-.21,3.34.05,5.39s.37,5.34-.33,6.43c-.4.61-1,.7-1.76.73a4.11,4.11,0,0,0,.59-1.13,17.43,17.43,0,0,1-2.19.62c-2.5.55-3,1.73-2.47,2.88.42.89,5.46,3.35,7.88,1.94,1.1-.64,1.78-1.36,1.33-5s.4-7,2.39-5.45a34.65,34.65,0,0,1,3.86,3.69,1.74,1.74,0,0,0,1.69-.89s-1-1.75-1.9-3.66a45.45,45.45,0,0,0-2.55-5.41C227.26,391.88,225.6,391.34,224.84,391.36Z" style="fill:#455a64"></path><path d="M183.83,415c.92-.73,1.68-3,2.07-5.71a60.48,60.48,0,0,0,.34-10c-.13-4.15-.51-9.06-.51-9.06h10.21s-1.78,10.29-1.86,11.23a5.5,5.5,0,0,0,.25,3.17c.55,1.11-2.37,1.66-4.15,5.34s-2.93,8.35-5,8.1S180.23,415.75,183.83,415Z" style="fill:#ffa8a7"></path><path d="M185.64,420.46s.67,1.06,4-.51,4.15-3.3,4.15-3.3-1.19-6.69-3.19-4.89S185.64,420.46,185.64,420.46Z"></path><path d="M193.9,403.41c-.7-.33-2.49.51-3.52,1.48-1.35,1.29-1.61,2.94-2.24,4.91s-1.94,5-3,5.68a1.89,1.89,0,0,1-1.9-.09,2.82,2.82,0,0,0,.63-.37c-.71-.06-1.66-.29-2.27-.37-2.3-.29-3.82.77-3.85,2,0,1,4,4.26,6.81,4.24,2.33,0,3.14.34,4.26-3.12s1.52-5.4,2.65-3.13,1.81,7.44,1.81,7.44a1.72,1.72,0,0,0,1.91-.09s-.05-3.32.15-5.42,1.14-5.45.88-8S194.59,403.72,193.9,403.41Z" style="fill:#455a64"></path><path d="M216.59,392.72s-6.76-11.12-11.1-20a39.46,39.46,0,0,1-3.13-8.81c-.45-2.35-2.22-8.82-2.22-8.82l-2,13.64a23.24,23.24,0,0,1,.67,6.57,71.91,71.91,0,0,1-1.66,13.14c-1.63,8.36-2.59,11.59-2.59,11.59a5.59,5.59,0,0,1-3.2.81c-3.86.17-5.35-1.64-5.35-1.64s-1.39-15.93-1.74-19.59c-1.19-12.49-1.27-17.78-1-32.35.24-12.42,1.59-27.36,1.59-27.36l27.61-6.62s5.08,8.88,4.57,17.58c-.56,9.44-.87,30.27-.87,30.27,1.5,2.44,2.83,4.93,4.24,10.91.82,3.51,2.43,11.09,3.56,16.65A8.41,8.41,0,0,0,216.59,392.72Z" style="fill:#37474f"></path><path d="M200.14,355.06l3.51-19.42s3.78-.44,8.76-4.81c0,0-.33,3.4-6.95,6.32l-3.33,18.05.23,8.68Z" style="fill:#263238"></path><path d="M189.72,318.71c-2.81,10.39-4.09,36.61-3.77,51.12.21,9.68,1.1,22.52,1.72,30.46.22.08.46.16.72.23-.62-7.91-1.53-20.93-1.75-30.71-.32-14.64,1-41.22,3.85-51.28Z" style="fill:#263238"></path><path d="M208.39,370.4c-1.37-4.1-4.65-14.68-5.37-24.35l-.7.05c.74,9.75,4,20.4,5.41,24.52,1.71,5.1,7.53,15.91,10.08,20.53l.52-.49C215.75,386,210.07,375.4,208.39,370.4Z" style="fill:#263238"></path></g><g id="freepik--top--inject-265"><polygon points="194.6 277.73 195.88 286.7 205.9 284.59 204.08 274.85 194.6 277.73" style="fill:#ffa8a7"></polygon><path d="M189.69,268.54a2.56,2.56,0,1,1,3-2A2.57,2.57,0,0,1,189.69,268.54Zm.86-4.57a2.09,2.09,0,1,0,1.67,2.44A2.1,2.1,0,0,0,190.55,264Z" style="fill:#263238"></path><path d="M189.35,266.83s-2.26,2.57-2,2.9a4.83,4.83,0,0,0,1.37.8Z" style="fill:#f28f8f"></path><path d="M211.22,262.76c.39-3.57-2.65-5.51-3.59-6a12.1,12.1,0,0,0-4.76-1.45,23.28,23.28,0,0,1-4.7-.54,24.44,24.44,0,0,0-3.54-1.07,4.38,4.38,0,0,0-3.51.77,3.75,3.75,0,0,0-1.2,2.35,6.34,6.34,0,0,0,.3,2.66,3.48,3.48,0,0,0-1.47,3.84c.46,2,2.12,3.33,3.42,4.75,1,1.12,2,2.29,2.89,3.5a20,20,0,0,1,1.28,1.78.83.83,0,0,0,.07.13,2.66,2.66,0,0,1-1.2-.25s-.25,3.67,2.58,5.43c0,0,4,1.38,7,.16.8-1.2,2.59-2.33,4.41-4.62C212.84,269.61,213.37,266,211.22,262.76Z" style="fill:#263238"></path><path d="M198.06,272.7a2.28,2.28,0,0,1-1.65.74,2.52,2.52,0,0,1-1.2-.25,9.25,9.25,0,0,0,1.88,4.9,6.66,6.66,0,0,1-1.86.5c-1.79.3-5.07-.34-5.63-1-.84-1-2.09-3.59-.36-10.33A14.11,14.11,0,0,1,192,261.4a3,3,0,0,0,1.41,2.46,2.92,2.92,0,0,0-.77,2.32,5.77,5.77,0,0,0,1.37,2.65.32.32,0,0,0,.14.12,1,1,0,0,0,.62,0c.72-.81,1.69-1.74,3.26-1C199.86,268.82,199.47,271.12,198.06,272.7Z" style="fill:#ffa8a7"></path><rect x="191.34" y="262.82" width="0.41" height="7.69" transform="translate(-121.74 364.9) rotate(-71.72)" style="fill:#263238"></rect><path d="M189.76,277.71a8.26,8.26,0,0,0,5,1l-.13-1.1a7.16,7.16,0,0,1-2.44.37A8.1,8.1,0,0,1,189.76,277.71Z" style="fill:#f28f8f"></path><path d="M193.59,271.23a1.6,1.6,0,0,1-.71-2.16,1.64,1.64,0,0,1,2.2-.69Z" style="fill:#263238"></path><path d="M209.52,282.21c3.85-.27,6.54,1.21,9,6.51,2.32,5,5.59,12.28,6.81,15.93.6,1.78,1.66,3.38-1.62,6.61a53.24,53.24,0,0,1-10.11,7.55l-3.53-7.14,4.54-5.46-1.82-4.47Z" style="fill:#e6e6e6"></path><path d="M214.61,306.21a9.27,9.27,0,0,0,3.79,2.86c-1.47.39-4-1.05-4.52-2Z" style="fill:#e0e0e0"></path><path d="M214.68,287.89c-.43-2.82-2.46-5.86-6.38-5.81a125.32,125.32,0,0,0-17.63,2.35s-4.4,2.36-7,11.29c-.72,2.53-.55,5.23,2.49,7.83-.2,2.59.27,4.87-.17,7.35a106.33,106.33,0,0,0-1.6,12.18s6.38,3.52,17.23,3c6.69-.33,13.21-3.71,14.52-4.85a68.9,68.9,0,0,0-4.1-11.46C213.56,300.86,216.08,297.11,214.68,287.89Z" style="fill:#fafafa"></path><path d="M208.4,282.78c3.54,0,5.22,2.81,5.59,5.22.95,6.28,0,9.95-1.09,14.61-.49,2-1.05,4.3-1.51,7l0,.21.08.19a75.26,75.26,0,0,1,4,10.91,30.49,30.49,0,0,1-13.77,4.42c-.73,0-1.46.06-2.18.06a34.6,34.6,0,0,1-14.29-2.77A114.64,114.64,0,0,1,186.71,311a19.83,19.83,0,0,0,.17-4.32,29.24,29.24,0,0,1,0-3.1l0-.36-.27-.23c-2.4-2-3.1-4.24-2.28-7.11,2.25-7.82,6-10.45,6.55-10.82a127.05,127.05,0,0,1,17.38-2.31h.09m0-.7h-.1a126,126,0,0,0-17.63,2.34s-4.4,2.37-7,11.3c-.72,2.53-.55,5.23,2.49,7.83-.2,2.59.27,4.87-.17,7.35a106.33,106.33,0,0,0-1.6,12.18s5.52,3,15,3c.71,0,1.45,0,2.21-.05,6.69-.33,13.21-3.71,14.52-4.85a68.9,68.9,0,0,0-4.1-11.46c1.48-8.9,4-12.65,2.6-21.87-.43-2.79-2.42-5.81-6.28-5.81Z" style="fill:#e0e0e0"></path><g id="freepik--arm--inject-265"><path d="M170.53,297.79a48.24,48.24,0,0,1-4.06-3.69,3.57,3.57,0,0,1-.49-2c0-1.89-1-3.29-1.56-5.05-.14-.44-.36-1.23-.86-1.14a1.06,1.06,0,0,0-.6.31,1.42,1.42,0,0,0-.31.61,3.29,3.29,0,0,0,.07,1.62c.06.21.52,1.25.27,1.39a.27.27,0,0,1-.28-.06,9.64,9.64,0,0,1-1.24-1.06c-.38-.34-.79-.65-1.15-1a18.23,18.23,0,0,1-2.32-2.81c-.64-.8-1.12-.93-1.59-.67s.11,1.39.11,1.39a5.12,5.12,0,0,0-1.25-1.34c-.67-.31-1.41-.18-1.36.38a4.8,4.8,0,0,0,.17.67,1.33,1.33,0,0,0-.37,1.93s-.81.14-.12,1.89a17.77,17.77,0,0,0,6,7.84,17.51,17.51,0,0,1,3.17,3c2.54,2.92,5.07,6,7.73,8.9Z" style="fill:#ffa8a7"></path><path d="M156.55,285.64a11.5,11.5,0,0,0,3,4.32C158.48,288.56,157.48,287.14,156.55,285.64Zm-2.47-.35a14.88,14.88,0,0,0,4.3,6.48A27.47,27.47,0,0,1,154.08,285.29Zm2.72,7a22.83,22.83,0,0,1-3.09-5.1A10.49,10.49,0,0,0,156.8,292.32Z" style="fill:#f28f8f"></path><path d="M190.81,284.46c-3.36.55-5.73,3.51-6.68,4.83-3.08,4.25-8.54,11.27-8.54,11.27l-6.42-4.16s-1.09.17-2.49,2.16a8.77,8.77,0,0,0-1.21,4.95s4.8,5.3,5.76,6.25c4.38,4.35,6.77,2.93,8.12,1.83,4.36-3.55,10.4-11.27,11.57-12.48C193.18,296.77,194,288.27,190.81,284.46Z" style="fill:#e6e6e6"></path></g><path d="M194,283.88l1-1.37a18.62,18.62,0,0,1,7-2c3.31-.05,3.76.31,3.76.31l1,1.38a15.24,15.24,0,0,1-5.43,1.34A58.8,58.8,0,0,1,194,283.88Z" style="fill:#e6e6e6"></path></g><g id="freepik--briefcase--inject-265"><path d="M174,400h.05a.67.67,0,0,0,.63-.73l-.65-8.51c-.37-4.94-3.13-10.63-6.27-12.94a4.21,4.21,0,0,0-4.33-.79c-1.5.7-2.47,2.51-2.64,5l-.55,7.63a.69.69,0,0,0,.64.73.68.68,0,0,0,.73-.63l.54-7.63c.14-2,.82-3.36,1.86-3.84a3,3,0,0,1,2.94.65c2.81,2.07,5.37,7.43,5.72,11.95l.65,8.5A.68.68,0,0,0,174,400Z" style="fill:#37474f"></path><path d="M148.05,410.16l1.54-27.8a2.1,2.1,0,0,1,.94-1.54l.75-.43a.62.62,0,0,1,.66-.05h0L182.57,398l-3.69,30.39-30.61-17.67h0A.61.61,0,0,1,148.05,410.16Z" style="fill:#37474f"></path><path d="M183.26,426.15l-3.78,2.19c-.49.28-.87.05-.84-.51L180.18,400a2.13,2.13,0,0,1,.95-1.54l.75-.43a.58.58,0,0,1,.94.51l1.28,26.05A1.83,1.83,0,0,1,183.26,426.15Z" style="fill:#263238"></path><path d="M170.25,421a.34.34,0,0,0,.34-.32l.66-11.24a.34.34,0,0,0-.68,0l-.66,11.24a.33.33,0,0,0,.32.36Z" style="fill:#1F509A"></path><path d="M156.34,413.15a.34.34,0,0,0,.34-.32l.66-11.24a.34.34,0,0,0-.32-.36.34.34,0,0,0-.36.32L156,412.79a.34.34,0,0,0,.32.36Z" style="fill:#1F509A"></path><path d="M176.71,414.91a1.82,1.82,0,0,0,2.72-1.47l.75-13.42a2.13,2.13,0,0,1,.95-1.54l.75-.43a.69.69,0,0,1,.61-.08l-30.55-17.64h0a.6.6,0,0,0-.65.05l-.76.43a2.13,2.13,0,0,0-.94,1.54l-.75,13.29a5,5,0,0,0,2.5,4.62Z" style="fill:#455a64"></path><polygon points="165.66 407.42 162.03 405.32 161.87 407.33 165.51 409.43 165.66 407.42" style="fill:#1F509A"></polygon></g></g></g></svg>
