<svg xmlns="http://www.w3.org/2000/svg" viewBox="0 0 500 500">
    <g id="freepik--Floor--inject-61">
        <ellipse id="freepik--floor--inject-61" cx="253.87" cy="353.84" rx="233.73" ry="131.96"
                 style="fill:#f5f5f5"></ellipse>
    </g>
    <g id="freepik--Shadows--inject-61">
        <path id="freepik--Shadow--inject-61"
              d="M79.06,441.51l-7.17-4.14c-2.26-1.31-2.26-3.42,0-4.73L323.52,287.35a9.09,9.09,0,0,1,8.19,0l7.22,4.14c2.26,1.3,2.26,3.41,0,4.71L87.25,441.51A9.09,9.09,0,0,1,79.06,441.51Z"
              style="fill:#e6e6e6"></path>
        <ellipse id="freepik--shadow--inject-61" cx="368.76" cy="374.7" rx="73.9" ry="42.67"
                 style="fill:#e0e0e0"></ellipse>
    </g>
    <g id="freepik--Clouds--inject-61">
        <g id="freepik--clouds--inject-61">
            <path d="M222.59,58.83l3.13-1.9a6.48,6.48,0,0,1,0-.65V54.73a9.56,9.56,0,0,1,4.33-7.5,3.35,3.35,0,0,1,2.58-.5A14.47,14.47,0,0,1,239,36.45c3.58-2.06,6.48-.39,6.48,3.74v2.33a11.25,11.25,0,0,1-.55,3.32l4.45-2.57c1.33-.77,2.4-.15,2.4,1.39a5.31,5.31,0,0,1-2.4,4.16l-26.8,15.56c-1.33.77-2.41.14-2.41-1.39A5.32,5.32,0,0,1,222.59,58.83Z"
                  style="fill:#ebebeb"></path>
            <path d="M203.38,40.41l-3.13,1.2v-6.9c0-5.47-4.37-6.78-9.1-4.05h0c-4.74,2.74-8.58,9.39-8.58,14.86v1a4.62,4.62,0,0,0-4,.62h0a13.63,13.63,0,0,0-6.17,10.69v.45l-4.37,2.53a9,9,0,0,0-4.07,7c0,2.59,1.82,3.64,4.07,2.34L203.38,49.8a9,9,0,0,0,4.07-7C207.45,40.16,205.63,39.11,203.38,40.41Z"
                  style="fill:#ebebeb"></path>
        </g>
    </g>
    <g id="freepik--Arrows--inject-61">
        <g id="freepik--down-arrows--inject-61">
            <polygon points="82.53 110.24 127 84.57 104.77 125.41 82.53 110.24"
                     style="fill:#1F509A;opacity:0.5"></polygon>
            <polygon points="82.53 91.57 127 65.9 104.77 106.74 82.53 91.57"
                     style="fill:#1F509A;opacity:0.30000000000000004"></polygon>
            <polygon points="82.53 72.9 127 47.23 104.77 88.07 82.53 72.9" style="fill:#1F509A;opacity:0.1"></polygon>
        </g>
    </g>
    <g id="freepik--Window--inject-61">
        <g id="freepik--window--inject-61">
            <g id="freepik--window--inject-61">
                <path d="M97,427a9,9,0,0,1-4.17,1.27,10.58,10.58,0,0,1-6.11-1.07,11.34,11.34,0,0,1-5-9l0-205.65,10,5.77V424c0,2.41,1.21,3.8,3,3.8A5.2,5.2,0,0,0,97,427Z"
                      style="fill:#e0e0e0"></path>
                <path d="M334,284.05a11.73,11.73,0,0,1-5.31,9.21L97,427c-2.92,1.7-5.3.32-5.3-3.07V192.17l14.63-8.44c2.92-1.7,147.27-85,150.19-86.72L334,52.24V284.05Z"
                      style="fill:#fafafa"></path>
                <path d="M331.72,56.17V284.05a9.53,9.53,0,0,1-4.17,7.24L95.83,425.08a2.61,2.61,0,0,1-1.23.42c-.58,0-.67-1-.67-1.53V193.48l13.5-7.79,76-43.91L257.62,99l74.1-42.8M334,52.24,256.48,97c-2.92,1.69-147.27,85-150.19,86.72l-14.63,8.44V424c0,2.41,1.2,3.8,2.94,3.8A4.78,4.78,0,0,0,97,427L328.68,293.26a11.73,11.73,0,0,0,5.31-9.21V52.24Z"
                      style="fill:#ebebeb"></path>
                <path d="M308.3,165.53h0m-1.93,1.12V272.41a.85.85,0,0,1-.18.34L130.08,374.43V268.66a.94.94,0,0,1,.18-.33L306.37,166.65m1.43-3.11a1,1,0,0,0-.55.17L129.2,266.5a2.72,2.72,0,0,0-1.23,2.13v108c0,.55.27.88.68.88a1.12,1.12,0,0,0,.54-.17l178.05-102.8a2.7,2.7,0,0,0,1.23-2.12v-108c0-.56-.28-.88-.68-.88Z"
                      style="fill:#ebebeb"></path>
                <path d="M86.67,208.52a11.37,11.37,0,0,1-5-9v-25A11.76,11.76,0,0,1,87,165.3L318.71,31.51a11.41,11.41,0,0,1,10.3-.19,11.38,11.38,0,0,1,5,9v25a11.69,11.69,0,0,1-5.31,9.2L97,208.33A11.39,11.39,0,0,1,86.67,208.52Z"
                      style="fill:#263238"></path>
                <path d="M333.94,39.47c-.37-2.75-2.61-3.75-5.26-2.21L97,171.05a11.26,11.26,0,0,0-3.75,4l-10-5.77a11,11,0,0,1,3.76-4L318.72,31.52a11.34,11.34,0,0,1,10.28-.2A11.4,11.4,0,0,1,333.94,39.47Z"
                      style="fill:#455a64"></path>
                <path d="M334,40.33V52.24L256.48,97c-2.92,1.69-147.27,85-150.19,86.72l-14.63,8.44V180.26a11.77,11.77,0,0,1,5.3-9.21L328.68,37.26C331.6,35.57,334,36.94,334,40.33Z"
                      style="fill:#37474f"></path>
                <path d="M325.09,45c1.72-1,3.12-.19,3.12,1.8a6.9,6.9,0,0,1-3.12,5.39c-1.71,1-3.11.18-3.11-1.8A6.9,6.9,0,0,1,325.09,45Z"
                      style="fill:#fff"></path>
                <path d="M313.89,51.44c1.72-1,3.11-.19,3.11,1.8a6.86,6.86,0,0,1-3.11,5.38c-1.72,1-3.11.19-3.11-1.79A6.86,6.86,0,0,1,313.89,51.44Z"
                      style="fill:#fff"></path>
                <path d="M302.69,57.9c1.72-1,3.11-.19,3.11,1.79a6.86,6.86,0,0,1-3.11,5.39c-1.72,1-3.11.19-3.11-1.79A6.86,6.86,0,0,1,302.69,57.9Z"
                      style="fill:#fff"></path>
                <path d="M100.67,187c1.48-.86,2-2.16,2.69-4.66l1.63-5.64c.59-2.26,1.21-3.81,2.7-4.66l64.85-37.45c1.49-.86,2.66-1,3.79.92l2,3.63c.85,1.46,1.27,2.32,2.75,1.46l50.36-29.06L334,52.24v26.2L91.66,218.36V192.17l9-5.22"
                      style="fill:#e0e0e0"></path>
                <polygon points="91.66 192.17 91.66 218.35 81.67 212.59 81.67 186.43 91.66 192.17"
                         style="fill:#e0e0e0"></polygon>
                <polygon points="91.66 192.17 91.66 218.35 81.67 212.59 81.67 186.43 91.66 192.17"
                         style="opacity:0.15"></polygon>
                <path d="M105.13,197.36l-4.66,2.69,1.77-3.42a.83.83,0,0,0,0-.83c-.14-.17-.37-.05-.53.25l-2.53,4.87h0a1.34,1.34,0,0,0-.07.18.14.14,0,0,1,0,.06,1.15,1.15,0,0,0,0,.26.66.66,0,0,0,0,.21l0,0a.41.41,0,0,0,.07.11h0l2.53,1.94a.21.21,0,0,0,.25,0,.78.78,0,0,0,.28-.36c.14-.32.12-.67,0-.79l-1.77-1.37,4.66-2.69a1,1,0,0,0,.38-.8C105.51,197.4,105.34,197.24,105.13,197.36Z"
                      style="opacity:0.30000000000000004"></path>
                <path d="M109,195.11l4.66-2.69-1.77-1.37c-.16-.12-.18-.48,0-.8s.37-.48.53-.36l2.53,2h0a.26.26,0,0,1,.07.1s0,0,0,0a.66.66,0,0,1,0,.21,1.07,1.07,0,0,1,0,.25.14.14,0,0,0,0,.06,1.34,1.34,0,0,1-.07.18v0l-2.53,4.87a.7.7,0,0,1-.25.28.2.2,0,0,1-.28,0,.85.85,0,0,1,0-.84l1.77-3.42-4.66,2.7c-.21.12-.38-.05-.38-.37A1,1,0,0,1,109,195.11Z"
                      style="opacity:0.30000000000000004"></path>
                <path d="M123.93,181.67c0-.28-.27-.24-.4.06l-.63,1.57c-1.09-.12-2.41.94-3.31,2.83-1.15,2.45-1.15,5.34,0,6.45a1.66,1.66,0,0,0,2.1.13,5.65,5.65,0,0,0,2.09-2.55.77.77,0,0,0,0-.81c-.14-.15-.38,0-.53.3-.86,1.83-2.26,2.64-3.13,1.81s-.86-3,0-4.82c.62-1.3,1.5-2.07,2.27-2.12l-.48,1.18c-.12.31,0,.59.19.46l1.9-1.24a.61.61,0,0,0,.21-.52Z"
                      style="opacity:0.30000000000000004"></path>
                <path d="M171.59,142.9l1.87-4a1.2,1.2,0,0,0,0-1.23c-.22-.22-.58,0-.8.46l-1.87,4-1.87-1.8c-.22-.21-.58,0-.8.46a1.2,1.2,0,0,0,0,1.23l1.87,1.8-1.87,4a1.2,1.2,0,0,0,0,1.23.31.31,0,0,0,.4,0,1.2,1.2,0,0,0,.4-.49l1.87-4,1.87,1.8a.31.31,0,0,0,.4,0,1.4,1.4,0,0,0,.4-1.72Z"
                      style="opacity:0.30000000000000004"></path>
                <path d="M134.26,183.47V178.3a5.66,5.66,0,0,1,2.56-4.43L312,72.48c1.41-.82,2.55-.16,2.55,1.47v5.18A5.63,5.63,0,0,1,312,83.55L136.82,185C135.41,185.76,134.26,185.1,134.26,183.47Z"
                      style="fill:#fafafa"></path>
                <path d="M308.56,84a.79.79,0,0,1-.23,0,.7.7,0,0,1-.39-.78l.26-2.1-1-.71a.67.67,0,0,1-.27-.57,1.13,1.13,0,0,1,.42-.89l1.5-1.16a.2.2,0,0,0,.07-.12l.67-2.2a.93.93,0,0,1,.76-.71A.61.61,0,0,1,311,75l.56,1.2,1.27-.49a.59.59,0,0,1,.67.16.91.91,0,0,1,0,1l-1.09,2a.28.28,0,0,0,0,.13l.25,1.84a1.15,1.15,0,0,1-.32.92.67.67,0,0,1-.59.23l-1.23-.15-1.32,1.69A.77.77,0,0,1,308.56,84Zm-.73-4.27,1,.71a.73.73,0,0,1,.26.7l-.17,1.4.89-1.13a.74.74,0,0,1,.67-.32l1.23.15a.3.3,0,0,0,.05-.14l-.26-1.84a1.15,1.15,0,0,1,.13-.67l.95-1.78-1,.38a.61.61,0,0,1-.77-.31l-.45-1-.59,2a1.18,1.18,0,0,1-.37.56l-1.51,1.16A.42.42,0,0,0,307.83,79.68Z"
                      style="fill:#e0e0e0"></path>
                <g style="opacity:0.2">
                    <path d="M319.46,70.47A.84.84,0,0,1,319,68.9l6.84-4a.84.84,0,1,1,.84,1.46l-6.84,4A.78.78,0,0,1,319.46,70.47Z"></path>
                    <path d="M319.46,74.42a.84.84,0,0,1-.42-1.57l6.84-3.95a.84.84,0,1,1,.84,1.46l-6.84,4A.78.78,0,0,1,319.46,74.42Z"></path>
                    <path d="M319.46,78.38A.85.85,0,0,1,319,76.8l6.84-4a.84.84,0,0,1,1.15.31.84.84,0,0,1-.31,1.15l-6.84,4A.79.79,0,0,1,319.46,78.38Z"></path>
                </g>
            </g>
            <path d="M258.2,141.16l50.08-28.91c1.48-.86,2.68-.16,2.68,1.55v11.26a6,6,0,0,1-2.69,4.65L258.2,158.62c-1.48.86-2.68.16-2.68-1.55V145.81A6,6,0,0,1,258.2,141.16Z"
                  style="fill:#1F509A"></path>
            <path d="M258.2,141.16l50.08-28.91c1.48-.86,2.68-.16,2.68,1.55v11.26a6,6,0,0,1-2.69,4.65L258.2,158.62c-1.48.86-2.68.16-2.68-1.55V145.81A6,6,0,0,1,258.2,141.16Z"
                  style="fill:#fff;opacity:0.30000000000000004"></path>
            <path d="M197.71,176l50.08-28.91c1.48-.85,2.68-.16,2.68,1.55v11.26a5.94,5.94,0,0,1-2.69,4.65L197.71,193.5c-1.48.85-2.68.16-2.68-1.56V180.69A6,6,0,0,1,197.71,176Z"
                  style="fill:#1F509A"></path>
            <path d="M197.71,176l50.08-28.91c1.48-.85,2.68-.16,2.68,1.55v11.26a5.94,5.94,0,0,1-2.69,4.65L197.71,193.5c-1.48.85-2.68.16-2.68-1.56V180.69A6,6,0,0,1,197.71,176Z"
                  style="fill:#fff;opacity:0.30000000000000004"></path>
        </g>
        <g id="freepik--menu-button--inject-61">
            <path d="M190,189.49a1.88,1.88,0,0,0-.79-1.74l-5-2.92a1.91,1.91,0,0,0-1.9.19l-65.18,37.62a6,6,0,0,0-2.69,4.66v11.25a1.89,1.89,0,0,0,.78,1.73c.48.29,4.57,2.65,5.07,2.93a1.89,1.89,0,0,0,1.89-.19l65.19-37.61a5.91,5.91,0,0,0,2.69-4.65Z"
                  style="fill:#1F509A"></path>
            <path d="M190,189.49a1.88,1.88,0,0,0-.79-1.74l-5-2.92a1.91,1.91,0,0,0-1.9.19l-65.18,37.62a6,6,0,0,0-2.69,4.66v11.25a1.89,1.89,0,0,0,.78,1.73c.48.29,4.57,2.65,5.07,2.93a1.89,1.89,0,0,0,1.89-.19l65.19-37.61a5.91,5.91,0,0,0,2.69-4.65Z"
                  style="opacity:0.15"></path>
            <path d="M122.1,225.56l65.17-37.62a1.64,1.64,0,0,1,2.69,1.55l0,11.27a5.93,5.93,0,0,1-2.68,4.65L122.1,243a1.64,1.64,0,0,1-2.69-1.55V230.21A5.94,5.94,0,0,1,122.1,225.56Z"
                  style="fill:#1F509A"></path>
            <path d="M189.18,187.75a1.91,1.91,0,0,0-1.9.19l-65.17,37.61a5.69,5.69,0,0,0-1.91,2l-5-2.91a5.5,5.5,0,0,1,1.9-2L182.24,185a1.91,1.91,0,0,1,1.9-.19Z"
                  style="fill:#1F509A"></path>
            <path d="M189.18,187.75a1.91,1.91,0,0,0-1.9.19l-65.17,37.61a5.69,5.69,0,0,0-1.91,2l-5-2.91a5.5,5.5,0,0,1,1.9-2L182.24,185a1.91,1.91,0,0,1,1.9-.19Z"
                  style="fill:#fff;opacity:0.30000000000000004"></path>
            <path d="M134.44,227.05l1.6-5.22.11-.27a.65.65,0,0,1,.25-.29l.58-.33a.12.12,0,0,1,.16,0,.31.31,0,0,1,.07.21v8.4a.77.77,0,0,1-.07.29.48.48,0,0,1-.16.2l-.69.39a.12.12,0,0,1-.16,0,.29.29,0,0,1-.06-.21v-5.08L135,228.7a2.93,2.93,0,0,1-.12.28.48.48,0,0,1-.2.22l-.43.26a.18.18,0,0,1-.2,0,.79.79,0,0,1-.12-.15L132.8,227v5.08a.72.72,0,0,1-.06.29.48.48,0,0,1-.16.2l-.69.39a.12.12,0,0,1-.16,0,.29.29,0,0,1-.07-.21v-8.4a.77.77,0,0,1,.07-.29.45.45,0,0,1,.16-.19l.58-.33c.11-.07.19-.07.25,0l.11.15Z"
                  style="fill:#fafafa"></path>
            <path d="M138.23,225.94a7.91,7.91,0,0,1,.14-1.45,7,7,0,0,1,.42-1.36,5.38,5.38,0,0,1,.65-1.13,3.1,3.1,0,0,1,.86-.77,1.4,1.4,0,0,1,.86-.22,1,1,0,0,1,.65.33,2,2,0,0,1,.42.82,4.23,4.23,0,0,1,.15,1.18v.58a.62.62,0,0,1-.07.29.42.42,0,0,1-.16.2L139.33,226a1.09,1.09,0,0,0,.08.48.55.55,0,0,0,.21.26.49.49,0,0,0,.32.05,1.12,1.12,0,0,0,.36-.13,2,2,0,0,0,.44-.34A2.47,2.47,0,0,0,141,226a2.33,2.33,0,0,1,.15-.23.53.53,0,0,1,.16-.13l.68-.39a.13.13,0,0,1,.16,0,.22.22,0,0,1,.06.21,1.58,1.58,0,0,1-.13.54,4.4,4.4,0,0,1-.36.78,5.54,5.54,0,0,1-.61.81,3.39,3.39,0,0,1-.83.68,1.53,1.53,0,0,1-.86.24,1,1,0,0,1-.65-.34,2.19,2.19,0,0,1-.42-.88A5.74,5.74,0,0,1,138.23,225.94Zm2.07-3.15a1.82,1.82,0,0,0-.42.36,2.66,2.66,0,0,0-.29.45,2.3,2.3,0,0,0-.18.5,2.86,2.86,0,0,0-.08.45l1.91-1.1a1.61,1.61,0,0,0-.07-.37.69.69,0,0,0-.15-.31.43.43,0,0,0-.28-.12A.84.84,0,0,0,140.3,222.79Z"
                  style="fill:#fafafa"></path>
            <path d="M147.42,223.67a.58.58,0,0,1-.07.28.37.37,0,0,1-.16.2l-.64.37a.12.12,0,0,1-.16,0,.31.31,0,0,1-.07-.21V221a2,2,0,0,0-.23-1.12c-.16-.22-.4-.23-.73,0a1.76,1.76,0,0,0-.7.88,3.46,3.46,0,0,0-.26,1.4v3.3a.77.77,0,0,1-.07.29.56.56,0,0,1-.16.2l-.64.37c-.07,0-.12,0-.16,0a.24.24,0,0,1-.07-.2V220a.58.58,0,0,1,.07-.28.37.37,0,0,1,.16-.2l.64-.37a.12.12,0,0,1,.16,0,.31.31,0,0,1,.07.21v.3a4.88,4.88,0,0,1,.51-.86,2.29,2.29,0,0,1,.7-.62,1.39,1.39,0,0,1,.87-.25.76.76,0,0,1,.55.34,1.92,1.92,0,0,1,.3.79,6.43,6.43,0,0,1,.09,1.12Z"
                  style="fill:#fafafa"></path>
            <path d="M148.5,217a.77.77,0,0,1,.07-.29.45.45,0,0,1,.16-.19l.64-.37c.07,0,.12,0,.16,0a.24.24,0,0,1,.07.2v3.31a2.12,2.12,0,0,0,.22,1.12c.14.23.38.25.7.06a1.64,1.64,0,0,0,.69-.86,3.91,3.91,0,0,0,.23-1.38v-3.31a.72.72,0,0,1,.07-.28.43.43,0,0,1,.16-.2l.64-.37a.13.13,0,0,1,.17,0,.29.29,0,0,1,.06.21v6.06a.79.79,0,0,1-.06.29.4.4,0,0,1-.17.19l-.64.37a.11.11,0,0,1-.16,0,.29.29,0,0,1-.07-.21V221a5.3,5.3,0,0,1-.48.82,2.1,2.1,0,0,1-.69.64,1.4,1.4,0,0,1-.85.25.81.81,0,0,1-.55-.35,2,2,0,0,1-.28-.81,6.23,6.23,0,0,1-.09-1.11Z"
                  style="fill:#fafafa"></path>
            <polygon
                    points="175.94 206.17 172.22 203.36 172.89 202.09 175.63 204.16 178.37 198.93 179.35 199.67 175.94 206.17"
                    style="fill:#fafafa"></polygon>
        </g>
    </g>
    <g id="freepik--dropdown-menu-2--inject-61">
        <g id="freepik--dropdown-menu--inject-61">
            <path d="M253.16,234.48a1.88,1.88,0,0,0-.79-1.74l-5-2.9a1.88,1.88,0,0,0-1.9.18l-42.69,24.64-2.68,1.55v84.21a1.91,1.91,0,0,0,.77,1.73l5.07,2.92a1.87,1.87,0,0,0,1.89-.19l42.7-24.63a5.93,5.93,0,0,0,2.68-4.65Z"
                  style="fill:#e0e0e0"></path>
            <path d="M247.34,229.84a1.88,1.88,0,0,0-1.91.18l-42.68,24.63-2.68,1.56-8,4.6a1.21,1.21,0,0,0,0,2.09,53,53,0,0,0,5.34,3l7.66,1.93v-8.73l2.69-1.55,42.67-24.64a1.91,1.91,0,0,1,1.9-.19C251.89,232.46,247.83,230.11,247.34,229.84Z"
                  style="fill:#f0f0f0"></path>
            <path d="M253.15,234.48a1.64,1.64,0,0,0-2.69-1.55l-45.35,26.19-8,4.6a1.2,1.2,0,0,0,0,2.08,1.05,1.05,0,0,0,.31.12l7.66,1.93v75.48a1.63,1.63,0,0,0,2.68,1.55l42.7-24.63a5.94,5.94,0,0,0,2.69-4.65Z"
                  style="fill:#fafafa"></path>
            <path d="M251.69,233.89a1,1,0,0,1,.13.59l0,81.12a4.6,4.6,0,0,1-2,3.5l-42.69,24.62a1.34,1.34,0,0,1-.56.2,1,1,0,0,1-.13-.59V266.81l-1-.25-7.34-1.85,7.68-4.43,45.36-26.19a1.17,1.17,0,0,1,.53-.19h0m0-1.33a2.46,2.46,0,0,0-1.2.37l-45.35,26.19-8,4.6a1.2,1.2,0,0,0,0,2.08,1.05,1.05,0,0,0,.31.12l7.66,1.93v75.48a1.88,1.88,0,0,0,.79,1.74,1.34,1.34,0,0,0,.69.18,2.4,2.4,0,0,0,1.2-.37l42.7-24.63a5.94,5.94,0,0,0,2.69-4.65l0-81.12a1.88,1.88,0,0,0-.79-1.74,1.35,1.35,0,0,0-.7-.18Z"
                  style="fill:#e0e0e0"></path>
            <polygon points="205.11 310.79 205.11 312.22 253.17 284.48 253.17 283.04 205.11 310.79"
                     style="fill:#e0e0e0"></polygon>
            <polygon points="205.11 329.69 253.17 301.94 253.17 300.5 205.11 328.25 205.11 329.69"
                     style="fill:#e0e0e0"></polygon>
            <polygon points="205.11 275.87 205.11 277.3 253.16 249.56 253.16 248.12 205.11 275.87"
                     style="fill:#e0e0e0"></polygon>
            <polygon points="205.11 293.33 205.11 294.76 253.16 267.02 253.16 265.58 205.11 293.33"
                     style="fill:#e0e0e0"></polygon>
            <polygon points="206.35 294.05 251.97 267.71 251.97 283.86 206.35 310.07 206.35 294.05"
                     style="fill:#1F509A"></polygon>
            <polygon points="206.35 294.05 251.97 267.71 251.97 283.86 206.35 310.07 206.35 294.05"
                     style="fill:#fff;opacity:0.6000000000000001"></polygon>
            <path d="M215.19,294l20.16-11.64c.89-.51,1.61-.1,1.61.93v.86a3.55,3.55,0,0,1-1.61,2.79l-20.16,11.64c-.89.52-1.61.1-1.61-.93v-.86A3.58,3.58,0,0,1,215.19,294Z"
                  style="fill:#1F509A"></path>
            <path d="M215.19,276.6,235.35,265c.89-.51,1.61-.09,1.61.94v.85a3.55,3.55,0,0,1-1.61,2.79l-20.16,11.65c-.89.51-1.61.09-1.61-.93v-.86A3.55,3.55,0,0,1,215.19,276.6Z"
                  style="fill:#e0e0e0"></path>
            <path d="M215.19,259.12l20.16-11.64c.89-.52,1.61-.1,1.61.93v.86a3.58,3.58,0,0,1-1.61,2.79L215.19,263.7c-.89.51-1.61.1-1.61-.93v-.86A3.55,3.55,0,0,1,215.19,259.12Z"
                  style="fill:#e0e0e0"></path>
            <path d="M215.19,329l20.16-11.64c.89-.51,1.61-.09,1.61.93v.86a3.55,3.55,0,0,1-1.61,2.79l-20.16,11.64c-.89.52-1.61.1-1.61-.93v-.85A3.58,3.58,0,0,1,215.19,329Z"
                  style="fill:#e0e0e0"></path>
            <path d="M215.19,311.49l20.16-11.64c.89-.52,1.61-.1,1.61.93v.85a3.58,3.58,0,0,1-1.61,2.8l-20.16,11.64c-.89.51-1.61.1-1.61-.93v-.86A3.55,3.55,0,0,1,215.19,311.49Z"
                  style="fill:#e0e0e0"></path>
        </g>
    </g>
    <g id="freepik--dropdown-menu-1--inject-61">
        <g id="freepik--dropdown-menu--inject-61">
            <path d="M190,224.4a1.88,1.88,0,0,0-.79-1.74l-5-2.9a1.9,1.9,0,0,0-1.91.18l-65.18,37.61a6,6,0,0,0-2.69,4.65v81.11a1.89,1.89,0,0,0,.78,1.73c.48.29,4.57,2.65,5.07,2.93a1.92,1.92,0,0,0,1.89-.19l65.19-37.61a5.91,5.91,0,0,0,2.69-4.65Z"
                  style="fill:#e0e0e0"></path>
            <path d="M189.18,222.66a1.91,1.91,0,0,0-1.9.19l-65.17,37.61a5.61,5.61,0,0,0-1.91,2l-5-2.91a5.5,5.5,0,0,1,1.9-2l65.18-37.61a1.88,1.88,0,0,1,1.91-.18Z"
                  style="fill:#f0f0f0"></path>
            <path d="M179.9,227.11l-2.5-4.34a.9.9,0,0,0-.35-.35l-5-2.92a1,1,0,0,0-1.39.51l-2.87,8.28,5,2.93Z"
                  style="fill:#e0e0e0"></path>
            <path d="M190,224.4a1.64,1.64,0,0,0-2.69-1.55l-7.37,4.25-2.5-4.33a1,1,0,0,0-1.73.16l-2.86,8.26L122.1,260.46a6,6,0,0,0-2.69,4.66v81.1a1.89,1.89,0,0,0,.8,1.75,1.92,1.92,0,0,0,1.89-.19l65.2-37.61a5.93,5.93,0,0,0,2.68-4.65Z"
                  style="fill:#fafafa"></path>
            <path d="M188.5,223.81a1,1,0,0,1,.12.59l0,81.12a4.65,4.65,0,0,1-2,3.5l-65.2,37.6a1.12,1.12,0,0,1-.55.19s-.13-.19-.13-.59v-81.1a4.6,4.6,0,0,1,2-3.5l50.71-29.27.43-.25.16-.47,2.59-7.47,2.08,3.61.67,1.16,1.16-.67,7.37-4.26a1.23,1.23,0,0,1,.56-.19m-11.93-1.52a.93.93,0,0,0-.9.64l-2.86,8.26L122.1,260.46a6,6,0,0,0-2.69,4.66v81.1a1.89,1.89,0,0,0,.8,1.75,1.41,1.41,0,0,0,.69.17,2.52,2.52,0,0,0,1.2-.36l65.2-37.61a5.93,5.93,0,0,0,2.68-4.65l0-81.12a1.88,1.88,0,0,0-.79-1.74,1.38,1.38,0,0,0-.7-.18,2.43,2.43,0,0,0-1.2.37l-7.37,4.25-2.5-4.33a1,1,0,0,0-.83-.48Z"
                  style="fill:#e0e0e0"></path>
            <polygon points="119.41 278.77 119.41 280.21 189.98 239.47 189.98 238.03 119.41 278.77"
                     style="fill:#e0e0e0"></polygon>
            <polygon points="119.41 313.7 119.41 315.13 189.98 274.39 189.98 272.96 119.41 313.7"
                     style="fill:#e0e0e0"></polygon>
            <polygon points="119.41 332.59 189.98 291.85 189.98 290.42 119.41 331.16 119.41 332.59"
                     style="fill:#e0e0e0"></polygon>
            <polygon points="119.41 296.24 119.41 297.67 189.98 256.93 189.98 255.5 119.41 296.24"
                     style="fill:#e0e0e0"></polygon>
            <polygon points="120.67 296.95 188.76 257.63 188.74 273.67 120.67 312.98 120.67 296.95"
                     style="fill:#1F509A"></polygon>
            <polygon points="120.67 296.95 188.76 257.63 188.74 273.67 120.67 312.98 120.67 296.95"
                     style="fill:#fff;opacity:0.6000000000000001"></polygon>
            <path d="M131.11,296l32.06-18.51c.89-.51,1.61-.09,1.61.93v.86a3.55,3.55,0,0,1-1.61,2.79L131.11,300.6c-.89.52-1.62.1-1.62-.93v-.85A3.59,3.59,0,0,1,131.11,296Z"
                  style="fill:#1F509A"></path>
            <path d="M131.11,278.59l32.06-18.51c.89-.52,1.61-.1,1.61.93v.85a3.58,3.58,0,0,1-1.61,2.8l-32.06,18.51c-.89.51-1.62.09-1.62-.93v-.86A3.56,3.56,0,0,1,131.11,278.59Z"
                  style="fill:#e0e0e0"></path>
            <path d="M131.11,261.11l32.06-18.51c.89-.51,1.61-.1,1.61.93v.86a3.55,3.55,0,0,1-1.61,2.79l-32.06,18.51c-.89.51-1.62.1-1.62-.93v-.86A3.56,3.56,0,0,1,131.11,261.11Z"
                  style="fill:#e0e0e0"></path>
            <path d="M131.11,331l32.06-18.51c.89-.51,1.61-.09,1.61.93v.86a3.55,3.55,0,0,1-1.61,2.79l-32.06,18.51c-.89.52-1.62.1-1.62-.93v-.85A3.59,3.59,0,0,1,131.11,331Z"
                  style="fill:#e0e0e0"></path>
            <path d="M131.11,313.48,163.17,295c.89-.52,1.61-.1,1.61.93v.86a3.58,3.58,0,0,1-1.61,2.79l-32.06,18.51c-.89.51-1.62.1-1.62-.93v-.86A3.56,3.56,0,0,1,131.11,313.48Z"
                  style="fill:#e0e0e0"></path>
        </g>
    </g>
    <g id="freepik--Cursor--inject-61">
        <g id="freepik--Arrow--inject-61">
            <path d="M266.54,296.41l-15.05-18a1.1,1.1,0,0,0-.27-.24l-3.61-2.09c-.31-.18-.53.06-.53.65L247,313.13c0,.31.05.49.13.54l3.61,2.09c.12.06.31-.13.53-.59l2.58-5.53,1.47,5.26a.7.7,0,0,0,.29.43l3.62,2.09c.3.17.74,0,1.16-.47l2.08-2.4a3.12,3.12,0,0,0,.76-2.5l-2.84-10.16a1.82,1.82,0,0,1,1.19-1.93l4.22-1.9C266.65,297.67,267,296.93,266.54,296.41Z"
                  style="fill:#1F509A"></path>
            <path d="M266.54,296.41l-15.05-18a1.1,1.1,0,0,0-.27-.24l-3.61-2.09c-.31-.18-.53.06-.53.65L247,313.13c0,.31.05.49.13.54l3.61,2.09c.12.06.31-.13.53-.59l2.58-5.53,1.47,5.26a.7.7,0,0,0,.29.43l3.62,2.09c.3.17.74,0,1.16-.47l2.08-2.4a3.12,3.12,0,0,0,.76-2.5l-2.84-10.16a1.82,1.82,0,0,1,1.19-1.93l4.22-1.9C266.65,297.67,267,296.93,266.54,296.41Z"
                  style="fill:#37474f"></path>
            <path d="M250.61,315.22l.08-36.43c0-.76.36-.94.8-.41l15.05,18c.44.52.11,1.26-.74,1.65l-4.22,1.9a1.82,1.82,0,0,0-1.19,1.93l2.84,10.16a3.12,3.12,0,0,1-.76,2.5l-2.08,2.4c-.61.7-1.26.72-1.45,0l-2.85-10.15c-.19-.68-.64-.6-1,.18l-3.81,8.16C250.9,316,250.61,316,250.61,315.22Z"
                  style="fill:#455a64"></path>
            <path d="M259.17,317.38l-3.56-2.05a.7.7,0,0,1-.29-.43l-1.47-5.25,1.23-2.64c.37-.78.82-.86,1-.18L258.93,317A.8.8,0,0,0,259.17,317.38Z"
                  style="fill:#263238"></path>
        </g>
    </g>
    <g id="freepik--speech-bubble--inject-61">
        <g id="freepik--speech-bubble--inject-61">
            <g id="freepik--speech-bubble--inject-61">
                <path d="M388.74,189.47l3.26-6.13-2.62-7.58v-4.64l8,4.64v4.64l-3.46,6a.52.52,0,0,1-.23.21h0Z"
                      style="fill:#1F509A"></path>
                <path d="M388.74,189.47l3.26-6.13-2.62-7.58v-4.64l8,4.64v4.64l-3.46,6a.52.52,0,0,1-.23.21h0Z"
                      style="opacity:0.2"></path>
                <path d="M370.76,125.63a5.34,5.34,0,0,1,2.41-4.18l2-1.13a5.36,5.36,0,0,1,4.81,0L410,137.71a5.34,5.34,0,0,1,2.41,4.17v42.39a5.34,5.34,0,0,1-2.41,4.17l-2,1.13a5.32,5.32,0,0,1-4.82,0l-10.87-6.25-3.44,6a.52.52,0,0,1-.93-.09l-3.64-10.51-11.18-6.51a5.32,5.32,0,0,1-2.41-4.17Z"
                      style="fill:#1F509A"></path>
                <path d="M412.42,184.27a5.34,5.34,0,0,1-2.41,4.17l-2,1.13a5.41,5.41,0,0,1-4.41.19c1.14.43,2-.21,2-1.58V145.79a5,5,0,0,0-.7-2.37l6.77-3.91a4.85,4.85,0,0,1,.71,2.37Z"
                      style="opacity:0.2"></path>
                <path d="M370.84,124.94c.28-1,1.21-1.35,2.32-.71l30.07,17.4a4.74,4.74,0,0,1,1.7,1.79l6.77-3.91a4.79,4.79,0,0,0-1.69-1.79L380,120.32a5.38,5.38,0,0,0-4.82,0l-2,1.14A5.33,5.33,0,0,0,370.84,124.94Z"
                      style="fill:#fff;opacity:0.30000000000000004"></path>
            </g>
            <polygon
                    points="396.83 160.78 390.67 164.81 390.67 142.88 386.66 140.56 386.66 163.02 381.39 154.46 378.56 156.59 388.06 171.45 398.77 164.43 396.83 160.78"
                    style="fill:#fafafa"></polygon>
        </g>
    </g>
</svg>