<svg xmlns="http://www.w3.org/2000/svg" viewBox="0 0 500 500">
    <g id="freepik--Shadow--inject-61">
        <ellipse id="freepik--path--inject-61" cx="250" cy="416.24" rx="193.89" ry="11.32"
                 style="fill:#f5f5f5"></ellipse>
    </g>
    <g id="freepik--Box--inject-61">
        <path d="M126.11,338.69H254.55a0,0,0,0,1,0,0V405a6.47,6.47,0,0,1-6.47,6.47H132.58a6.47,6.47,0,0,1-6.47-6.47V338.69A0,0,0,0,1,126.11,338.69Z"
              style="fill:#1F509A"></path>
        <path d="M126.11,338.69H217l-11.18-14.31c-1.23-1.57-4.27-2.84-6.8-2.84H117.28c-2.52,0-3.58,1.27-2.35,2.84Z"
              style="fill:#1F509A"></path>
        <path d="M126.11,338.69H217l-11.18-14.31c-1.23-1.57-4.27-2.84-6.8-2.84H117.28c-2.52,0-3.58,1.27-2.35,2.84Z"
              style="opacity:0.2"></path>
        <path d="M254.55,338.69H163.67l11.18-9.33c1.23-1,4.27-1.85,6.8-1.85h81.73c2.53,0,3.58.83,2.35,1.85Z"
              style="fill:#1F509A"></path>
        <path d="M163.67,338.69h90.88a0,0,0,0,1,0,0V405a6.47,6.47,0,0,1-6.47,6.47H170.14a6.47,6.47,0,0,1-6.47-6.47V338.69A0,0,0,0,1,163.67,338.69Z"
              style="fill:#fff;opacity:0.2"></path>
        <polygon
                points="137.39 338.69 137.39 384.17 140.53 381.69 142.74 384.17 144.66 381.41 146.63 384.17 149.37 382.1 152.39 384.17 152.39 338.69 137.39 338.69"
                style="fill:#fff;opacity:0.5"></polygon>
    </g>
</svg>
