<svg xmlns="http://www.w3.org/2000/svg" xmlns:xlink="http://www.w3.org/1999/xlink" viewBox="0 0 500 500"><defs><clipPath id="freepik--clip-path--inject-76"><rect x="60.23" y="307.8" width="105.96" height="89.01" style="fill:#1F509A;stroke:#696969;stroke-linecap:round;stroke-linejoin:round"></rect></clipPath><clipPath id="freepik--clip-path-2--inject-76"><rect x="130.98" y="307.8" width="35.21" height="89.01" style="fill:#1F509A;stroke:#696969;stroke-linecap:round;stroke-linejoin:round"></rect></clipPath><clipPath id="freepik--clip-path-3--inject-76"><rect x="65.58" y="218.93" width="105.96" height="89.01" style="fill:#1F509A;stroke:#696969;stroke-linecap:round;stroke-linejoin:round"></rect></clipPath><clipPath id="freepik--clip-path-4--inject-76"><rect x="136.33" y="218.93" width="35.21" height="89.01" style="fill:#1F509A;stroke:#696969;stroke-linecap:round;stroke-linejoin:round"></rect></clipPath><clipPath id="freepik--clip-path-5--inject-76"><rect x="341.32" y="307.8" width="105.96" height="89.01" style="fill:#1F509A;stroke:#919191;stroke-linecap:round;stroke-linejoin:round"></rect></clipPath><clipPath id="freepik--clip-path-6--inject-76"><rect x="412.07" y="307.8" width="35.21" height="89.01" style="fill:#1F509A;stroke:#919191;stroke-linecap:round;stroke-linejoin:round"></rect></clipPath><clipPath id="freepik--clip-path-7--inject-76"><rect x="341.32" y="218.7" width="105.96" height="89.01" style="fill:#1F509A;stroke:#919191;stroke-linecap:round;stroke-linejoin:round"></rect></clipPath><clipPath id="freepik--clip-path-8--inject-76"><rect x="412.07" y="218.7" width="35.21" height="89.01" style="fill:#1F509A;stroke:#919191;stroke-linecap:round;stroke-linejoin:round"></rect></clipPath><clipPath id="freepik--clip-path-9--inject-76"><rect x="350.32" y="145" width="87.65" height="73.63" style="fill:#1F509A;stroke:#919191;stroke-linecap:round;stroke-linejoin:round"></rect></clipPath><clipPath id="freepik--clip-path-10--inject-76"><rect x="408.85" y="145" width="29.12" height="73.63" style="fill:#1F509A;stroke:#919191;stroke-linecap:round;stroke-linejoin:round"></rect></clipPath><clipPath id="freepik--clip-path-11--inject-76"><rect x="251.03" y="367.65" width="151.73" height="17.66" style="fill:#fff;stroke:#263238;stroke-linecap:round;stroke-linejoin:round"></rect></clipPath><clipPath id="freepik--clip-path-12--inject-76"><rect x="271.17" y="189.13" width="84.21" height="69.1" style="fill:#1F509A;stroke:#263238;stroke-linecap:round;stroke-linejoin:round"></rect></clipPath><clipPath id="freepik--clip-path-13--inject-76"><path d="M369.25,281.49c-2.7-4.28-13.87-23.26-13.87-23.26H337.56l9.17,23.26Z" style="fill:#1F509A;stroke:#263238;stroke-linecap:round;stroke-linejoin:round"></path></clipPath></defs><g id="freepik--background-simple--inject-76"><path d="M101.17,344.29s40.41,51.17,109.47,53.25,130.82-41,181.77-74.52,67.67-89.68,42.23-136-71.6-30.45-127-63S242.31,74.4,178,77.32,60.54,148.92,62.88,225.86,101.17,344.29,101.17,344.29Z" style="fill:#1F509A"></path><path d="M101.17,344.29s40.41,51.17,109.47,53.25,130.82-41,181.77-74.52,67.67-89.68,42.23-136-71.6-30.45-127-63S242.31,74.4,178,77.32,60.54,148.92,62.88,225.86,101.17,344.29,101.17,344.29Z" style="fill:#fff;opacity:0.7000000000000001"></path></g><g id="freepik--Plants--inject-76"><path d="M113.73,91.08c-.06,0,.7-3.73.77-4,.86-2.67,4.1-7.31,7.23-7.3A3.71,3.71,0,0,1,125.3,84c-.23,2.2-2.21,4.08-4,5.16C119.2,90.47,113.73,91.08,113.73,91.08Z" style="fill:#1F509A"></path><path d="M107.66,66c3,1.06,4.42,6.52,4.32,9.32,0,.24-.56,4-.61,4l-.06,0c.23.86.48,1.79.73,2.81.44,1.88.92,4,1.29,6.36a65.63,65.63,0,0,1,.84,7.64,48.28,48.28,0,0,1-.29,8.6.36.36,0,0,0,0,.1c.39-.83,1.55-3.13,1.65-3.29,1.54-2.34,5.88-6,8.91-5.13a3.7,3.7,0,0,1,2.32,5c-.8,2.06-3.2,3.35-5.21,3.92-2.27.65-7.33-.11-7.73-.18a65.43,65.43,0,0,1-1.86,8.57q-.7,2.46-1.52,4.91c.35-.71.68-1.34.73-1.42,1.54-2.35,5.89-6,8.91-5.13a3.7,3.7,0,0,1,2.32,5c-.8,2.06-3.2,3.35-5.21,3.92s-6.37,0-7.51-.15l-.63,1.88c-1,3-2.09,6-3,8.94-.33,1-.62,2.08-.91,3.12.32-.63.59-1.16.64-1.24,1.53-2.34,5.88-6,8.9-5.13a3.72,3.72,0,0,1,2.33,5c-.8,2.07-3.21,3.35-5.22,3.93s-5.94.07-7.3-.12c-.27,1.07-.53,2.14-.74,3.19-.13.73-.3,1.41-.39,2.14l-.3,2.15c-.14,1.37-.3,2.78-.4,4.12-.08.93-.14,1.82-.2,2.72.32-1,1-3.07,1-3.23a14.42,14.42,0,0,1,4.8-5.46,3.63,3.63,0,0,1,.41-.72,3.7,3.7,0,0,1,5.45-.85c2.38,2.05,1.78,7.67.69,10.25-.06.15-.95,1.72-1.52,2.71.43-.53.83-1.05,1.28-1.58.87-1.07,1.77-2.11,2.73-3.23l1.47-1.59c.48-.54,1.06-1,1.59-1.59,1.25-1.21,2.58-2.38,3.95-3.53-.93-.76-4.21-3.52-5.15-5.4s-1.61-4.51-.63-6.5a3.72,3.72,0,0,1,5.27-1.67c2.65,1.67,2.92,7.32,2.23,10,0,.17-.76,2.06-1.17,3.09.83-.68,1.65-1.36,2.51-2,2.48-1.91,5.05-3.78,7.6-5.65l2.33-1.72c-.33-.27-4.29-3.47-5.35-5.58-.93-1.87-1.61-4.51-.63-6.49a3.71,3.71,0,0,1,5.27-1.67c2.66,1.66,2.92,7.31,2.23,10-.05.2-1.08,2.92-1.37,3.6,1.7-1.27,3.39-2.55,5-3.89a64.65,64.65,0,0,0,6.2-5.77c-.15-.13-4.3-3.45-5.38-5.6-.94-1.87-1.61-4.52-.63-6.5a3.71,3.71,0,0,1,5.26-1.67c2.66,1.67,2.93,7.32,2.24,10,0,.18-.83,2.25-1.22,3.23l.15.1a48.44,48.44,0,0,0,5.09-6.84c.84-1.33,1.56-2.64,2.24-3.93-.84-.54-4.63-3.05-5.82-4.88s-2.09-4.31-1.34-6.39a3.71,3.71,0,0,1,5.05-2.24c2.83,1.37,3.71,7,3.32,9.73,0,.15-.4,1.66-.69,2.75.29-.59.61-1.19.88-1.76,1-2.13,1.85-4.15,2.55-6,.4-1,.73-1.95,1-2.83-.55-1-2.69-4.84-2.9-7s.13-4.78,1.76-6.28a3.71,3.71,0,0,1,5.51.34c1.88,2.51.09,7.88-1.53,10.16-.14.2-2.69,3-2.72,3l0-.06c-.28.85-.58,1.76-.94,2.74-.66,1.82-1.43,3.86-2.42,6a67.81,67.81,0,0,1-3.53,6.83,48.53,48.53,0,0,1-5,7l-.07.08c.78-.48,3-1.76,3.19-1.84,2.58-1.1,8.2-1.72,10.26.64a3.71,3.71,0,0,1-.82,5.46c-1.81,1.28-4.52,1-6.52.4-2.25-.72-6-4.14-6.34-4.42a65,65,0,0,1-6.28,6.12c-1.29,1.11-2.63,2.19-4,3.26.69-.4,1.31-.75,1.4-.79,2.57-1.1,8.19-1.72,10.25.64a3.7,3.7,0,0,1-.82,5.46c-1.8,1.28-4.52,1-6.51.4s-5.32-3.5-6.18-4.27c-.53.4-1,.81-1.57,1.22-2.51,1.92-5,3.83-7.45,5.79-.85.68-1.66,1.39-2.48,2.1l1.22-.68c2.57-1.1,8.19-1.73,10.25.63a3.72,3.72,0,0,1-.82,5.47c-1.8,1.28-4.52,1-6.51.39s-5-3.22-6-4.13c-.81.75-1.63,1.5-2.38,2.26-.51.53-1,1-1.5,1.57l-1.44,1.62c-.87,1.07-1.78,2.16-2.61,3.22-.58.73-1.12,1.44-1.66,2.16.83-.7,2.51-2,2.66-2.12,2.37-1.48,7.84-3,10.23-.92a3.71,3.71,0,0,1,0,5.52c-1.6,1.54-4.32,1.7-6.38,1.38-2.28-.36-6.4-3-6.91-3.38-.9,1.19-1.76,2.34-2.56,3.45-2.77,3.83-4.93,7.13-6.41,9.45l-.15.24-1.92-.93.3-.46c1.55-2.32,3.81-5.6,6.69-9.4.91-1.21,1.9-2.48,2.93-3.77a40.65,40.65,0,0,1-3-3.69c-2.21.87-6.79.9-7.39.9-.09,1.48-.17,2.93-.23,4.29-.2,4.72-.18,8.66-.13,11.42v.32l-2.11-1c0-2.74.11-6.44.39-10.82.09-1.5.22-3.11.37-4.76-.59-.15-5.36-1.37-7.16-2.81-1.63-1.31-3.35-3.42-3.29-5.64a3.71,3.71,0,0,1,4.08-3.72c3.11.4,5.72,5.42,6.23,8.17,0,.17.16,2,.22,3.1.07-.67.12-1.33.2-2,.13-1.37.31-2.73.5-4.2.11-.71.23-1.42.34-2.14s.3-1.46.45-2.2c.38-1.7.84-3.41,1.35-5.12-1.2-.12-5.45-.62-7.27-1.67s-3.84-2.87-4.11-5.07a3.71,3.71,0,0,1,3.47-4.3c3.13-.07,6.47,4.49,7.39,7.14.06.16.51,2.13.74,3.22.31-1,.61-2.05,1-3.08,1-3,2.13-5.93,3.23-8.9.34-.91.66-1.82,1-2.73-.43,0-5.5-.53-7.54-1.7-1.81-1-3.83-2.87-4.11-5.07a3.72,3.72,0,0,1,3.47-4.3c3.14-.07,6.48,4.49,7.4,7.14.07.2.71,3,.84,3.76.72-2,1.43-4,2-6a64.85,64.85,0,0,0,2-8.24c-.2,0-5.49-.5-7.58-1.7-1.82-1-3.84-2.87-4.11-5.07a3.7,3.7,0,0,1,3.47-4.29c3.13-.08,6.47,4.48,7.39,7.13.06.17.56,2.33.77,3.37h.17a47.81,47.81,0,0,0,.48-8.51c0-1.57-.15-3.06-.3-4.51-1,0-5.54,0-7.54-.87s-4.13-2.43-4.65-4.58a3.71,3.71,0,0,1,3-4.65c3.11-.43,6.93,3.75,8.14,6.27.06.14.58,1.61.93,2.69-.07-.66-.14-1.34-.23-2-.31-2.35-.75-4.48-1.15-6.37-.24-1.07-.47-2-.7-2.93-1-.5-4.92-2.56-6.26-4.22s-2.54-4.07-2-6.21A3.71,3.71,0,0,1,107.66,66Z" style="fill:#1F509A"></path><path d="M164.34,114.29c-2.45-.1-7.35-2.61-7.35-2.61s2.63-2.73,2.82-2.88c2.19-1.74,7.45-3.83,10.06-2.09a3.7,3.7,0,0,1,.65,5.48C169.12,113.9,166.43,114.38,164.34,114.29Z" style="fill:#1F509A"></path><g style="opacity:0.5"><path d="M113.73,91.08c-.06,0,.7-3.73.77-4,.86-2.67,4.1-7.31,7.23-7.3A3.71,3.71,0,0,1,125.3,84c-.23,2.2-2.21,4.08-4,5.16C119.2,90.47,113.73,91.08,113.73,91.08Z" style="fill:#fff"></path><path d="M107.66,66c3,1.06,4.42,6.52,4.32,9.32,0,.24-.56,4-.61,4l-.06,0c.23.86.48,1.79.73,2.81.44,1.88.92,4,1.29,6.36a65.63,65.63,0,0,1,.84,7.64,48.28,48.28,0,0,1-.29,8.6.36.36,0,0,0,0,.1c.39-.83,1.55-3.13,1.65-3.29,1.54-2.34,5.88-6,8.91-5.13a3.7,3.7,0,0,1,2.32,5c-.8,2.06-3.2,3.35-5.21,3.92-2.27.65-7.33-.11-7.73-.18a65.43,65.43,0,0,1-1.86,8.57q-.7,2.46-1.52,4.91c.35-.71.68-1.34.73-1.42,1.54-2.35,5.89-6,8.91-5.13a3.7,3.7,0,0,1,2.32,5c-.8,2.06-3.2,3.35-5.21,3.92s-6.37,0-7.51-.15l-.63,1.88c-1,3-2.09,6-3,8.94-.33,1-.62,2.08-.91,3.12.32-.63.59-1.16.64-1.24,1.53-2.34,5.88-6,8.9-5.13a3.72,3.72,0,0,1,2.33,5c-.8,2.07-3.21,3.35-5.22,3.93s-5.94.07-7.3-.12c-.27,1.07-.53,2.14-.74,3.19-.13.73-.3,1.41-.39,2.14l-.3,2.15c-.14,1.37-.3,2.78-.4,4.12-.08.93-.14,1.82-.2,2.72.32-1,1-3.07,1-3.23a14.42,14.42,0,0,1,4.8-5.46,3.63,3.63,0,0,1,.41-.72,3.7,3.7,0,0,1,5.45-.85c2.38,2.05,1.78,7.67.69,10.25-.06.15-.95,1.72-1.52,2.71.43-.53.83-1.05,1.28-1.58.87-1.07,1.77-2.11,2.73-3.23l1.47-1.59c.48-.54,1.06-1,1.59-1.59,1.25-1.21,2.58-2.38,3.95-3.53-.93-.76-4.21-3.52-5.15-5.4s-1.61-4.51-.63-6.5a3.72,3.72,0,0,1,5.27-1.67c2.65,1.67,2.92,7.32,2.23,10,0,.17-.76,2.06-1.17,3.09.83-.68,1.65-1.36,2.51-2,2.48-1.91,5.05-3.78,7.6-5.65l2.33-1.72c-.33-.27-4.29-3.47-5.35-5.58-.93-1.87-1.61-4.51-.63-6.49a3.71,3.71,0,0,1,5.27-1.67c2.66,1.66,2.92,7.31,2.23,10-.05.2-1.08,2.92-1.37,3.6,1.7-1.27,3.39-2.55,5-3.89a64.65,64.65,0,0,0,6.2-5.77c-.15-.13-4.3-3.45-5.38-5.6-.94-1.87-1.61-4.52-.63-6.5a3.71,3.71,0,0,1,5.26-1.67c2.66,1.67,2.93,7.32,2.24,10,0,.18-.83,2.25-1.22,3.23l.15.1a48.44,48.44,0,0,0,5.09-6.84c.84-1.33,1.56-2.64,2.24-3.93-.84-.54-4.63-3.05-5.82-4.88s-2.09-4.31-1.34-6.39a3.71,3.71,0,0,1,5.05-2.24c2.83,1.37,3.71,7,3.32,9.73,0,.15-.4,1.66-.69,2.75.29-.59.61-1.19.88-1.76,1-2.13,1.85-4.15,2.55-6,.4-1,.73-1.95,1-2.83-.55-1-2.69-4.84-2.9-7s.13-4.78,1.76-6.28a3.71,3.71,0,0,1,5.51.34c1.88,2.51.09,7.88-1.53,10.16-.14.2-2.69,3-2.72,3l0-.06c-.28.85-.58,1.76-.94,2.74-.66,1.82-1.43,3.86-2.42,6a67.81,67.81,0,0,1-3.53,6.83,48.53,48.53,0,0,1-5,7l-.07.08c.78-.48,3-1.76,3.19-1.84,2.58-1.1,8.2-1.72,10.26.64a3.71,3.71,0,0,1-.82,5.46c-1.81,1.28-4.52,1-6.52.4-2.25-.72-6-4.14-6.34-4.42a65,65,0,0,1-6.28,6.12c-1.29,1.11-2.63,2.19-4,3.26.69-.4,1.31-.75,1.4-.79,2.57-1.1,8.19-1.72,10.25.64a3.7,3.7,0,0,1-.82,5.46c-1.8,1.28-4.52,1-6.51.4s-5.32-3.5-6.18-4.27c-.53.4-1,.81-1.57,1.22-2.51,1.92-5,3.83-7.45,5.79-.85.68-1.66,1.39-2.48,2.1l1.22-.68c2.57-1.1,8.19-1.73,10.25.63a3.72,3.72,0,0,1-.82,5.47c-1.8,1.28-4.52,1-6.51.39s-5-3.22-6-4.13c-.81.75-1.63,1.5-2.38,2.26-.51.53-1,1-1.5,1.57l-1.44,1.62c-.87,1.07-1.78,2.16-2.61,3.22-.58.73-1.12,1.44-1.66,2.16.83-.7,2.51-2,2.66-2.12,2.37-1.48,7.84-3,10.23-.92a3.71,3.71,0,0,1,0,5.52c-1.6,1.54-4.32,1.7-6.38,1.38-2.28-.36-6.4-3-6.91-3.38-.9,1.19-1.76,2.34-2.56,3.45-2.77,3.83-4.93,7.13-6.41,9.45l-.15.24-1.92-.93.3-.46c1.55-2.32,3.81-5.6,6.69-9.4.91-1.21,1.9-2.48,2.93-3.77a40.65,40.65,0,0,1-3-3.69c-2.21.87-6.79.9-7.39.9-.09,1.48-.17,2.93-.23,4.29-.2,4.72-.18,8.66-.13,11.42v.32l-2.11-1c0-2.74.11-6.44.39-10.82.09-1.5.22-3.11.37-4.76-.59-.15-5.36-1.37-7.16-2.81-1.63-1.31-3.35-3.42-3.29-5.64a3.71,3.71,0,0,1,4.08-3.72c3.11.4,5.72,5.42,6.23,8.17,0,.17.16,2,.22,3.1.07-.67.12-1.33.2-2,.13-1.37.31-2.73.5-4.2.11-.71.23-1.42.34-2.14s.3-1.46.45-2.2c.38-1.7.84-3.41,1.35-5.12-1.2-.12-5.45-.62-7.27-1.67s-3.84-2.87-4.11-5.07a3.71,3.71,0,0,1,3.47-4.3c3.13-.07,6.47,4.49,7.39,7.14.06.16.51,2.13.74,3.22.31-1,.61-2.05,1-3.08,1-3,2.13-5.93,3.23-8.9.34-.91.66-1.82,1-2.73-.43,0-5.5-.53-7.54-1.7-1.81-1-3.83-2.87-4.11-5.07a3.72,3.72,0,0,1,3.47-4.3c3.14-.07,6.48,4.49,7.4,7.14.07.2.71,3,.84,3.76.72-2,1.43-4,2-6a64.85,64.85,0,0,0,2-8.24c-.2,0-5.49-.5-7.58-1.7-1.82-1-3.84-2.87-4.11-5.07a3.7,3.7,0,0,1,3.47-4.29c3.13-.08,6.47,4.48,7.39,7.13.06.17.56,2.33.77,3.37h.17a47.81,47.81,0,0,0,.48-8.51c0-1.57-.15-3.06-.3-4.51-1,0-5.54,0-7.54-.87s-4.13-2.43-4.65-4.58a3.71,3.71,0,0,1,3-4.65c3.11-.43,6.93,3.75,8.14,6.27.06.14.58,1.61.93,2.69-.07-.66-.14-1.34-.23-2-.31-2.35-.75-4.48-1.15-6.37-.24-1.07-.47-2-.7-2.93-1-.5-4.92-2.56-6.26-4.22s-2.54-4.07-2-6.21A3.71,3.71,0,0,1,107.66,66Z" style="fill:#fff"></path><path d="M164.34,114.29c-2.45-.1-7.35-2.61-7.35-2.61s2.63-2.73,2.82-2.88c2.19-1.74,7.45-3.83,10.06-2.09a3.7,3.7,0,0,1,.65,5.48C169.12,113.9,166.43,114.38,164.34,114.29Z" style="fill:#fff"></path></g><path d="M135.73,175.65s-14.87-35.84-23.19-34.28,14.27,57.14,14.27,57.14-26.16-49.35-44-49.35S89.35,203.7,112,221.88c0,0-35.68-38.44-56.49-30.13S97.08,239,97.08,239,60.81,227.59,65,236.43s15.46,10.38,15.46,10.38L90,248.89h52l8-3.11s33.3-16.63,24.38-23.38-28.54,7.79-28.54,7.79,33.89-37.4,27.35-51.42-35.68,25.45-35.68,25.45,23.79-50.39,19-59.22S135.73,175.65,135.73,175.65Z" style="fill:#1F509A"></path><path d="M135.73,175.65s-14.87-35.84-23.19-34.28,14.27,57.14,14.27,57.14-26.16-49.35-44-49.35S89.35,203.7,112,221.88c0,0-35.68-38.44-56.49-30.13S97.08,239,97.08,239,60.81,227.59,65,236.43s15.46,10.38,15.46,10.38L96,248.89h42l12-3.11s33.3-16.63,24.38-23.38-28.54,7.79-28.54,7.79,33.89-37.4,27.35-51.42-35.68,25.45-35.68,25.45,23.79-50.39,19-59.22S135.73,175.65,135.73,175.65Z" style="fill:#fff;opacity:0.4"></path><path d="M140.49,177.54c-13.08,38.65-13.08,66-13.08,66s15.46.6,31.51-11.3" style="fill:none;stroke:#263238;stroke-linecap:round;stroke-linejoin:round"></path><path d="M134,198.35a232.21,232.21,0,0,0-10.71-33.89" style="fill:none;stroke:#263238;stroke-linecap:round;stroke-linejoin:round"></path><path d="M95.3,175.75l33.29,49.36s22.6-19,30.33-29.73" style="fill:none;stroke:#263238;stroke-linecap:round;stroke-linejoin:round"></path><path d="M128,237s-35.08-16.65-49.35-26.16" style="fill:none;stroke:#263238;stroke-linecap:round;stroke-linejoin:round"></path></g><g id="freepik--Shelf--inject-76"><rect x="226.38" y="95.63" width="7.23" height="301.29" style="fill:#c2c2c2;stroke:#ababab;stroke-linecap:round;stroke-linejoin:round"></rect><rect x="96.32" y="95.63" width="7.23" height="301.29" style="fill:#c2c2c2;stroke:#ababab;stroke-linecap:round;stroke-linejoin:round"></rect><rect x="161.35" y="95.63" width="7.23" height="301.29" style="fill:#c2c2c2;stroke:#ababab;stroke-linecap:round;stroke-linejoin:round"></rect><rect x="291.4" y="95.63" width="7.23" height="301.29" style="fill:#c2c2c2;stroke:#ababab;stroke-linecap:round;stroke-linejoin:round"></rect><rect x="93.99" y="105.02" width="202.47" height="13.73" style="fill:#c2c2c2;stroke:#ababab;stroke-linecap:round;stroke-linejoin:round"></rect><rect x="166.16" y="105.02" width="130.3" height="13.73" style="fill:#a6a6a6;stroke:#ababab;stroke-linecap:round;stroke-linejoin:round"></rect><rect x="93.99" y="243.27" width="202.47" height="13.73" style="fill:#c2c2c2;stroke:#ababab;stroke-linecap:round;stroke-linejoin:round"></rect><rect x="166.16" y="243.27" width="130.3" height="13.73" style="fill:#a6a6a6;stroke:#ababab;stroke-linecap:round;stroke-linejoin:round"></rect><rect x="93.99" y="381.51" width="202.47" height="13.73" style="fill:#c2c2c2;stroke:#ababab;stroke-linecap:round;stroke-linejoin:round"></rect><rect x="166.16" y="381.51" width="130.3" height="13.73" style="fill:#a6a6a6;stroke:#ababab;stroke-linecap:round;stroke-linejoin:round"></rect></g><g id="freepik--Boxes--inject-76"><rect x="60.23" y="307.8" width="105.96" height="89.01" style="fill:#1F509A"></rect><g style="clip-path:url(#freepik--clip-path--inject-76)"><rect x="60.23" y="307.8" width="105.96" height="89.01" style="fill:#fff;stroke:#696969;stroke-linecap:round;stroke-linejoin:round;opacity:0.6000000000000001"></rect></g><rect x="60.23" y="307.8" width="105.96" height="89.01" style="fill:none;stroke:#696969;stroke-linecap:round;stroke-linejoin:round"></rect><rect x="130.98" y="307.8" width="35.21" height="89.01" style="fill:#1F509A"></rect><g style="clip-path:url(#freepik--clip-path-2--inject-76)"><rect x="130.98" y="307.8" width="35.21" height="89.01" style="fill:#fff;stroke:#696969;stroke-linecap:round;stroke-linejoin:round;opacity:0.39"></rect></g><rect x="130.98" y="307.8" width="35.21" height="89.01" style="fill:none;stroke:#696969;stroke-linecap:round;stroke-linejoin:round"></rect><line x1="148.95" y1="308.04" x2="148.95" y2="396.92" style="fill:none;stroke:#696969;stroke-linecap:round;stroke-linejoin:round"></line><rect x="65.58" y="218.93" width="105.96" height="89.01" style="fill:#1F509A"></rect><g style="clip-path:url(#freepik--clip-path-3--inject-76)"><rect x="65.58" y="218.93" width="105.96" height="89.01" style="fill:#fff;stroke:#696969;stroke-linecap:round;stroke-linejoin:round;opacity:0.6000000000000001"></rect></g><rect x="65.58" y="218.93" width="105.96" height="89.01" style="fill:none;stroke:#696969;stroke-linecap:round;stroke-linejoin:round"></rect><rect x="136.33" y="218.93" width="35.21" height="89.01" style="fill:#1F509A"></rect><g style="clip-path:url(#freepik--clip-path-4--inject-76)"><rect x="136.33" y="218.93" width="35.21" height="89.01" style="fill:#fff;stroke:#696969;stroke-linecap:round;stroke-linejoin:round;opacity:0.39"></rect></g><rect x="136.33" y="218.93" width="35.21" height="89.01" style="fill:none;stroke:#696969;stroke-linecap:round;stroke-linejoin:round"></rect><line x1="154.3" y1="219.17" x2="154.3" y2="308.05" style="fill:none;stroke:#696969;stroke-linecap:round;stroke-linejoin:round"></line><rect x="341.32" y="307.8" width="105.96" height="89.01" style="fill:#1F509A"></rect><g style="clip-path:url(#freepik--clip-path-5--inject-76)"><rect x="341.32" y="307.8" width="105.96" height="89.01" style="fill:#fff;stroke:#919191;stroke-linecap:round;stroke-linejoin:round;opacity:0.6000000000000001"></rect></g><rect x="341.32" y="307.8" width="105.96" height="89.01" style="fill:none;stroke:#919191;stroke-linecap:round;stroke-linejoin:round"></rect><rect x="412.07" y="307.8" width="35.21" height="89.01" style="fill:#1F509A"></rect><g style="clip-path:url(#freepik--clip-path-6--inject-76)"><rect x="412.07" y="307.8" width="35.21" height="89.01" style="fill:#fff;stroke:#919191;stroke-linecap:round;stroke-linejoin:round;opacity:0.39"></rect></g><rect x="412.07" y="307.8" width="35.21" height="89.01" style="fill:none;stroke:#919191;stroke-linecap:round;stroke-linejoin:round"></rect><line x1="430.04" y1="308.04" x2="430.04" y2="396.92" style="fill:none;stroke:#919191;stroke-linecap:round;stroke-linejoin:round"></line><rect x="341.32" y="218.7" width="105.96" height="89.01" style="fill:#1F509A"></rect><g style="clip-path:url(#freepik--clip-path-7--inject-76)"><rect x="341.32" y="218.7" width="105.96" height="89.01" style="fill:#fff;stroke:#919191;stroke-linecap:round;stroke-linejoin:round;opacity:0.6000000000000001"></rect></g><rect x="341.32" y="218.7" width="105.96" height="89.01" style="fill:none;stroke:#919191;stroke-linecap:round;stroke-linejoin:round"></rect><rect x="412.07" y="218.7" width="35.21" height="89.01" style="fill:#1F509A"></rect><g style="clip-path:url(#freepik--clip-path-8--inject-76)"><rect x="412.07" y="218.7" width="35.21" height="89.01" style="fill:#fff;stroke:#919191;stroke-linecap:round;stroke-linejoin:round;opacity:0.39"></rect></g><rect x="412.07" y="218.7" width="35.21" height="89.01" style="fill:none;stroke:#919191;stroke-linecap:round;stroke-linejoin:round"></rect><line x1="430.04" y1="218.94" x2="430.04" y2="307.82" style="fill:none;stroke:#919191;stroke-linecap:round;stroke-linejoin:round"></line><rect x="350.32" y="145" width="87.65" height="73.63" style="fill:#1F509A"></rect><g style="clip-path:url(#freepik--clip-path-9--inject-76)"><rect x="350.32" y="145" width="87.65" height="73.63" style="fill:#fff;stroke:#919191;stroke-linecap:round;stroke-linejoin:round;opacity:0.6000000000000001"></rect></g><rect x="350.32" y="145" width="87.65" height="73.63" style="fill:none;stroke:#919191;stroke-linecap:round;stroke-linejoin:round"></rect><rect x="408.85" y="145" width="29.12" height="73.63" style="fill:#1F509A"></rect><g style="clip-path:url(#freepik--clip-path-10--inject-76)"><rect x="408.85" y="145" width="29.12" height="73.63" style="fill:#fff;stroke:#919191;stroke-linecap:round;stroke-linejoin:round;opacity:0.39"></rect></g><rect x="408.85" y="145" width="29.12" height="73.63" style="fill:none;stroke:#919191;stroke-linecap:round;stroke-linejoin:round"></rect><line x1="423.71" y1="145.2" x2="423.71" y2="218.72" style="fill:none;stroke:#919191;stroke-linecap:round;stroke-linejoin:round"></line></g><g id="freepik--Floor--inject-76"><line x1="46.82" y1="396.92" x2="460.63" y2="396.92" style="fill:none;stroke:#263238;stroke-linecap:round;stroke-linejoin:round"></line></g></svg>
