<svg xmlns="http://www.w3.org/2000/svg" viewBox="0 0 500 500">
    <g id="freepik--Text--inject-149">
        <path d="M350,128.81V131h-5.33v7.76h6.55V141h-9v-21.8h9v2.21h-6.55v7.44Z" style="fill:#263238"></path>
        <path d="M358.3,119.16c3.42,0,4.86,1.74,4.86,5v1.78c0,2.4-.84,3.89-2.71,4.48,2,.59,2.74,2.21,2.74,4.55v3.4a5.49,5.49,0,0,0,.43,2.61h-2.46a5.7,5.7,0,0,1-.4-2.64v-3.43c0-2.46-1.15-3.24-3.18-3.24h-1.71V141h-2.43v-21.8Zm-.63,10.28c1.94,0,3.09-.63,3.09-3v-2.09c0-2-.72-3-2.52-3h-2.37v8.07Z"
              style="fill:#263238"></path>
        <path d="M370.57,119.16c3.43,0,4.86,1.74,4.86,5v1.78c0,2.4-.84,3.89-2.71,4.48,2,.59,2.74,2.21,2.74,4.55v3.4a5.37,5.37,0,0,0,.44,2.61h-2.46a5.66,5.66,0,0,1-.41-2.64v-3.43c0-2.46-1.15-3.24-3.18-3.24h-1.71V141h-2.43v-21.8ZM370,129.44c1.93,0,3.08-.63,3.08-3v-2.09c0-2-.71-3-2.52-3h-2.37v8.07Z"
              style="fill:#263238"></path>
        <path d="M377.8,124.42c0-3.33,1.65-5.48,5-5.48s5,2.15,5,5.48V135.7c0,3.3-1.65,5.48-5,5.48s-5-2.18-5-5.48Zm2.4,11.4c0,2,.84,3.15,2.58,3.15s2.59-1.15,2.59-3.15V124.3c0-2-.81-3.15-2.59-3.15s-2.58,1.18-2.58,3.15Z"
              style="fill:#263238"></path>
        <path d="M395,119.16c3.43,0,4.86,1.74,4.86,5v1.78c0,2.4-.84,3.89-2.71,4.48,2,.59,2.74,2.21,2.74,4.55v3.4a5.37,5.37,0,0,0,.44,2.61h-2.46a5.66,5.66,0,0,1-.41-2.64v-3.43c0-2.46-1.15-3.24-3.18-3.24h-1.71V141H390.1v-21.8Zm-.62,10.28c1.93,0,3.08-.63,3.08-3v-2.09c0-2-.71-3-2.52-3h-2.37v8.07Z"
              style="fill:#263238"></path>
        <path d="M329.38,264.88v2.21h-5v9.44h-2.43v-21.8h8.66v2.21h-6.23v7.94Z" style="fill:#263238"></path>
        <path d="M332.33,260c0-3.33,1.66-5.48,5-5.48s5,2.15,5,5.48v11.28c0,3.3-1.65,5.48-5,5.48s-5-2.18-5-5.48Zm2.4,11.4c0,2,.84,3.15,2.59,3.15s2.58-1.15,2.58-3.15V259.87c0-2-.81-3.15-2.58-3.15s-2.59,1.18-2.59,3.15Z"
              style="fill:#263238"></path>
        <path d="M349.5,254.73c3.42,0,4.86,1.74,4.86,5v1.78c0,2.4-.84,3.89-2.71,4.48,2,.59,2.74,2.21,2.74,4.55v3.4a5.37,5.37,0,0,0,.44,2.61h-2.46a5.53,5.53,0,0,1-.41-2.64v-3.43c0-2.46-1.15-3.24-3.18-3.24h-1.71v9.31h-2.43v-21.8ZM348.88,265c1.93,0,3.08-.63,3.08-3v-2.09c0-2-.72-3-2.52-3h-2.37V265Z"
              style="fill:#263238"></path>
        <path d="M361.8,254.73c3.4,0,4.74,1.62,4.74,4.83v1c0,2.31-.66,3.74-2.56,4.33,2.12.6,2.93,2.28,2.93,4.68v1.83c0,3.28-1.59,5.11-5,5.11h-5v-21.8Zm-.59,9.25c1.93,0,2.93-.62,2.93-2.9V259.8c0-1.93-.66-2.86-2.4-2.86h-2.4v7Zm.72,10.34c1.77,0,2.58-.93,2.58-3v-1.93c0-2.43-1-3.24-3.05-3.24h-2.12v8.13Z"
              style="fill:#263238"></path>
        <path d="M371.55,254.73v21.8h-2.43v-21.8Z" style="fill:#263238"></path>
        <path d="M379.15,254.73c3.4,0,5,2,5,5.42v11c0,3.34-1.56,5.39-5,5.39h-5.1v-21.8Zm0,19.59c1.75,0,2.59-1.09,2.59-3.08V260c0-2-.84-3.08-2.62-3.08h-2.62v17.38Z"
              style="fill:#263238"></path>
        <path d="M391.49,254.73c3.39,0,4.95,2,4.95,5.42v11c0,3.34-1.56,5.39-4.95,5.39h-5.11v-21.8Zm0,19.59c1.74,0,2.58-1.09,2.58-3.08V260c0-2-.84-3.08-2.61-3.08h-2.62v17.38Z"
              style="fill:#263238"></path>
        <path d="M406.47,264.38v2.18h-5.33v7.76h6.55v2.21h-9v-21.8h9v2.21h-6.55v7.44Z" style="fill:#263238"></path>
        <path d="M412.08,276.53H409.9v-21.8H413l5,15.76V254.73h2.15v21.8h-2.53l-5.57-17.63Z"
              style="fill:#263238"></path>
        <path d="M306.54,208.26l22.25-52.61h13.35v52.61h5.78v11.12h-5.78V233.5h-12V219.38H306.54Zm23.58,0V179l-12.34,29.25Z"
              style="fill:#263238"></path>
        <path d="M352.48,174.33c0-12.45,6.56-19.57,18.57-19.57s18.58,7.12,18.58,19.57v40.49c0,12.46-6.57,19.57-18.58,19.57s-18.57-7.11-18.57-19.57Zm12.23,41.27c0,5.56,2.45,7.67,6.34,7.67s6.34-2.11,6.34-7.67v-42c0-5.57-2.44-7.68-6.34-7.68s-6.34,2.11-6.34,7.68Z"
              style="fill:#263238"></path>
        <path d="M421.1,174.78c0-7-2.44-8.9-6.34-8.9s-6.34,2.11-6.34,7.68v5H396.86v-4.23c0-12.45,6.22-19.57,18.24-19.57s18.24,7.12,18.24,19.57v2c0,8.34-2.67,13.57-8.57,16,6.12,2.67,8.57,8.45,8.57,16.35v6.12c0,12.46-6.23,19.57-18.24,19.57s-18.24-7.11-18.24-19.57v-6.45h11.56v7.23c0,5.56,2.45,7.67,6.34,7.67s6.34-1.89,6.34-8.78v-6.12c0-7.23-2.44-9.9-8-9.9H409V187.35h4.78c4.56,0,7.34-2,7.34-8.23Z"
              style="fill:#263238"></path>
    </g>
    <g id="freepik--security-barrier--inject-149">
        <polygon points="86.87 446.5 72.61 446.5 91.62 313.99 105.88 313.99 86.87 446.5"
                 style="fill:#263238;stroke:#263238;stroke-miterlimit:10;stroke-width:1.166343341900884px"></polygon>
        <polygon points="115.39 446.5 129.64 446.5 110.63 313.99 96.38 313.99 115.39 446.5"
                 style="fill:#fff;stroke:#263238;stroke-miterlimit:10;stroke-width:1.166343341900884px"></polygon>
        <polygon points="289.18 446.5 274.93 446.5 293.93 313.99 308.19 313.99 289.18 446.5"
                 style="fill:#263238;stroke:#263238;stroke-miterlimit:10;stroke-width:1.166343341900884px"></polygon>
        <polygon points="317.7 446.5 331.95 446.5 312.94 313.99 298.69 313.99 317.7 446.5"
                 style="fill:#fff;stroke:#263238;stroke-miterlimit:10;stroke-width:1.166343341900884px"></polygon>
        <rect x="55.73" y="293.21" width="271.93" height="26.36"
              style="fill:#1F509A;stroke:#263238;stroke-miterlimit:10;stroke-width:1.166343341900884px"></rect>
        <rect x="62.36" y="293.21" width="271.93" height="26.36"
              style="fill:#1F509A;stroke:#263238;stroke-miterlimit:10;stroke-width:1.166343341900884px"></rect>
        <polygon points="66.81 319.57 89.89 319.57 101.82 293.21 78.74 293.21 66.81 319.57"
                 style="fill:#263238"></polygon>
        <polygon points="158.17 293.21 135.09 293.21 123.16 319.57 146.24 319.57 158.17 293.21"
                 style="fill:#263238"></polygon>
        <polygon points="327.21 293.21 304.13 293.21 292.21 319.57 315.29 319.57 327.21 293.21"
                 style="fill:#263238"></polygon>
        <polygon points="270.87 293.21 247.78 293.21 235.86 319.57 258.94 319.57 270.87 293.21"
                 style="fill:#263238"></polygon>
        <polygon points="214.52 293.21 191.44 293.21 179.51 319.57 202.59 319.57 214.52 293.21"
                 style="fill:#263238"></polygon>
        <line x1="332.8" y1="304.9" x2="287.8" y2="304.9"
              style="fill:none;stroke:#263238;stroke-miterlimit:10;stroke-width:1.166343341900884px"></line>
        <line x1="332.01" y1="309.31" x2="324.91" y2="309.31"
              style="fill:none;stroke:#263238;stroke-miterlimit:10;stroke-width:1.166343341900884px"></line>
        <line x1="61.21" y1="308.21" x2="106.21" y2="308.21"
              style="fill:none;stroke:#263238;stroke-miterlimit:10;stroke-width:1.166343341900884px"></line>
        <line x1="62" y1="303.25" x2="118.84" y2="303.25"
              style="fill:none;stroke:#263238;stroke-miterlimit:10;stroke-width:1.166343341900884px"></line>
        <rect x="331.37" y="440.72" width="77.14" height="5.79"
              style="fill:#263238;stroke:#263238;stroke-linecap:round;stroke-linejoin:round;stroke-width:1.166343341900884px"></rect>
        <polygon points="395.49 440.56 344.39 440.56 364.42 331.6 375.46 331.6 395.49 440.56"
                 style="fill:#1F509A;stroke:#263238;stroke-linecap:round;stroke-linejoin:round;stroke-width:1.166343341900884px"></polygon>
        <polygon points="356.98 372.1 382.91 372.1 380.42 358.6 359.46 358.6 356.98 372.1"
                 style="fill:#fff;stroke:#263238;stroke-linecap:round;stroke-linejoin:round;stroke-width:1.166343341900884px"></polygon>
        <line x1="387.81" y1="422.37" x2="389.09" y2="429.82"
              style="fill:#1F509A;stroke:#263238;stroke-linecap:round;stroke-linejoin:round;stroke-width:1.166343341900884px"></line>
        <line x1="373.22" y1="337.62" x2="386.2" y2="413"
              style="fill:#1F509A;stroke:#263238;stroke-linecap:round;stroke-linejoin:round;stroke-width:1.166343341900884px"></line>
    </g>
    <g id="freepik--Floor--inject-149">
        <line x1="450.01" y1="446.5" x2="456.92" y2="446.5"
              style="fill:none;stroke:#263238;stroke-linecap:round;stroke-linejoin:round;stroke-width:1.166343341900884px"></line>
        <line x1="39.37" y1="446.5" x2="440.36" y2="446.5"
              style="fill:none;stroke:#263238;stroke-linecap:round;stroke-linejoin:round;stroke-width:1.166343341900884px"></line>
    </g>
</svg>