<svg xmlns="http://www.w3.org/2000/svg" viewBox="0 0 500 500"><g id="freepik--Floor--inject-3"><path id="freepik--floor--inject-3" d="M76.39,423c-95.87-55.35-95.88-145.1,0-200.45s251.32-55.36,347.2,0,95.88,145.1,0,200.45S172.27,478.38,76.39,423Z" style="fill:#f5f5f5"></path></g><g id="freepik--Shadows--inject-3"><g id="freepik--Shadow--inject-3"><path d="M356.87,337.94c-8-4.63-12.36-6-14.41-6.35A14.53,14.53,0,0,1,335,341.8a32.43,32.43,0,0,1-30,0c-5.16-3-8.12-7.5-8.12-12.41s3-9.44,8.12-12.42A25.79,25.79,0,0,1,315,313.86c-1-.62-2.11-1.31-3.41-2.06L282,294.73l31.64-18.27c9.58-5.52,16.82-8.21,22.16-8.21,7.08,0,10.38,4.5,11.1,8.71.45,2.7.45,2.7,1.61,3.37a19.7,19.7,0,0,0,17.09,0,5.42,5.42,0,0,0,1.52-1.19,5.23,5.23,0,0,0-1.52-1.19c-2.35-1.36-5.31-1.59-10.78-1.9-8.32-.47-10.93-4.22-11.66-7.28-1.62-6.82,5.13-12.31,15.75-18.44l25.16-14.53,23.09,13.33c10.62,6.13,17.36,11.62,15.74,18.44-.73,3.06-3.34,6.81-11.65,7.28-5.47.31-8.44.54-10.79,1.9a5.39,5.39,0,0,0-1.52,1.19,5.58,5.58,0,0,0,1.52,1.19,19.7,19.7,0,0,0,17.09,0c1.16-.67,1.16-.67,1.62-3.36.72-4.22,4-8.72,11.1-8.72,5.33,0,12.58,2.69,22.15,8.22L482,292.34,450.39,310.6c-1.3.75-2.43,1.44-3.42,2.06a25.59,25.59,0,0,1,10.11,3.12c5.17,3,8.13,7.5,8.13,12.41s-3,9.43-8.13,12.41a32.41,32.41,0,0,1-30,0,14.53,14.53,0,0,1-7.5-10.2c-2.06.37-6.4,1.71-14.42,6.34L380,351.27Z" style="fill:#e0e0e0"></path><path d="M224.83,262.45c-10.51-6.09-17.17-11.54-15.55-18.33.73-3.06,3.35-6.81,11.65-7.28,5.47-.31,8.43-.53,10.79-1.89a5.58,5.58,0,0,0,1.52-1.19,5.36,5.36,0,0,0-1.52-1.2,19.7,19.7,0,0,0-17.09,0c-1.16.67-1.16.67-1.62,3.36-.72,4.22-4,8.72-11.1,8.72-5.29,0-12.47-2.65-21.95-8.09l-29.77-17.19,31.64-18.27c9.58-5.53,16.82-8.21,22.16-8.21,7.08,0,10.38,4.5,11.1,8.71.46,2.7.46,2.7,1.62,3.37a19.7,19.7,0,0,0,17.09,0,5.72,5.72,0,0,0,1.52-1.2,5.76,5.76,0,0,0-1.52-1.19c-2.36-1.36-5.32-1.58-10.79-1.89-8.31-.48-10.93-4.23-11.66-7.29-1.62-6.82,5.13-12.3,15.75-18.43l25.16-14.53,23.09,13.33c8,4.63,12.36,6,14.41,6.34a14.56,14.56,0,0,1,7.5-10.21,32.43,32.43,0,0,1,30.05,0c5.16,3,8.12,7.51,8.12,12.42s-3,9.43-8.12,12.41a25.41,25.41,0,0,1-10.11,3.11c1,.63,2.11,1.31,3.41,2.06L350.18,217l-31.64,18.27c-1.3.75-2.43,1.43-3.42,2.06a25.67,25.67,0,0,1,10.12,3.11c5.16,3,8.12,7.51,8.12,12.42s-3,9.43-8.12,12.41a30.5,30.5,0,0,1-15,3.69h0a30.46,30.46,0,0,1-15-3.69,14.53,14.53,0,0,1-7.5-10.21c-2.06.38-6.4,1.72-14.42,6.34l-25.16,14.53Z" style="fill:#e0e0e0"></path><path d="M220.38,416.17c-8-4.63-12.36-6-14.41-6.34a14.56,14.56,0,0,1-7.5,10.21,32.51,32.51,0,0,1-30.05,0c-5.16-3-8.12-7.51-8.12-12.42s3-9.43,8.12-12.41a25.64,25.64,0,0,1,10.11-3.12c-1-.62-2.11-1.3-3.41-2L145.55,373l31.64-18.27c1.3-.75,2.43-1.44,3.42-2.06a25.74,25.74,0,0,1-10.11-3.11c-5.17-3-8.13-7.51-8.13-12.42s3-9.43,8.13-12.41a32.41,32.41,0,0,1,30,0,14.5,14.5,0,0,1,7.5,10.2c2.06-.37,6.4-1.71,14.42-6.34L247.62,314l23.09,13.33c10.62,6.13,17.36,11.61,15.74,18.43-.73,3.06-3.34,6.81-11.65,7.29-5.47.31-8.43.53-10.79,1.89a5.58,5.58,0,0,0-1.52,1.19,5.55,5.55,0,0,0,1.52,1.2,19.7,19.7,0,0,0,17.09,0c1.16-.68,1.16-.68,1.62-3.37.72-4.21,4-8.72,11.1-8.72,5.33,0,12.58,2.69,22.15,8.22l29.57,17.07L313.9,388.84c-9.58,5.53-16.82,8.21-22.16,8.21-7.08,0-10.38-4.5-11.09-8.72-.46-2.69-.46-2.69-1.62-3.36a19.7,19.7,0,0,0-17.09,0,5.42,5.42,0,0,0-1.52,1.19,5.21,5.21,0,0,0,1.52,1.2c2.35,1.36,5.31,1.58,10.78,1.89,8.32.47,10.93,4.22,11.66,7.29,1.62,6.82-5.12,12.3-15.75,18.43L243.47,429.5Z" style="fill:#e0e0e0"></path><path d="M88.8,340.2c-10.62-6.13-17.36-11.62-15.74-18.44.73-3.06,3.34-6.81,11.65-7.28,5.47-.31,8.43-.54,10.78-1.9A5.42,5.42,0,0,0,97,311.39a5.23,5.23,0,0,0-1.52-1.19A17.67,17.67,0,0,0,87,308.25a17.67,17.67,0,0,0-8.54,1.95c-1.16.67-1.16.67-1.62,3.36-.72,4.22-4,8.72-11.1,8.72-5.33,0-12.58-2.69-22.16-8.22L14,297l31.64-18.26c1.3-.75,2.43-1.44,3.42-2.06a25.64,25.64,0,0,1-10.12-3.12c-5.16-3-8.12-7.5-8.12-12.41s3-9.44,8.12-12.42a30.6,30.6,0,0,1,15-3.68,30.56,30.56,0,0,1,15,3.68,14.56,14.56,0,0,1,7.5,10.21c2.05-.37,6.4-1.71,14.41-6.34L116,238.06l23.28,13.45c7.89,4.53,12.18,5.86,14.21,6.23A14.54,14.54,0,0,1,161,247.53a32.41,32.41,0,0,1,30,0c5.17,3,8.13,7.5,8.13,12.41s-3,9.44-8.13,12.42a25.74,25.74,0,0,1-10.1,3.11c.93.59,2,1.24,3.22,1.95L214,294.6l-31.64,18.27c-9.58,5.52-16.82,8.21-22.16,8.21h0c-7.08,0-10.38-4.5-11.1-8.72-.46-2.69-.46-2.69-1.62-3.36a19.7,19.7,0,0,0-17.09,0,5.76,5.76,0,0,0-1.52,1.19,5.72,5.72,0,0,0,1.52,1.2c2.36,1.35,5.32,1.58,10.79,1.89,8.31.47,10.93,4.22,11.65,7.28,1.63,6.82-5.12,12.31-15.74,18.44l-25.16,14.53Z" style="fill:#e0e0e0"></path></g><path id="freepik--shadow--inject-3" d="M58.24,401.1l9.2-5.33a11.07,11.07,0,0,1,10,0l3.21,1.85,12-6.91a4.36,4.36,0,0,1,3.92,0l.08.05a1.19,1.19,0,0,1,0,2.26l-12,6.91.67.38c2.77,1.6,2.77,4.2,0,5.81l-9.2,5.33L62.72,419.2,44.81,408.86Z" style="fill:#e0e0e0"></path><path id="freepik--shadow--inject-3" d="M132,404.28a2.09,2.09,0,0,0-.16-.27l-.11-.17-.13-.18-.31-.4c-.12-.14-.26-.29-.41-.44a9.56,9.56,0,0,0-1.08-.93l-.2-.13,0,0-.18-.1a7.28,7.28,0,0,0-2.68-.93l-.47-.05h-.47l-.48,0-.21,0-.18,0-.09,0-.13,0a1.81,1.81,0,0,0-.31.09h0a3.61,3.61,0,0,0-.42.16h0a5.56,5.56,0,0,0-.75.41,8,8,0,0,0-1.36,1.14c-.19.2-.36.4-.52.6s-.43.61-.61.9a5.83,5.83,0,0,0-.32.6l-.15.29c-.18.38-.34.75-.49,1.08-.65.31-27.14,15.52-32.94,19.08l0,0-.74.46c-7.61,4.75-16.35,12.85-16.35,12.85h0l-.1.11a.67.67,0,0,0,.16.95.68.68,0,0,0,.6.1h0a123.3,123.3,0,0,0,18.56-9.19c6.13-3.82,31.54-20.75,32.56-21.56a7.34,7.34,0,0,0,4.11-.22A7.22,7.22,0,0,0,129,406h0a4.78,4.78,0,0,1,.74-.75,2.94,2.94,0,0,1,2.4-.72A2.49,2.49,0,0,0,132,404.28Z" style="fill:#e0e0e0"></path><path id="freepik--shadow--inject-3" d="M83.68,417.57a145.09,145.09,0,0,0-14.56,14.84h0a1.25,1.25,0,0,0-.09.12.68.68,0,0,0,.89.94h0A122.42,122.42,0,0,0,87.19,422c4.14-3.4,8.06-7.11,10.61-9.62h0c1.08-1,2.09-2,3-3h0a7.34,7.34,0,0,0,4-.75,7.22,7.22,0,0,0,3.08-3.09h0a5,5,0,0,1,.64-.84,2.93,2.93,0,0,1,2.28-1l-.15-.22-.2-.25-.13-.15-.15-.16h0l-.36-.36c-.14-.12-.29-.25-.46-.38a7.79,7.79,0,0,0-1.2-.78l-.2-.11-.06,0-.19-.08a7.35,7.35,0,0,0-2.78-.58l-.46,0-.47.05a3.56,3.56,0,0,0-.47.1l-.21,0-.17.06-.09,0-.12,0-.3.13h0l-.39.21h0a4.09,4.09,0,0,0-.69.51,7.63,7.63,0,0,0-1.21,1.3c-.16.22-.3.44-.43.66a6.89,6.89,0,0,0-.49,1c-.09.21-.18.42-.25.62s-.07.21-.1.31c-.14.4-.25.79-.35,1.14C97.68,407.5,89.46,412.75,83.68,417.57Z" style="fill:#e0e0e0"></path><path id="freepik--shadow--inject-3" d="M39.78,389.47c8,4.59,20.86,4.59,28.81,0s8-12,0-16.63-20.85-4.6-28.81,0S31.83,384.88,39.78,389.47Z" style="fill:#e0e0e0"></path><path id="freepik--shadow--inject-3" d="M435.78,403.43a10.65,10.65,0,0,1-2.9-.42c-2.84-.8-3.72-2.28-4-3.39a5.13,5.13,0,0,1,1.92-4.69c.44-.37,1-.76,1.48-1.17,1.37-1.06,3.08-2.37,3.48-3.39l1.93-4.95-1.46-.84.31-.73-1.51.32-.68-.91c-1.51.73-5.22,2.53-10.19,5l-2.95,1.5a28,28,0,0,1-6.65,2.8,11.54,11.54,0,0,1-2.64.32,5.36,5.36,0,0,1-4.13-1.5,4.1,4.1,0,0,1-.92-3.37c.52-4.66,9.61-8.73,14.33-9.16,1.55-.14,3-.2,4.6-.2.77,0,1.46,0,2.08,0l1.36,0c.42,0,.79,0,1.14,0,1.79-.17,7.35-1.19,7.4-1.2l.61-.12.37.5,1.39-.27c1.84-1.3,15.88-11.26,19.2-13.54,2.07-1.42,5.78-3.67,6.9-3.67h.61l.37.56.28.53-.37.63a27.89,27.89,0,0,1-5.31,6.08c-1.18.94-4.6,3.84-8,6.75l25.66-5-1.13,1.92c-.31.53-2,2.06-10.64,4.62-5.21,1.53-14.73,3.74-21.9,5.34l-1.16,1c-.08,1.28-.34,5.17-.51,7.2a7.69,7.69,0,0,0,.37,2.43c.43,1.72,1,3.85-.43,6A10,10,0,0,1,435.78,403.43Zm1.81-7.4a4.69,4.69,0,0,0-3.37,1.32,1.2,1.2,0,0,0-.34,1,1.55,1.55,0,0,0,1.12.84,4.14,4.14,0,0,0,1.14.15,4.69,4.69,0,0,0,3.37-1.32,1.2,1.2,0,0,0,.34-1,1.55,1.55,0,0,0-1.12-.84A4.14,4.14,0,0,0,437.59,396Zm-13.15-13.64a18.09,18.09,0,0,0-5.54,1c-4.93,1.62-6.48,3.64-7,4.7-.07.13-.2.47-.08.64a1,1,0,0,0,.82.29,2.12,2.12,0,0,0,.49-.06,7.66,7.66,0,0,0,2.55-1.23,32.39,32.39,0,0,1,3.1-1.76,59.55,59.55,0,0,1,8-3.22l.08,0A9.06,9.06,0,0,0,424.44,382.39Z" style="fill:#e0e0e0"></path><path id="freepik--shadow--inject-3" d="M483.53,224l-75.64-43.79a4,4,0,0,0-2.87-.59l-.73.41a1.73,1.73,0,0,0,.81,1.95l26.19,15.26-26.12,15.54-26.83-15.62c-1.17-.67-2.39-1.28-3.56-.6h0c-1.17.67-.89,1.25.28,1.93L450.43,243Z" style="fill:#e0e0e0"></path></g><g id="freepik--Puzzle--inject-3"><g id="freepik--puzzle--inject-3"><path d="M469.07,277.88l-19.85-11.46c-15.42-8.9-22.77-9-23.62-4-.59,3.44-1,5.73-4.77,7.89-6.25,3.61-16.2,3.74-22.75.43,3.5-1.76,7.32-2,12.84-2.32,3.68-.21,5.76-1.09,5.76-2.72V251.21c0-2.21-3.84-5.79-12.72-10.92l-19.85-11.46-21.92,12.66c-8.88,5.12-12.73,8.71-12.73,10.92v14.47c0,1.63,2.08,2.51,5.77,2.72,5.51.31,9.33.56,12.83,2.31-6.54,3.32-16.5,3.18-22.75-.42-3.73-2.16-4.18-4.46-4.76-7.89-.86-5-8.22-4.88-23.63,4L295,280.28v14.47L314.51,306a17.75,17.75,0,0,0-6.36,2.11c-3.25,1.88-4.88,4.34-4.88,6.8V329.4c0,2.46,1.62,4.93,4.88,6.81,6.51,3.76,17.06,3.76,23.57,0,3.73-2.16,4.18-4.45,4.77-7.89.85-5,8.2-4.88,23.62,4L380,343.8l21.92-12.66c15.41-8.89,22.77-9,23.63-4,.59,3.43,1,5.73,4.77,7.88,6.51,3.76,17.05,3.76,23.57,0,3.25-1.88,4.88-4.34,4.88-6.8V313.74c0-2.47-1.63-4.93-4.88-6.81a17.94,17.94,0,0,0-6.37-2.11l21.59-12.47Z" style="fill:#1F509A"></path><path d="M314.49,306,295,294.75V280.27h0l19.84,11.45c15.4,8.9,15.65,13.15,7,13.64C319,305.52,316.61,305.66,314.49,306Z" style="fill:#fff;opacity:0.30000000000000004"></path><path d="M349.46,266.88V252.41c0,1.62,2.1,2.49,5.77,2.7,5.94.34,9.92.6,13.65,2.75,6.51,3.76,6.51,9.85,0,13.61-.27.15-.54.3-.82.44-3.5-1.75-7.32-2-12.83-2.31C351.54,269.39,349.46,268.5,349.46,266.88Z" style="fill:#fff;opacity:0.30000000000000004"></path><path d="M360.11,317.86c-15.42-8.91-22.77-9-23.62-4v14.48c.85-5,8.2-4.88,23.62,4L380,343.8V329.31Z" style="fill:#fff;opacity:0.30000000000000004"></path><path d="M453.85,320.52c-6.51,3.76-17.07,3.76-23.58,0-3.73-2.16-4.18-4.45-4.76-7.88v14.49c.58,3.43,1,5.73,4.76,7.88,6.51,3.76,17.07,3.76,23.58,0,3.25-1.88,4.88-4.34,4.88-6.8V313.74C458.72,316.19,457.09,318.65,453.85,320.52Z" style="fill:#fff;opacity:0.30000000000000004"></path><path d="M397.26,256.66c3.73-2.15,7.71-2.41,13.65-2.75,3.68-.21,5.75-1.09,5.77-2.7v14.47c0,1.63-2.08,2.51-5.77,2.72-5.5.31-9.32.56-12.82,2.31-.28-.13-.56-.29-.83-.44C390.75,266.51,390.75,260.42,397.26,256.66Z" style="fill:#fff;opacity:0.5"></path><path d="M331.72,321.72c-6.51,3.76-17.06,3.76-23.57,0-3.24-1.87-4.88-4.34-4.89-6.79,0,2.46,0,12,0,14.47s1.63,4.93,4.89,6.81c6.51,3.76,17.06,3.76,23.57,0,3.73-2.16,4.18-4.46,4.77-7.89V313.84C335.9,317.27,335.45,319.57,331.72,321.72Z" style="fill:#fff;opacity:0.5"></path><path d="M401.88,316.66,380,329.31V343.8l21.92-12.65c15.41-8.91,22.77-9,23.63-4V312.64C424.65,307.62,417.29,307.76,401.88,316.66Z" style="fill:#fff;opacity:0.5"></path><path d="M469.07,277.88v14.47L447.51,304.8c-2.12-.34-4.5-.47-7.32-.64-8.7-.49-8.46-4.73,7-13.64l21.91-12.64Z" style="fill:#fff;opacity:0.5"></path><path d="M397.26,256.66c3.74-2.15,7.71-2.41,13.66-2.75,8.69-.49,8.45-4.74-7-13.64l-19.85-11.46-21.92,12.66c-15.42,8.9-15.66,13.14-7,13.64,5.94.34,9.92.6,13.65,2.75,6.51,3.76,6.51,9.85,0,13.61s-17.05,3.76-23.57,0c-3.73-2.16-4.18-4.45-4.76-7.89-.86-5-8.22-4.87-23.63,4L295,280.26l19.85,11.46c15.41,8.9,15.65,13.15,7,13.64-5.95.34-9.93.6-13.66,2.75-6.51,3.76-6.51,9.85,0,13.61s17.06,3.76,23.57,0c3.73-2.16,4.18-4.45,4.77-7.88.85-5,8.2-4.89,23.62,4L380,329.31l21.92-12.65c15.41-8.9,22.77-9,23.63-4,.59,3.43,1,5.73,4.77,7.88,6.51,3.76,17.05,3.76,23.57,0s6.51-9.85,0-13.61c-3.74-2.15-7.71-2.41-13.66-2.75-8.69-.49-8.46-4.74,7-13.64l21.92-12.66-19.85-11.45c-15.42-8.91-22.77-9-23.62-4-.59,3.43-1,5.73-4.77,7.88-6.51,3.76-17.06,3.76-23.57,0S390.75,260.42,397.26,256.66Z" style="fill:#1F509A"></path><path d="M397.26,256.66c3.74-2.15,7.71-2.41,13.66-2.75,8.69-.49,8.45-4.74-7-13.64l-19.85-11.46-21.92,12.66c-15.42,8.9-15.66,13.14-7,13.64,5.94.34,9.92.6,13.65,2.75,6.51,3.76,6.51,9.85,0,13.61s-17.05,3.76-23.57,0c-3.73-2.16-4.18-4.45-4.76-7.89-.86-5-8.22-4.87-23.63,4L295,280.26l19.85,11.46c15.41,8.9,15.65,13.15,7,13.64-5.95.34-9.93.6-13.66,2.75-6.51,3.76-6.51,9.85,0,13.61s17.06,3.76,23.57,0c3.73-2.16,4.18-4.45,4.77-7.88.85-5,8.2-4.89,23.62,4L380,329.31l21.92-12.65c15.41-8.9,22.77-9,23.63-4,.59,3.43,1,5.73,4.77,7.88,6.51,3.76,17.05,3.76,23.57,0s6.51-9.85,0-13.61c-3.74-2.15-7.71-2.41-13.66-2.75-8.69-.49-8.46-4.74,7-13.64l21.92-12.66-19.85-11.45c-15.42-8.91-22.77-9-23.62-4-.59,3.43-1,5.73-4.77,7.88-6.51,3.76-17.06,3.76-23.57,0S390.75,260.42,397.26,256.66Z" style="fill:#fff;opacity:0.7000000000000001"></path><g style="opacity:0.7000000000000001"><path d="M384.11,231,403,241.9c10.71,6.19,11.68,8.82,11.77,9.23-.18.16-1.05.74-4,.9-6,.34-10.31.59-14.49,3-3.76,2.17-5.82,5.17-5.82,8.44s2.06,6.26,5.82,8.43a27.91,27.91,0,0,0,25.45,0c4.56-2.63,5.11-5.82,5.68-9.2.11-.61.3-1.76,2.86-1.76s7.81,1.23,18,7.1l17,9.82-19.1,11c-13,7.5-14.15,11-13.57,13.39.8,3.38,5.8,3.67,7.44,3.76,6.19.35,9.57.63,12.82,2.51,2.55,1.46,4,3.3,4,5.17s-1.4,3.7-4,5.17a24.15,24.15,0,0,1-21.68,0c-3-1.75-3.31-3.36-3.85-6.57s-2.93-4.89-6.57-4.89c-4.44,0-11.13,2.55-19.86,7.59l-21,12.12-18.91-10.92c-8.73-5-15.41-7.6-19.85-7.6-3.65,0-6,1.79-6.57,4.9s-.82,4.82-3.85,6.57a24.17,24.17,0,0,1-21.69,0c-2.54-1.47-3.94-3.31-3.94-5.17s1.4-3.71,3.94-5.18c3.26-1.88,6.64-2.15,12.82-2.5,1.65-.09,6.64-.38,7.45-3.76.57-2.42-.59-5.9-13.57-13.39l-17-9.83,19.09-11c10.16-5.86,15.38-7.09,18-7.09s2.75,1.15,2.85,1.76c.58,3.38,1.12,6.57,5.68,9.2a27.91,27.91,0,0,0,25.45,0c3.76-2.17,5.83-5.16,5.83-8.43s-2.07-6.27-5.83-8.44c-4.18-2.42-8.5-2.66-14.49-3-2.94-.17-3.8-.75-4-.9.07-.42,1-3,11.78-9.23l21-12.11m0-2.18-21.92,12.66c-15.42,8.9-15.66,13.14-7,13.64,5.94.34,9.92.6,13.65,2.75,6.51,3.76,6.51,9.85,0,13.61a26,26,0,0,1-23.57,0c-3.73-2.16-4.18-4.45-4.76-7.89-.36-2.12-1.9-3.32-4.71-3.32-3.83,0-10,2.22-18.92,7.34L295,280.26l19.85,11.46c15.41,8.9,15.65,13.15,7,13.64-5.95.34-9.93.6-13.66,2.75-6.51,3.76-6.51,9.85,0,13.61a26,26,0,0,0,23.57,0c3.73-2.16,4.18-4.45,4.77-7.88.36-2.13,1.89-3.33,4.71-3.33,3.83,0,10,2.21,18.91,7.34L380,329.31l21.92-12.65c8.88-5.13,15.09-7.35,18.92-7.35,2.82,0,4.35,1.2,4.71,3.33.59,3.43,1,5.73,4.77,7.88a26,26,0,0,0,23.57,0c6.51-3.76,6.51-9.85,0-13.61-3.74-2.15-7.71-2.41-13.66-2.75-8.69-.49-8.46-4.74,7-13.64l21.92-12.66-19.85-11.45c-8.88-5.13-15.08-7.35-18.91-7.35-2.82,0-4.35,1.2-4.71,3.33-.59,3.43-1,5.73-4.77,7.88a26,26,0,0,1-23.57,0c-6.51-3.76-6.51-9.85,0-13.61,3.74-2.15,7.71-2.41,13.66-2.75,8.69-.49,8.45-4.74-7-13.64l-19.85-11.46Z" style="fill:#fff"></path></g><path d="M337.22,202.49l-19.51-11.27a17.75,17.75,0,0,0,6.36-2.11c3.26-1.88,4.88-4.34,4.88-6.8V167.83c0-2.46-1.62-4.92-4.88-6.8-6.51-3.76-17.06-3.76-23.57,0-3.73,2.16-4.18,4.45-4.76,7.88-.86,5-8.21,4.89-23.63-4l-19.85-11.46-21.92,12.65c-8.88,5.13-12.73,8.71-12.73,10.92v14.48c0,1.62,2.08,2.51,5.77,2.72,5.51.31,9.33.56,12.84,2.31-6.55,3.32-16.51,3.18-22.75-.43-3.74-2.15-4.19-4.45-4.77-7.88-.86-5-8.22-4.88-23.63,4l-21.92,12.66v14.47l20,11.57c15.29,8.79,22.58,8.9,23.43,3.91.59-3.44,1-5.73,4.77-7.89,6.25-3.61,16.2-3.74,22.75-.43-3.5,1.76-7.32,2-12.84,2.32-3.68.21-5.76,1.09-5.76,2.72V246c0,2.19,3.79,5.74,12.53,10.81l20,11.57L270,255.75c15.41-8.89,22.77-9,23.63-4,.59,3.43,1,5.72,4.77,7.88,6.51,3.76,17.06,3.76,23.57,0,3.24-1.87,4.87-4.33,4.88-6.78s0-12,0-14.5-1.63-4.92-4.88-6.8a17.75,17.75,0,0,0-6.36-2.11L337.22,217Z" style="fill:#1F509A"></path><path d="M308.34,228.79c2.81.16,5.18.3,7.3.64h0L337.22,217V202.49L315.3,215.15C299.88,224.05,299.65,228.29,308.34,228.79Z" style="fill:#fff;opacity:0.5"></path><path d="M237,182.49c-3.73-2.16-7.71-2.42-13.65-2.75-3.74-.22-5.83-1.13-5.77-2.8v14.55c0,1.62,2.08,2.51,5.77,2.72,5.51.31,9.34.56,12.85,2.32a8.71,8.71,0,0,0,.8-.44C243.55,192.34,243.55,186.25,237,182.49Z" style="fill:#fff;opacity:0.30000000000000004"></path><path d="M324.07,174.64c-3.73,2.15-7.71,2.41-13.66,2.75-8.69.49-8.45,4.74,7,13.64l.34.19a17.75,17.75,0,0,0,6.36-2.11c3.26-1.88,4.88-4.34,4.88-6.8V167.83C329,170.3,327.33,172.76,324.07,174.64Z" style="fill:#fff;opacity:0.5"></path><path d="M183.19,216.46l-20-11.57v14.47l20,11.57c15.29,8.79,22.58,8.9,23.43,3.91V220.36C205.77,225.36,198.48,225.25,183.19,216.46Z" style="fill:#fff;opacity:0.30000000000000004"></path><path d="M235,212.48c-6.51-3.76-17.06-3.76-23.57,0-3.73,2.15-4.18,4.45-4.77,7.88v14.48c.59-3.44,1-5.73,4.77-7.89,6.25-3.61,16.2-3.74,22.75-.43,0,0,.3-.14.82-.43C241.48,222.34,241.47,216.24,235,212.48Z" style="fill:#fff;opacity:0.15"></path><path d="M326.88,238.34c0,2.47-1.63,4.93-4.88,6.81-6.51,3.76-17.06,3.76-23.57,0-3.74-2.16-4.18-4.45-4.77-7.89v14.48c.59,3.43,1,5.72,4.77,7.88,6.51,3.76,17.06,3.76,23.57,0,3.24-1.87,4.87-4.33,4.88-6.78S326.88,240.81,326.88,238.34Z" style="fill:#fff;opacity:0.30000000000000004"></path><path d="M270,241.28l-21.92,12.66v14.47L270,255.75c15.41-8.89,22.77-9,23.63-4V237.26C292.8,232.24,285.44,232.38,270,241.28Z" style="fill:#fff;opacity:0.5"></path><path d="M228.07,242.37c-8.92-5.18-12.68-8.76-12.52-11,0,.05,0,.09,0,.14V246c0,2.19,3.79,5.74,12.53,10.81l20,11.57V253.94Z" style="fill:#fff;opacity:0.30000000000000004"></path><path d="M300.5,161c-3.73,2.16-4.18,4.45-4.76,7.88-.86,5-8.21,4.89-23.63-4l-19.85-11.46-21.92,12.65c-15.42,8.91-15.66,13.15-7,13.65,5.94.33,9.92.59,13.65,2.75,6.52,3.76,6.52,9.85,0,13.6s-17.05,3.76-23.56,0c-3.74-2.15-4.19-4.45-4.77-7.88-.86-5-8.22-4.88-23.63,4l-21.92,12.66,20,11.57c15.29,8.79,22.58,8.9,23.43,3.9.59-3.43,1-5.73,4.77-7.88,6.51-3.76,17.06-3.76,23.57,0s6.51,9.85,0,13.61c-3.74,2.15-7.71,2.41-13.66,2.75-8.66.49-8.45,4.71,6.77,13.53l20,11.57L270,241.28c15.41-8.9,22.77-9,23.63-4,.59,3.44,1,5.73,4.77,7.89,6.51,3.76,17.06,3.76,23.57,0s6.51-9.85,0-13.61c-3.74-2.15-7.71-2.41-13.66-2.75-8.69-.5-8.46-4.74,7-13.64l21.92-12.66L317.37,191c-15.41-8.9-15.65-13.15-7-13.64,5.95-.34,9.93-.6,13.66-2.75,6.51-3.76,6.51-9.85,0-13.61S307,157.27,300.5,161Z" style="fill:#1F509A"></path><path d="M300.5,161c-3.73,2.16-4.18,4.45-4.76,7.88-.86,5-8.21,4.89-23.63-4l-19.85-11.46-21.92,12.65c-15.42,8.91-15.66,13.15-7,13.65,5.94.33,9.92.59,13.65,2.75,6.52,3.76,6.52,9.85,0,13.6s-17.05,3.76-23.56,0c-3.74-2.15-4.19-4.45-4.77-7.88-.86-5-8.22-4.88-23.63,4l-21.92,12.66,20,11.57c15.29,8.79,22.58,8.9,23.43,3.9.59-3.43,1-5.73,4.77-7.88,6.51-3.76,17.06-3.76,23.57,0s6.51,9.85,0,13.61c-3.74,2.15-7.71,2.41-13.66,2.75-8.66.49-8.45,4.71,6.77,13.53l20,11.57L270,241.28c15.41-8.9,22.77-9,23.63-4,.59,3.44,1,5.73,4.77,7.89,6.51,3.76,17.06,3.76,23.57,0s6.51-9.85,0-13.61c-3.74-2.15-7.71-2.41-13.66-2.75-8.69-.5-8.46-4.74,7-13.64l21.92-12.66L317.37,191c-15.41-8.9-15.65-13.15-7-13.64,5.95-.34,9.93-.6,13.66-2.75,6.51-3.76,6.51-9.85,0-13.61S307,157.27,300.5,161Z" style="fill:#fff;opacity:0.7000000000000001"></path><g style="opacity:0.7000000000000001"><path d="M252.26,155.61l18.91,10.92c8.73,5,15.41,7.6,19.85,7.6,3.65,0,6-1.79,6.57-4.9s.82-4.82,3.85-6.57a24.17,24.17,0,0,1,21.69,0c2.54,1.47,3.94,3.31,3.94,5.17s-1.4,3.71-3.94,5.18c-3.26,1.88-6.64,2.15-12.82,2.5-1.64.09-6.64.38-7.45,3.76-.57,2.42.59,5.9,13.57,13.39l17,9.83-19.1,11c-13,7.49-14.15,11-13.57,13.39.8,3.38,5.8,3.67,7.44,3.76,6.19.35,9.57.62,12.82,2.5,2.55,1.47,3.95,3.31,3.95,5.17s-1.4,3.71-3.95,5.18a24.23,24.23,0,0,1-21.68,0c-3-1.75-3.31-3.36-3.85-6.57s-2.93-4.9-6.57-4.9c-4.44,0-11.12,2.56-19.86,7.6l-21,12.11-19.1-11c-10.53-6.11-11.49-8.71-11.58-9.12.19-.16,1-.73,4-.9,6-.34,10.3-.59,14.49-3,3.76-2.17,5.82-5.17,5.82-8.44s-2.06-6.26-5.82-8.43a27.91,27.91,0,0,0-25.45,0c-4.57,2.63-5.11,5.82-5.68,9.2-.11.61-.3,1.76-2.86,1.76s-7.74-1.21-17.78-7l-17.21-9.94,19.09-11c10.16-5.86,15.38-7.09,18-7.09s2.75,1.14,2.85,1.76c.58,3.37,1.12,6.56,5.68,9.2a27.93,27.93,0,0,0,25.46,0c3.75-2.17,5.82-5.17,5.82-8.44s-2.07-6.26-5.82-8.43c-4.19-2.42-8.51-2.66-14.49-3-3-.17-3.81-.75-4-.91.07-.42,1-3,11.78-9.22l21-12.12m0-2.17-21.92,12.65c-15.42,8.91-15.66,13.15-7,13.65,5.94.33,9.92.59,13.65,2.75,6.52,3.76,6.52,9.85,0,13.6a26,26,0,0,1-23.56,0c-3.74-2.15-4.19-4.45-4.77-7.88-.36-2.13-1.9-3.33-4.71-3.33-3.83,0-10,2.22-18.92,7.35l-21.92,12.66,20,11.57c8.78,5,14.92,7.23,18.72,7.23,2.82,0,4.35-1.2,4.71-3.33.59-3.43,1-5.73,4.77-7.88a26,26,0,0,1,23.57,0c6.51,3.76,6.51,9.85,0,13.61-3.74,2.15-7.71,2.41-13.66,2.75-8.66.49-8.45,4.71,6.77,13.53l20,11.57L270,241.28c8.88-5.12,15.09-7.34,18.92-7.34,2.82,0,4.35,1.2,4.71,3.32.59,3.44,1,5.73,4.77,7.89a26,26,0,0,0,23.57,0c6.51-3.76,6.51-9.85,0-13.61-3.74-2.15-7.71-2.41-13.66-2.75-8.69-.5-8.46-4.74,7-13.64l21.92-12.66L317.37,191c-15.41-8.9-15.65-13.15-7-13.64,5.95-.34,9.93-.6,13.66-2.75,6.51-3.76,6.51-9.85,0-13.61a26,26,0,0,0-23.57,0c-3.73,2.16-4.18,4.45-4.76,7.88-.37,2.13-1.9,3.33-4.72,3.33-3.82,0-10-2.21-18.91-7.34l-19.85-11.46Z" style="fill:#fff"></path></g><path d="M332.58,356.1l-19.85-11.46c-15.42-8.9-22.77-9-23.62-4-.59,3.43-1,5.73-4.77,7.88-6.25,3.61-16.2,3.75-22.75.43,3.5-1.75,7.32-2,12.84-2.31,3.68-.21,5.76-1.1,5.76-2.72V329.43c0-2.21-3.84-5.8-12.72-10.93l-19.85-11.45L225.7,319.7c-15.41,8.9-22.77,9-23.63,4-.58-3.43-1-5.73-4.77-7.88-6.51-3.76-17.05-3.76-23.56,0-3.26,1.88-4.89,4.34-4.89,6.8v14.47c0,2.46,1.63,4.93,4.89,6.81A17.82,17.82,0,0,0,180.1,346l-21.59,12.46V373L178,384.23a17.77,17.77,0,0,0-6.36,2.12c-3.25,1.88-4.88,4.34-4.88,6.8v14.47c0,2.46,1.63,4.93,4.88,6.81,6.51,3.75,17.06,3.75,23.57,0,3.73-2.15,4.18-4.45,4.77-7.88.85-5,8.2-4.88,23.62,4L243.47,422l21.92-12.66c8.89-5.13,12.73-8.71,12.73-10.92,0-1.63,0-12.25,0-14.47,0-1.63-2.08-2.51-5.77-2.72-5.51-.31-9.33-.56-12.83-2.32,6.54-3.31,16.5-3.18,22.75.43,3.73,2.16,4.18,4.45,4.76,7.89.86,5,8.22,4.87,23.63-4l21.92-12.66Z" style="fill:#1F509A"></path><path d="M310.66,368.76c-15.41,8.89-22.77,9-23.63,4v14.48c.86,5,8.22,4.87,23.63-4l21.92-12.66V356.1Z" style="fill:#fff;opacity:0.5"></path><path d="M260.78,348.5c.26.16.54.3.81.44,3.5-1.76,7.32-2,12.84-2.32,3.69-.21,5.76-1.09,5.76-2.72V329.43c0,1.62-2.07,2.5-5.76,2.71-5.95.34-9.92.6-13.65,2.76C254.26,338.65,254.26,344.75,260.78,348.5Z" style="fill:#fff;opacity:0.5"></path><path d="M278.12,384c0,2.2-3.85,5.79-12.72,10.91l-21.93,12.66V422l21.93-12.66c8.88-5.13,12.72-8.71,12.72-10.92Z" style="fill:#fff;opacity:0.5"></path><path d="M195.23,400c-6.51,3.76-17.06,3.76-23.57,0-3.25-1.87-4.88-4.34-4.88-6.8v14.47c0,2.46,1.63,4.93,4.88,6.8,6.51,3.77,17.06,3.77,23.57,0,3.73-2.15,4.18-4.45,4.76-7.88V392.07C199.41,395.5,199,397.8,195.23,400Z" style="fill:#fff;opacity:0.5"></path><path d="M282.27,364.89c-6.52-3.76-17.06-3.76-23.57,0s-6.51,9.85,0,13.6c.27.16.55.3.82.44,6.55-3.31,16.5-3.17,22.75.43,3.73,2.16,4.18,4.46,4.76,7.89V372.77C286.45,369.34,286,367.05,282.27,364.89Z" style="fill:#fff;opacity:0.30000000000000004"></path><path d="M223.62,396.09c-15.42-8.9-22.76-9-23.63-4v14.47c.87-5,8.21-4.88,23.63,4L243.47,422V407.55Z" style="fill:#fff;opacity:0.30000000000000004"></path><path d="M173.74,343.91A17.45,17.45,0,0,0,180.1,346l.33-.2c15.42-8.9,15.65-13.14,7-13.63-5.95-.34-9.92-.6-13.65-2.76-3.26-1.88-4.89-4.34-4.89-6.8v14.47C168.85,339.57,170.48,342,173.74,343.91Z" style="fill:#fff;opacity:0.30000000000000004"></path><path d="M185.31,383.59c8.7-.49,8.46-4.74-6.95-13.64l-19.85-11.46V373L178,384.23C180.13,383.9,182.51,383.75,185.31,383.59Z" style="fill:#fff;opacity:0.30000000000000004"></path><path d="M260.77,334.9c3.74-2.16,7.71-2.42,13.66-2.75,8.69-.5,8.45-4.75-7-13.64l-19.85-11.46L225.7,319.7c-15.41,8.9-22.77,9-23.63,4-.58-3.43-1-5.73-4.77-7.88-6.51-3.76-17.05-3.76-23.56,0s-6.52,9.84,0,13.6c3.73,2.16,7.71,2.42,13.65,2.76,8.7.49,8.46,4.73-7,13.64l-21.92,12.65L178.36,370c15.41,8.9,15.65,13.15,7,13.64-5.95.34-9.93.6-13.66,2.76-6.51,3.75-6.51,9.84,0,13.6s17.06,3.76,23.57,0c3.73-2.15,4.18-4.45,4.77-7.88.85-5,8.2-4.89,23.62,4l19.85,11.46,21.92-12.66c15.42-8.9,15.66-13.15,7-13.64-5.94-.34-9.92-.6-13.65-2.75-6.51-3.76-6.51-9.85,0-13.61s17.06-3.76,23.57,0c3.73,2.15,4.18,4.45,4.76,7.88.86,5,8.22,4.88,23.63-4l21.92-12.66-19.85-11.46c-15.42-8.9-22.77-9-23.62-4-.59,3.43-1,5.73-4.77,7.88-6.51,3.76-17.06,3.76-23.57,0S254.26,338.66,260.77,334.9Z" style="fill:#1F509A"></path><path d="M260.77,334.9c3.74-2.16,7.71-2.42,13.66-2.75,8.69-.5,8.45-4.75-7-13.64l-19.85-11.46L225.7,319.7c-15.41,8.9-22.77,9-23.63,4-.58-3.43-1-5.73-4.77-7.88-6.51-3.76-17.05-3.76-23.56,0s-6.52,9.84,0,13.6c3.73,2.16,7.71,2.42,13.65,2.76,8.7.49,8.46,4.73-7,13.64l-21.92,12.65L178.36,370c15.41,8.9,15.65,13.15,7,13.64-5.95.34-9.93.6-13.66,2.76-6.51,3.75-6.51,9.84,0,13.6s17.06,3.76,23.57,0c3.73-2.15,4.18-4.45,4.77-7.88.85-5,8.2-4.89,23.62,4l19.85,11.46,21.92-12.66c15.42-8.9,15.66-13.15,7-13.64-5.94-.34-9.92-.6-13.65-2.75-6.51-3.76-6.51-9.85,0-13.61s17.06-3.76,23.57,0c3.73,2.15,4.18,4.45,4.76,7.88.86,5,8.22,4.88,23.63-4l21.92-12.66-19.85-11.46c-15.42-8.9-22.77-9-23.62-4-.59,3.43-1,5.73-4.77,7.88-6.51,3.76-17.06,3.76-23.57,0S254.26,338.66,260.77,334.9Z" style="fill:#fff;opacity:0.7000000000000001"></path><g style="opacity:0.7000000000000001"><path d="M247.62,309.22l18.91,10.92c10.71,6.18,11.68,8.81,11.77,9.23-.18.15-1.05.73-4,.9-6,.34-10.31.58-14.49,3-3.76,2.17-5.82,5.16-5.82,8.43s2.06,6.27,5.82,8.44a27.91,27.91,0,0,0,25.45,0c4.56-2.64,5.11-5.83,5.68-9.2.11-.62.3-1.77,2.86-1.77s7.81,1.24,18,7.1l17,9.83-19.1,11c-10.16,5.87-15.38,7.1-18,7.1s-2.75-1.15-2.85-1.76c-.58-3.38-1.12-6.57-5.68-9.2a27.91,27.91,0,0,0-25.45,0c-3.76,2.17-5.83,5.16-5.83,8.43s2.07,6.27,5.83,8.44c4.18,2.41,8.5,2.66,14.49,3,2.94.17,3.8.75,4,.9-.07.42-1,3-11.78,9.23l-21,12.11-18.91-10.91c-8.73-5-15.41-7.6-19.85-7.6-3.65,0-6,1.78-6.57,4.89s-.82,4.82-3.85,6.57a24.17,24.17,0,0,1-21.69,0c-2.54-1.47-3.94-3.3-3.94-5.17s1.4-3.71,3.94-5.17c3.26-1.88,6.64-2.15,12.82-2.51,1.65-.09,6.64-.37,7.45-3.76.57-2.41-.59-5.89-13.57-13.39l-17-9.83,19.09-11c13-7.5,14.15-11,13.57-13.4-.8-3.38-5.8-3.66-7.44-3.75-6.19-.36-9.57-.63-12.82-2.51-2.54-1.46-3.94-3.3-3.94-5.17s1.4-3.71,3.94-5.17a24.15,24.15,0,0,1,21.68,0c3,1.75,3.31,3.36,3.85,6.57s2.93,4.89,6.57,4.89c4.45,0,11.13-2.55,19.86-7.6l21-12.11m0-2.17L225.7,319.7c-8.88,5.13-15.09,7.35-18.92,7.35-2.82,0-4.35-1.2-4.71-3.33-.58-3.43-1-5.73-4.77-7.88a26,26,0,0,0-23.56,0c-6.52,3.76-6.52,9.84,0,13.6,3.73,2.16,7.71,2.42,13.65,2.76,8.7.49,8.46,4.73-7,13.64l-21.92,12.65L178.36,370c15.41,8.9,15.65,13.15,7,13.64-5.95.34-9.93.6-13.66,2.76-6.51,3.75-6.51,9.84,0,13.6a26,26,0,0,0,23.57,0c3.73-2.15,4.18-4.45,4.77-7.88.36-2.13,1.89-3.33,4.71-3.33,3.82,0,10,2.22,18.91,7.35l19.85,11.46,21.92-12.66c15.42-8.9,15.66-13.15,7-13.64-5.94-.34-9.92-.6-13.65-2.75-6.51-3.76-6.51-9.85,0-13.61a26,26,0,0,1,23.57,0c3.73,2.15,4.18,4.45,4.76,7.88.37,2.13,1.9,3.33,4.71,3.33,3.83,0,10-2.22,18.92-7.34l21.92-12.66-19.85-11.46c-8.88-5.13-15.08-7.35-18.91-7.35-2.82,0-4.35,1.2-4.71,3.33-.59,3.43-1,5.73-4.77,7.88a26,26,0,0,1-23.57,0c-6.51-3.75-6.51-9.84,0-13.6,3.74-2.16,7.71-2.42,13.66-2.75,8.69-.5,8.45-4.75-7-13.65l-19.85-11.45Z" style="fill:#fff"></path></g><path d="M201,280.13l-19.51-11.27a17.83,17.83,0,0,0,6.35-2.11c3.26-1.88,4.89-4.35,4.89-6.81V245.47c0-2.46-1.63-4.92-4.89-6.8-6.51-3.76-17.05-3.76-23.56,0-3.74,2.15-4.19,4.45-4.77,7.88-.85,5-8.15,4.88-23.43-3.91l-20-11.57L94.11,243.73c-15.41,8.9-22.76,9-23.62,4-.59-3.43-1-5.73-4.77-7.89-6.51-3.76-17.06-3.76-23.57,0-3.25,1.88-4.88,4.35-4.88,6.81v14.47c0,2.46,1.63,4.92,4.88,6.8a17.77,17.77,0,0,0,6.36,2.12L26.93,282.52V297l19.84,11.46c15.42,8.9,22.77,9,23.63,4,.59-3.43,1-5.73,4.77-7.88,6.24-3.61,16.2-3.75,22.75-.43-3.51,1.75-7.33,2-12.84,2.31-3.69.21-5.76,1.1-5.76,2.72,0,2.21,0,12.85,0,14.48,0,2.21,3.85,5.79,12.72,10.92l19.85,11.46,21.92-12.66c8.89-5.13,12.73-8.72,12.73-10.93,0-1.62,0-12.25,0-14.46,0-1.63-2.08-2.51-5.77-2.72-5.51-.32-9.33-.57-12.84-2.32,6.55-3.31,16.51-3.18,22.75.43,3.74,2.15,4.18,4.45,4.77,7.88.86,5,8.22,4.88,23.63-4L201,294.6Z" style="fill:#1F509A"></path><path d="M179.08,292.78c-15.41,8.9-22.77,9-23.63,4v14.47c.86,5,8.22,4.88,23.63-4L201,294.6V280.13Z" style="fill:#fff;opacity:0.5"></path><path d="M146.54,308s0-.08,0-.12c.14,2.2-3.67,5.81-12.72,11l-21.92,12.65v14.48l21.92-12.66c8.89-5.13,12.73-8.72,12.73-10.93C146.53,320.84,146.53,310.21,146.54,308Z" style="fill:#fff;opacity:0.5"></path><path d="M187.84,252.27c-3.73,2.16-7.71,2.42-13.65,2.76-8.66.49-8.45,4.7,6.76,13.52l.54.31a17.83,17.83,0,0,0,6.35-2.11c3.26-1.88,4.89-4.35,4.89-6.81V245.47h0C192.73,247.93,191.1,250.39,187.84,252.27Z" style="fill:#fff;opacity:0.5"></path><path d="M98.74,290.11c-6.52-3.76-17.06-3.76-23.57,0-3.74,2.16-4.18,4.46-4.77,7.89v14.47c.59-3.43,1-5.73,4.77-7.88,6.24-3.61,16.2-3.75,22.75-.43l.82-.44C105.25,300,105.25,293.87,98.74,290.11Z" style="fill:#fff;opacity:0.5"></path><path d="M150.68,288.92c-6.51-3.76-17.05-3.76-23.57,0s-6.51,9.85,0,13.6l.82.44c6.55-3.31,16.51-3.18,22.75.43,3.74,2.15,4.18,4.45,4.77,7.88V296.8C154.86,293.37,154.42,291.07,150.68,288.92Z" style="fill:#fff;opacity:0.30000000000000004"></path><path d="M92,320.11c-9.05-5.22-12.86-8.84-12.71-11a.49.49,0,0,0,0,.12c0,2.21,0,12.85,0,14.48,0,2.21,3.85,5.79,12.72,10.92l19.85,11.46V331.57Z" style="fill:#fff;opacity:0.30000000000000004"></path><path d="M46.77,294,26.93,282.52V297l19.84,11.46c15.42,8.9,22.77,9,23.63,4V298C69.54,303,62.19,302.88,46.77,294Z" style="fill:#fff;opacity:0.30000000000000004"></path><path d="M55.81,256.22c-6-.33-9.92-.59-13.66-2.75-3.25-1.88-4.88-4.34-4.88-6.8v14.47c0,2.46,1.63,4.92,4.88,6.8a17.77,17.77,0,0,0,6.36,2.12l.34-.2C64.27,261,64.5,256.72,55.81,256.22Z" style="fill:#fff;opacity:0.30000000000000004"></path><path d="M164.28,238.67c-3.74,2.15-4.19,4.45-4.77,7.88-.85,5-8.15,4.88-23.43-3.91l-20-11.57L94.11,243.73c-15.41,8.9-22.76,9-23.62,4-.59-3.43-1-5.73-4.77-7.89-6.51-3.76-17.06-3.76-23.57,0s-6.51,9.85,0,13.61c3.74,2.16,7.71,2.42,13.66,2.75,8.69.5,8.46,4.74-7,13.64L26.93,282.52,46.77,294c15.42,8.9,22.77,9,23.63,4,.59-3.43,1-5.73,4.77-7.89,6.51-3.76,17-3.76,23.57,0s6.51,9.85,0,13.61c-3.74,2.16-7.71,2.42-13.66,2.75-8.69.5-8.45,4.75,7,13.64l19.85,11.46,21.92-12.65c15.42-8.91,15.65-13.15,7-13.64-6-.34-9.92-.6-13.66-2.76-6.51-3.75-6.51-9.84,0-13.6s17.06-3.76,23.57,0c3.74,2.15,4.18,4.45,4.77,7.88.86,5,8.22,4.88,23.63-4L201,280.13,181,268.55c-15.21-8.82-15.42-13-6.76-13.52,5.94-.34,9.92-.6,13.65-2.76,6.52-3.76,6.52-9.84,0-13.6S170.79,234.91,164.28,238.67Z" style="fill:#1F509A"></path><path d="M164.28,238.67c-3.74,2.15-4.19,4.45-4.77,7.88-.85,5-8.15,4.88-23.43-3.91l-20-11.57L94.11,243.73c-15.41,8.9-22.76,9-23.62,4-.59-3.43-1-5.73-4.77-7.89-6.51-3.76-17.06-3.76-23.57,0s-6.51,9.85,0,13.61c3.74,2.16,7.71,2.42,13.66,2.75,8.69.5,8.46,4.74-7,13.64L26.93,282.52,46.77,294c15.42,8.9,22.77,9,23.63,4,.59-3.43,1-5.73,4.77-7.89,6.51-3.76,17-3.76,23.57,0s6.51,9.85,0,13.61c-3.74,2.16-7.71,2.42-13.66,2.75-8.69.5-8.45,4.75,7,13.64l19.85,11.46,21.92-12.65c15.42-8.91,15.65-13.15,7-13.64-6-.34-9.92-.6-13.66-2.76-6.51-3.75-6.51-9.84,0-13.6s17.06-3.76,23.57,0c3.74,2.15,4.18,4.45,4.77,7.88.86,5,8.22,4.88,23.63-4L201,280.13,181,268.55c-15.21-8.82-15.42-13-6.76-13.52,5.94-.34,9.92-.6,13.65-2.76,6.52-3.76,6.52-9.84,0-13.6S170.79,234.91,164.28,238.67Z" style="fill:#fff;opacity:0.7000000000000001"></path><g style="opacity:0.7000000000000001"><path d="M116,233.25l19.1,11c8.64,5,15.25,7.48,19.66,7.48,3.64,0,6-1.78,6.57-4.89s.82-4.82,3.85-6.57a24.15,24.15,0,0,1,21.68,0c2.54,1.47,3.94,3.3,3.94,5.17s-1.4,3.71-3.94,5.17c-3.25,1.88-6.63,2.15-12.82,2.51-1.64.09-6.63.37-7.44,3.75-.57,2.4.57,5.86,13.37,13.28l17.22,9.95-19.1,11c-10.15,5.86-15.37,7.1-18,7.1s-2.75-1.15-2.85-1.77c-.58-3.37-1.12-6.56-5.69-9.19a27.83,27.83,0,0,0-25.45,0c-3.75,2.16-5.82,5.16-5.82,8.43s2.07,6.27,5.82,8.44c4.19,2.41,8.51,2.66,14.49,3,3,.16,3.81.74,4,.9-.07.42-1,3-11.78,9.23l-21,12.11L93,318.48c-10.71-6.18-11.68-8.82-11.77-9.23.18-.16,1.05-.73,4-.9,6-.34,10.3-.58,14.49-3,3.75-2.17,5.82-5.16,5.82-8.43s-2.07-6.27-5.82-8.44A25.86,25.86,0,0,0,87,285.41a25.85,25.85,0,0,0-12.72,3.07c-4.57,2.64-5.11,5.83-5.69,9.2-.1.62-.3,1.76-2.85,1.76s-7.82-1.23-18-7.09l-17-9.83,19.1-11c13-7.49,14.15-11,13.57-13.39-.8-3.38-5.8-3.66-7.44-3.76-6.19-.35-9.57-.62-12.83-2.5-2.54-1.47-3.94-3.3-3.94-5.17s1.4-3.71,3.94-5.17a22,22,0,0,1,10.85-2.57,22,22,0,0,1,10.84,2.57c3,1.74,3.3,3.36,3.85,6.57S71.56,253,75.2,253c4.44,0,11.12-2.56,19.86-7.6l21-12.11m0-2.18L94.11,243.73c-8.87,5.13-15.08,7.35-18.91,7.35-2.82,0-4.35-1.2-4.71-3.33-.59-3.43-1-5.73-4.77-7.89A24.17,24.17,0,0,0,53.94,237a24.1,24.1,0,0,0-11.79,2.82c-6.51,3.76-6.51,9.85,0,13.61,3.74,2.16,7.71,2.42,13.66,2.75,8.69.5,8.46,4.74-7,13.64L26.93,282.52,46.77,294c8.89,5.13,15.09,7.35,18.92,7.35,2.82,0,4.35-1.2,4.71-3.33.59-3.43,1-5.73,4.77-7.89A24.06,24.06,0,0,1,87,287.29a24.1,24.1,0,0,1,11.79,2.82c6.51,3.76,6.51,9.85,0,13.61-3.74,2.16-7.71,2.42-13.66,2.75-8.69.5-8.45,4.75,7,13.64l19.85,11.46,21.92-12.65c15.42-8.91,15.65-13.15,7-13.64-6-.34-9.92-.6-13.66-2.76-6.51-3.75-6.51-9.84,0-13.6a26,26,0,0,1,23.57,0c3.74,2.15,4.18,4.45,4.77,7.88.36,2.13,1.89,3.33,4.71,3.33,3.83,0,10-2.22,18.92-7.35L201,280.13,181,268.55c-15.21-8.82-15.42-13-6.76-13.52,5.94-.34,9.92-.6,13.65-2.76,6.52-3.76,6.52-9.84,0-13.6a26,26,0,0,0-23.56,0c-3.74,2.15-4.19,4.45-4.77,7.88-.36,2.13-1.89,3.33-4.71,3.33-3.8,0-9.94-2.19-18.72-7.24l-20-11.57Z" style="fill:#fff"></path></g></g></g><g id="freepik--paint-pot--inject-3"><g id="freepik--paint-pot--inject-3"><path d="M71.58,351.93l-34-.46-.29,27.79h0c0,2.52,1.61,5.05,4.91,7,6.6,3.91,17.38,4,24.07.26,3.37-1.9,5.06-4.43,5.06-7Z" style="fill:#37474f"></path><path d="M42.61,344.58c-6.69,3.77-6.75,10-.15,13.9s17.38,4,24.07.26,6.76-10,.15-13.9S49.3,340.81,42.61,344.58Z" style="fill:#455a64"></path><path d="M70.12,351.82a4.15,4.15,0,0,1-.24,1.33,8.25,8.25,0,0,1-4.08,4.3A23.22,23.22,0,0,1,54.47,360a23,23,0,0,1-11.26-2.79,8.25,8.25,0,0,1-3.94-4.3,4.08,4.08,0,0,1-.24-1.42c0-2.08,1.55-4.08,4.31-5.62a22.77,22.77,0,0,1,11.32-2.55,23,23,0,0,1,11.27,2.8C68.66,347.73,70.14,349.74,70.12,351.82Z" style="fill:#263238"></path><path d="M69.88,353.15a8.25,8.25,0,0,1-4.08,4.3A23.22,23.22,0,0,1,54.47,360a23,23,0,0,1-11.26-2.79,8.25,8.25,0,0,1-3.94-4.3,8.16,8.16,0,0,1,4.07-4.28,23,23,0,0,1,11.32-2.57,23.28,23.28,0,0,1,11.27,2.81A8.36,8.36,0,0,1,69.88,353.15Z" style="fill:#1F509A"></path><path d="M65.8,357.45a12.61,12.61,0,0,0,1.55-1c-6.21,3.33-16.9,1.93-20.23-.69s-3.78-7.09,1.64-9.09a19.32,19.32,0,0,0-5.42,2,8.16,8.16,0,0,0-4.07,4.28,8.25,8.25,0,0,0,3.94,4.3A23,23,0,0,0,54.47,360,23.22,23.22,0,0,0,65.8,357.45Z" style="opacity:0.15"></path><path d="M61.82,362.34c.74-.42,1.34-.06,1.33.79a3,3,0,0,1-1.37,2.32c-.74.42-1.34.06-1.33-.79A3,3,0,0,1,61.82,362.34Z" style="fill:#263238"></path><path d="M37.49,356.36c-1.87,3.68-5.59,12.46-.76,16,.2.15.39.28.59.41l0,1.78c-.48-.3-1-.63-1.46-1-7.22-5.36.93-19.1,1.28-19.67a.64.64,0,0,1,.41-.31Z" style="fill:#e0e0e0"></path><path d="M62.45,364.24c-.2.43-5.46,10.49-14.11,12.5a12.15,12.15,0,0,1-3,.36,15.1,15.1,0,0,1-8.06-2.52l0-1.78c3.58,2.48,7.17,3.33,10.69,2.52,8-1.87,13.09-11.67,13.13-11.76a.75.75,0,0,1,1-.32A.72.72,0,0,1,62.45,364.24Z" style="fill:#e0e0e0"></path></g></g><g id="freepik--Pencil--inject-3"><g id="freepik--pencil--inject-3"><path id="freepik--shadow--inject-3" d="M280.4,437.16q2.24,2.58,7.16,3.69a8.11,8.11,0,0,0,5-.9l97.9-57.19L402,371.11a.89.89,0,0,0-.91-1.47l-21.16,7-98.52,56.84C280.07,434.24,279.42,436,280.4,437.16Z" style="opacity:0.1"></path><path d="M380.7,368.77l18.83-3.69a.59.59,0,0,1,.55,1l-12.77,14.47Z" style="fill:#ffa8a7"></path><path d="M400.08,366a.59.59,0,0,0-.55-1l-3.67.72h0a3.25,3.25,0,0,1,1.52,3l0,.33Z" style="fill:#263238"></path><path d="M305.24,427.58l1.54-.88,1.86-1.06,78.67-45.13a8.51,8.51,0,0,0-.53-6.24c-1.33-3-3.92-5.35-6.07-5.49l-78.63,45.11-3.55,2C300.9,414.73,307.6,426.36,305.24,427.58Z" style="fill:#1F509A"></path><path d="M311.11,424.24l3.44-2c1-.54.43-3-.75-5.61-1.57-3.43-4.66-6.75-6-6l-2.54,1.46-.89.53c1.34-.71,4.44,2.61,6,6,1.13,2.47,1.71,4.87.85,5.53h0Z" style="fill:#ebebeb"></path><path d="M312,423.74c2.36-1.25-4.4-12.89-6.76-11.64l-3.45,2c2.36-1.25,9.12,10.39,6.76,11.64Z" style="fill:#1F509A"></path><path d="M305.24,427.58l3.4-1.94c2.33-1.21-4.1-12.5-6.56-11.75a.48.48,0,0,0-.14.05l-3.41,2C300.9,414.73,307.6,426.36,305.24,427.58Z" style="fill:#ebebeb"></path><path d="M400.17,365.41l-.64-.33-13.66,7.48-82.5,47.34c-.14-.21-.25-.22-.33-.08,2,3.13,3.52,7.08,2.2,7.76l1.54-.88,1.86-1.06,78.67-45.13h0L400.08,366A.55.55,0,0,0,400.17,365.41Z" style="opacity:0.15"></path><path d="M290.8,435.84l14.44-8.26c1-.52.45-3-.72-5.56-1.56-3.43-4.63-6.78-6-6.09h0L284,424.22c-2.87,1.66-.23,7.91,3,10.7C288.2,436,289.54,436.44,290.8,435.84Z" style="fill:#f28f8f"></path><path d="M291.67,431.37c-.83-3.26-3.47-6.45-5.89-7.13a2.34,2.34,0,0,0-2.16.29c-2.17,2,.35,7.75,3.39,10.39a3.47,3.47,0,0,0,3.72.95C291.81,435.24,292.23,433.57,291.67,431.37Z" style="opacity:0.1"></path></g></g><g id="freepik--Brushes--inject-3"><g id="freepik--Brush--inject-3"><g id="freepik--brush--inject-3"><path d="M97.31,404.44h0a174,174,0,0,0-14.9,11,123.07,123.07,0,0,0-14.47,14.81v0h0a.67.67,0,0,0-.1.6.68.68,0,0,0,.86.44.42.42,0,0,0,.14-.06h0s10.41-5.8,17.27-11.57A175.76,175.76,0,0,0,99.45,407h0a.88.88,0,0,0,.15-.76,2.59,2.59,0,0,0-1.51-1.79A.87.87,0,0,0,97.31,404.44Z" style="fill:#1F509A"></path><path d="M68.68,431.35a.42.42,0,0,0,.14-.06h0s10.41-5.8,17.27-11.57c4.62-3.89,9.07-8.31,11.49-10.8L96,407.55s-27.72,23.79-28.13,23.36A.68.68,0,0,0,68.68,431.35Z" style="opacity:0.1"></path><path d="M99.05,405.13c.6-.13,3.87-.81,5.38-2.74a2.68,2.68,0,0,1-.45-.84c-.37-1.17.49-1.72.3-2.63s-1.87-.78-1.88-.77h0a7.18,7.18,0,0,0-3.61,2.45,7.34,7.34,0,0,0-1.48,3.84L99.45,407h0Z" style="fill:#455a64"></path><path d="M105.53,404.52c.19-1.09-.54-1.41-1.1-2.13-1.51,1.93-4.78,2.61-5.38,2.74l.4,1.84c.37-.05.77-.08,1.19-.14l.32-.05.66-.12a9.34,9.34,0,0,0,1-.3c.24-.09.48-.19.73-.31a7.84,7.84,0,0,0,1.5-.94A5.1,5.1,0,0,0,105.53,404.52Z" style="fill:#37474f"></path><path d="M105.53,404.51a3.07,3.07,0,0,0,.28-.35l0,0,.18-.27.06-.11,0-.09a1.09,1.09,0,0,0,.08-.15l.1-.2.18-.44c.05-.15.1-.3.14-.45s.07-.31.1-.46a7.38,7.38,0,0,0-.06-2.84c0-.07,0-.13,0-.2l0-.05-.06-.23a8.65,8.65,0,0,0-.54-1.31,6,6,0,0,0-.3-.52,4,4,0,0,0-.29-.43c0-.07-.09-.12-.13-.18l-.12-.15-.21-.24-.19-.2a2.93,2.93,0,0,1-1.42,2.06,5.63,5.63,0,0,1-.95.48s1.69-.14,1.88.77-.67,1.46-.3,2.63a2.68,2.68,0,0,0,.45.84c.56.72,1.29,1,1.1,2.13Z" style="fill:#1F509A"></path><path d="M104.77,395.61a7.68,7.68,0,0,1,.26,5.63,3.6,3.6,0,0,1-.6,1.15c.56.72,1.29,1,1.1,2.13h0a3.07,3.07,0,0,0,.28-.35l0,0,.18-.27.06-.11,0-.09a1.09,1.09,0,0,0,.08-.15l.1-.2.18-.44c.05-.15.1-.3.14-.45s.07-.31.1-.46a7.38,7.38,0,0,0-.06-2.84c0-.07,0-.13,0-.2l0-.05-.06-.23a8.65,8.65,0,0,0-.54-1.31,6,6,0,0,0-.3-.52,4,4,0,0,0-.29-.43c0-.07-.09-.12-.13-.18l-.12-.15-.21-.24-.19-.2Z" style="opacity:0.1"></path><path d="M99.45,407a.88.88,0,0,0,.15-.76,2.59,2.59,0,0,0-1.51-1.79.87.87,0,0,0-.78,0c-1.12.68-2.29,1.48-3.49,2.36a1.1,1.1,0,0,1,1,0A3.26,3.26,0,0,1,96.73,409a1,1,0,0,1-.23,1C97.65,408.84,98.73,407.74,99.45,407Z" style="fill:#ebebeb"></path><path d="M96,407.55a3.18,3.18,0,0,1,.78,1.48,1,1,0,0,1-.23,1c1.15-1.18,2.23-2.28,3-3a.88.88,0,0,0,.15-.76,2.42,2.42,0,0,0-.55-1.08h0L96,407.55Z" style="fill:#e0e0e0"></path></g></g><g id="freepik--brush--inject-3"><g id="freepik--brush--inject-3"><path d="M119.45,402.65h0S93.76,417.87,86,422.83a122.73,122.73,0,0,0-16.26,12.84h0l0,0h0a.67.67,0,0,0-.17.58.68.68,0,0,0,.79.55l.15,0h0s11.07-4.42,18.62-9.27,32.12-22.09,32.12-22.09h0a.88.88,0,0,0,.25-.73,2.59,2.59,0,0,0-1.27-2A.87.87,0,0,0,119.45,402.65Z" style="fill:#1F509A"></path><path d="M117.7,405.57,119,407c-6,4.18-22.37,15.62-29.12,20l0,0-.73.47c-7.55,4.85-18.62,9.27-18.62,9.27h0l-.15,0a.68.68,0,0,1-.79-.55C69.91,436.76,117.7,405.57,117.7,405.57Z" style="opacity:0.1"></path><path d="M121.09,403.56c.61-.05,3.94-.31,5.68-2a2.47,2.47,0,0,1-.34-.89c-.22-1.21.71-1.64.64-2.57s-1.75-1-1.77-1h0a7.22,7.22,0,0,0-3.89,2,7.31,7.31,0,0,0-2,3.62l1.79,2.78h0Z" style="fill:#455a64"></path><path d="M127.59,403.78c.33-1-.36-1.46-.82-2.25-1.74,1.72-5.07,2-5.68,2l.15,1.87,1.2,0h.32l.68,0c.34,0,.7-.09,1.08-.17a6.24,6.24,0,0,0,.76-.21,8.41,8.41,0,0,0,1.61-.74A4.06,4.06,0,0,0,127.59,403.78Z" style="fill:#37474f"></path><path d="M127.6,403.78l.31-.31,0,0c.08-.08.15-.17.22-.25l.08-.1a.56.56,0,0,0,0-.08,1.71,1.71,0,0,0,.11-.14,1.74,1.74,0,0,0,.11-.18,4.49,4.49,0,0,0,.24-.42c.07-.14.14-.28.2-.43s.11-.29.15-.44a7.46,7.46,0,0,0,.32-2.82,1.5,1.5,0,0,1,0-.2v-.06a1.57,1.57,0,0,0,0-.23,7.64,7.64,0,0,0-.37-1.38c-.07-.2-.15-.38-.22-.55s-.16-.32-.23-.46-.07-.14-.11-.2l-.1-.17-.18-.26-.16-.21a2.94,2.94,0,0,1-1.68,1.86,4.9,4.9,0,0,1-1,.34s1.7.08,1.77,1-.86,1.36-.64,2.57a2.47,2.47,0,0,0,.34.89c.46.79,1.15,1.2.82,2.25Z" style="fill:#1F509A"></path><path d="M128,394.86a7.66,7.66,0,0,1-.46,5.61,3.69,3.69,0,0,1-.75,1.06c.46.79,1.15,1.2.82,2.25h0l.31-.31,0,0c.08-.08.15-.17.22-.25l.08-.1a.56.56,0,0,0,0-.08,1.71,1.71,0,0,0,.11-.14,1.74,1.74,0,0,0,.11-.18,4.49,4.49,0,0,0,.24-.42c.07-.14.14-.28.2-.43s.11-.29.15-.44a7.46,7.46,0,0,0,.32-2.82,1.5,1.5,0,0,1,0-.2v-.06a1.57,1.57,0,0,0,0-.23,7.64,7.64,0,0,0-.37-1.38c-.07-.2-.15-.38-.22-.55s-.16-.32-.23-.46-.07-.14-.11-.2l-.1-.17-.18-.26-.16-.21Z" style="opacity:0.1"></path><path d="M121.24,405.43a.88.88,0,0,0,.25-.73,2.59,2.59,0,0,0-1.27-2,.87.87,0,0,0-.77-.08,37,37,0,0,0-3.8,2.26c.25-.14.64-.48,1-.27a3.24,3.24,0,0,1,1.6,2.49c0,.45-.39.65-.63.82C118.94,406.93,120.43,406.11,121.24,405.43Z" style="fill:#ebebeb"></path><path d="M117.7,405.57a3.09,3.09,0,0,1,.58,1.56c0,.45-.39.65-.63.82a37.65,37.65,0,0,0,3.59-2.52.89.89,0,0,0,.25-.73,2.45,2.45,0,0,0-.4-1.14l0,0-3.35,2Z" style="fill:#e0e0e0"></path></g></g><g id="freepik--brush--inject-3"><path d="M76.73,400.68l17.37-10a1.31,1.31,0,0,0,.54-1.2,4.1,4.1,0,0,0-1.85-3.23,1.29,1.29,0,0,0-1.32-.13l-17.36,10Z" style="fill:#455a64"></path><polygon points="78.57 393.54 83.84 396.59 76.73 400.68 74.11 396.12 78.57 393.54" style="fill:#37474f"></polygon><path d="M58.86,401.84l3.53-2-3.53-2,7.26-4.2a8.74,8.74,0,0,1,7.92,0l6.2,3.59a2.9,2.9,0,0,1,1.63,2.15c0,.08,0,3.58,0,4.35a2.83,2.83,0,0,1-1.63,2.16L73,410Z" style="fill:#37474f"></path><path d="M80.24,397.15,74,393.56a8.74,8.74,0,0,0-7.92,0l-7.26,4.2L73,405.93l7.27-4.2C82.42,400.47,82.42,398.42,80.24,397.15Z" style="fill:#455a64"></path><polygon points="72.97 405.93 58.86 397.76 48.26 403.86 62.38 412.03 72.97 405.93" style="fill:#f0f0f0"></polygon><polygon points="72.97 405.93 62.38 412.03 62.37 416.11 72.97 410.01 72.97 405.93" style="fill:#ebebeb"></polygon><polygon points="76.12 404.11 62.01 395.94 63.45 395.1 77.64 403.23 76.12 404.11" style="fill:#1F509A"></polygon><polygon points="76.12 404.11 76.12 408.19 77.64 407.31 77.64 403.23 76.12 404.11" style="fill:#1F509A"></polygon><polygon points="76.12 404.11 76.12 408.19 77.64 407.31 77.64 403.23 76.12 404.11" style="opacity:0.1"></polygon><path d="M65.61,414.25s1.93-2.49.9-4.6L62.38,412v4.08Z" style="fill:#1F509A"></path><path d="M65.61,414.25s1.93-2.49.9-4.6L62.38,412v4.08Z" style="opacity:0.1"></path><path d="M66.51,409.65a5,5,0,0,0-2.89-3.88c-1.93-.83-6,.86-7.71-1.9-1.19-1.94.12-4.48.12-4.48l-7.77,4.47L62.38,412Z" style="fill:#1F509A"></path><polygon points="48.26 403.86 48.26 407.94 62.37 416.11 62.38 412.03 48.26 403.86" style="fill:#1F509A"></polygon><polygon points="48.26 403.86 48.26 407.94 62.37 416.11 62.38 412.03 48.26 403.86" style="opacity:0.15"></polygon></g></g><g id="freepik--Scissors--inject-3"><g id="freepik--scissors--inject-3"><path d="M438,377.18l39.43-8.73.09,1.06s-.85,1.44-10.06,4.16-32,7.55-32,7.55l-.94-1.26Z" style="fill:#263238"></path><path d="M466.35,359.69a27.69,27.69,0,0,1-5.1,5.86c-2.75,2.16-17.52,15-17.52,15L439,383.15l-1.43-.83,2.15-5S456.36,365.5,460,363,466.81,359,466.35,359.69Z" style="fill:#37474f"></path><polygon points="437.55 381.16 438.97 381.98 438.6 382.93 437.55 382.32 437.55 381.16" style="fill:#263238"></polygon><polygon points="466.38 358.41 466.38 359.6 465.19 361.34 465.19 359.5 466.38 358.41" style="fill:#37474f"></polygon><path d="M443.29,396.12c1.84-2.85-.3-5.56-.09-8s.53-7.6.53-7.6L439,383.15l-2.24,5.74c-.65,1.71-3.5,3.5-5.24,5s-3.21,5,1.67,6.35S441.46,399,443.29,396.12Zm-8.57,2.18c-1.87-.54-2.44-2.08-1.25-3.44a5.81,5.81,0,0,1,5.54-1.48c1.87.55,2.44,2.09,1.25,3.45A5.78,5.78,0,0,1,434.72,398.3Z" style="fill:#1F509A"></path><path d="M443.29,396.12c1.84-2.85-.3-5.56-.09-8s.53-7.6.53-7.6L439,383.15l-2.24,5.74c-.65,1.71-3.5,3.5-5.24,5s-3.21,5,1.67,6.35S441.46,399,443.29,396.12Zm-8.57,2.18c-1.87-.54-2.44-2.08-1.25-3.44a5.81,5.81,0,0,1,5.54-1.48c1.87.55,2.44,2.09,1.25,3.45A5.78,5.78,0,0,1,434.72,398.3Z" style="opacity:0.2"></path><path d="M443.49,378.72a2.07,2.07,0,0,1-2,.38c-.72-.21-1-.72-.64-1.13a2,2,0,0,1,2-.38C443.56,377.8,443.85,378.31,443.49,378.72Z" style="fill:#263238"></path><path d="M438,376.62s-5.64,1-7.5,1.21-4.53-.22-9.18.2-13,4.4-13.42,8.27,3.57,4.15,6.45,3.45,4.47-1.75,9.4-4.21c6.57-3.29,10.94-5.38,10.94-5.38l3.68-3.05Zm-10.92,5.2a61,61,0,0,0-7.83,3.17c-3.14,1.55-3.9,2.61-5.86,3.07-1.6.38-3.18-.52-2.37-2.27s3.21-3.8,7.56-5.23,7.91-1.16,9.49-.32C428.69,380.56,429,381.2,427.09,381.82Z" style="fill:#1F509A"></path><path d="M438,376.62s-5.64,1-7.5,1.21-4.53-.22-9.18.2-13,4.4-13.42,8.27,3.57,4.15,6.45,3.45,4.47-1.75,9.4-4.21c6.57-3.29,10.94-5.38,10.94-5.38l3.68-3.05Zm-10.92,5.2a61,61,0,0,0-7.83,3.17c-3.14,1.55-3.9,2.61-5.86,3.07-1.6.38-3.18-.52-2.37-2.27s3.21-3.8,7.56-5.23,7.91-1.16,9.49-.32C428.69,380.56,429,381.2,427.09,381.82Z" style="opacity:0.2"></path><polygon points="435.49 381.22 435.49 380.06 434.7 379 434.7 380.16 435.49 381.22" style="fill:#263238"></polygon><path d="M438,376l39.52-7.67s-.85,1.44-10.06,4.16-32,7.55-32,7.55l-.94-1.26Z" style="fill:#37474f"></path><path d="M466.35,358.53a27.69,27.69,0,0,1-5.1,5.86c-2.75,2.16-17.52,15-17.52,15L439,382l-1.43-.82,2.15-5s16.67-11.82,20.27-14.29S466.81,357.85,466.35,358.53Z" style="fill:#455a64"></path><path d="M443.29,395c1.84-2.84-.3-5.55-.09-8s.53-7.6.53-7.6L439,382l-2.24,5.75c-.65,1.71-3.5,3.5-5.24,5s-3.21,5,1.67,6.35S441.46,397.8,443.29,395Zm-8.57,2.19c-1.87-.54-2.44-2.09-1.25-3.45a5.83,5.83,0,0,1,5.54-1.47c1.87.54,2.44,2.09,1.25,3.45A5.81,5.81,0,0,1,434.72,397.14Z" style="fill:#1F509A"></path><path d="M443.49,377.56a2.07,2.07,0,0,1-2,.38c-.72-.21-1-.72-.64-1.14a2.07,2.07,0,0,1,2-.37C443.56,376.64,443.85,377.15,443.49,377.56Z" style="fill:#263238"></path><path d="M438,375.45s-5.64,1-7.5,1.22-4.53-.23-9.18.2-13,4.4-13.42,8.26,3.57,4.16,6.45,3.46,4.47-1.75,9.4-4.22c6.57-3.28,10.94-5.37,10.94-5.37l3.68-3.05Zm-10.92,5.21a61,61,0,0,0-7.83,3.17c-3.14,1.55-3.9,2.61-5.86,3.07-1.6.38-3.18-.52-2.37-2.27s3.21-3.8,7.56-5.23,7.91-1.17,9.49-.33C428.69,379.4,429,380,427.09,380.66Z" style="fill:#1F509A"></path></g></g></svg>